<svg width="61" height="62" viewBox="0 0 61 62" fill="none" xmlns="http://www.w3.org/2000/svg">
<path id="Vector" d="M60.9453 3.58727L57.8964 0.494141L0.570312 58.651L3.61925 61.7441L7.93175 57.3691H52.3203C53.4635 57.3674 54.5594 56.9059 55.3678 56.0858C56.1762 55.2657 56.6311 54.1539 56.6328 52.9941V7.96227L60.9453 3.58727ZM52.3203 52.9941H12.2443L29.0479 35.947L34.1776 41.151C34.9863 41.9712 36.083 42.432 37.2266 42.432C38.3701 42.432 39.4668 41.9712 40.2755 41.151L43.6953 37.6816L52.3203 46.4251V52.9941ZM52.3203 40.2366L46.7442 34.5798C45.9355 33.7596 44.8388 33.2988 43.6953 33.2988C42.5518 33.2988 41.4551 33.7596 40.6464 34.5798L37.2266 38.0491L32.1012 32.8495L52.3203 12.3373V40.2366ZM9.19531 44.2441V37.6816L19.9766 26.7507L22.9371 29.7563L25.9903 26.6588L23.0255 23.651C22.2168 22.8308 21.1201 22.3701 19.9766 22.3701C18.833 22.3701 17.7363 22.8308 16.9276 23.651L9.19531 31.4954V9.24414H43.6953V4.86914H9.19531C8.05192 4.8703 6.95568 5.33161 6.14718 6.15183C5.33867 6.97205 4.88395 8.08417 4.88281 9.24414V44.2441H9.19531Z" fill="#ACACAC"/>
</svg>

