<svg width="575" height="821" viewBox="0 0 575 821" fill="none" xmlns="http://www.w3.org/2000/svg">
<path fill-rule="evenodd" clip-rule="evenodd" d="M196.231 5.13012C189.889 28.1425 183.851 44.2913 177.482 55.2727C172.587 63.7139 167.369 70.2284 156.019 82.0704C135.19 103.802 119.484 117.704 88.6006 141.744C78.3897 149.692 66.0934 160.526 57.5903 169.066C32.4874 194.278 12.9157 223.127 2.08441 250.883C-10.5846 283.348 -14.7957 320.698 -9.7677 356.003C-4.5822 392.414 10.9728 428.814 34.379 459.31C42.4714 469.854 51.6176 480.089 62.1422 490.38C75.8056 503.74 95.8885 520.96 111.609 532.797C114.925 535.293 117.634 537.402 117.63 537.484C117.625 537.565 116.737 537.976 115.656 538.396C112.232 539.726 107.789 542.781 98.1809 550.41C84.1903 561.517 70.6886 577.444 61.0541 594.205C51.3092 611.158 46.4053 626.435 44.9742 644.3C44.3106 652.585 44.8251 671.183 46.199 688.579C47.6724 707.232 52.0919 730.499 57.6822 749.036C60.7597 759.239 63.2324 766.081 67.0884 775.057C70.0253 781.894 74.1721 792.175 79.986 807.033C86.0465 822.521 87.6244 825.6 91.2037 828.928C99.1663 836.331 116.678 840.016 129.747 837.039C137.663 835.236 141.752 831.453 141.752 825.935C141.752 819.951 138.025 813.963 132.958 811.807C130.495 810.759 128.35 810.824 123.294 812.1C116.647 813.778 112.636 813.466 108.855 810.976C104.516 808.118 101.201 802.247 95.4473 787.226C92.0868 778.453 90.4529 772.056 89.6303 764.449C89.1263 759.785 89.4303 750.4 90.2258 746.059C91.9063 736.889 95.4509 728.173 99.929 722.198C105.375 714.932 110.589 709.835 129.687 693.11C146.774 678.147 149.427 675.657 153.295 670.943C159.571 663.297 163.066 656.973 173.245 634.855C178.642 623.125 180.638 618.502 181.752 615.145L182.447 613.053L189.976 620.006C197.43 626.887 204.485 632.927 211.128 638.113C219.532 644.674 224.419 647.467 239.496 654.323C260.842 664.03 273.665 668.402 300.042 674.969C322.634 680.593 331.294 681.077 336.614 677.015C339.25 675.001 341.058 669.912 345.979 650.648C348.708 639.963 349.212 638.333 350.6 635.708C352.465 632.179 353.944 631.055 356.379 631.313C357.792 631.462 363.673 633.29 365.097 634.022C365.544 634.252 366.046 634.777 366.211 635.19C366.849 636.781 365.751 639.069 361.108 645.825C355.842 653.487 354.382 656.71 352.117 665.665C347.971 682.059 346.738 691.395 346.73 706.445C346.725 716.574 346.967 719.999 348.239 727.805C350.563 742.072 354.888 755.759 362.534 773.046C366.361 781.699 367.962 784.068 377.297 794.901C388.591 808.007 393.742 814.637 396.541 819.671C397.743 821.833 397.935 822.405 397.962 823.887C397.979 824.83 398.088 825.736 398.204 825.899C398.823 826.77 400.327 827.042 405.661 827.245C409.131 827.377 414.032 827.816 419.515 828.487C424.182 829.058 429.339 829.664 430.977 829.834C434.863 830.237 442.11 830.254 444.374 829.865C447.117 829.394 449.755 828.161 450.712 826.902C451.441 825.943 451.519 825.613 451.519 823.478C451.519 821.27 451.446 820.988 450.401 819.151C446.49 812.27 433.526 808.892 421.301 811.568C419.582 811.945 417.164 812.317 415.928 812.395C411.992 812.644 411.461 812.179 407.173 804.722C401.942 795.625 400.189 791.726 399.016 786.579C396.415 775.167 396.226 760.66 398.538 749.832C400.31 741.526 403.697 733.372 408.666 725.446C418.463 709.819 433.514 691.654 449.842 675.75C452.084 673.566 452.151 673.526 454.943 672.675C477.295 665.867 500.594 653.906 517.1 640.766C540.425 622.197 550.451 596.657 549.504 558.216C549.004 537.904 545.262 502.184 541.72 483.907C541.32 481.842 539.997 475.9 538.782 470.702C535.592 457.065 535.033 452.588 535.03 440.668C535.028 433.299 535.296 429.787 536.262 424.491C537.564 417.354 539.73 411.146 543.421 403.974C545.439 400.052 553.097 386.791 558.489 377.881C566.938 363.92 570.701 355.927 572.96 347.149C574.263 342.084 574.693 338.853 574.71 333.995C574.726 329.664 574.394 327.312 573.263 323.753C573.136 323.354 573.286 323.143 573.857 322.917C574.278 322.75 574.622 322.486 574.622 322.33C574.622 322.174 574.091 321.268 573.442 320.318C571.44 317.383 571.223 316.134 571.61 309.792C572.114 301.533 572.189 302.144 570.502 300.638C569.709 299.93 568.336 299.02 567.45 298.616C566.026 297.966 565.526 297.881 563.138 297.879C560.555 297.876 560.323 297.925 557.877 298.979C554.525 300.424 553.082 301.76 547.084 308.971C546.431 309.756 545.549 310.324 543.809 311.081C542.07 311.837 541.402 312.267 541.336 312.674C541.238 313.271 539.591 314.011 537.11 314.572C536.373 314.739 534.699 315.374 533.389 315.982C522.69 320.953 509.388 323.966 499.899 323.569C498.179 323.497 494.19 323.018 491.035 322.504C487.88 321.99 482.723 321.276 479.573 320.916C470.698 319.902 466.486 319.276 461.641 318.25C457.811 317.44 456.688 317.306 453.752 317.309C451.293 317.312 449.783 317.451 448.393 317.801C445.201 318.606 439.341 320.713 433.656 323.101C424.223 327.062 422.303 328.113 400.313 341.365C380.726 353.169 375.093 355.938 367.126 357.678C362.96 358.589 360.201 358.851 354.788 358.851C350.551 358.851 349.218 358.737 344.166 357.945C324.628 354.882 311.594 353.897 303.2 354.847C297.424 355.502 287.332 357.704 287.332 358.31C287.332 358.76 289.505 363.191 290.768 365.315C295.198 372.767 301.358 378.969 309.809 384.487C320.308 391.341 327.901 394.538 336.837 395.866C341.623 396.578 350.302 396.992 357.424 396.849L363.397 396.729L369.202 395.409C376.339 393.787 382.49 392.689 383.365 392.88C385.251 393.292 384.288 395.264 379.871 400.04C378.521 401.499 376.02 403.898 374.311 405.371L371.206 408.049L373.588 411.089C380.974 420.514 385.764 429.98 389.014 441.574C391.498 450.433 392.297 456.451 392.037 464.33C391.841 470.264 391.367 473.388 389.856 478.729C385.822 492.983 376.432 505.635 362.355 515.784C346.187 527.44 332.375 532.807 306.198 537.603C290.156 540.542 268.656 541.344 250.267 539.691C226.396 537.545 211.966 534.909 198.317 530.202C183.35 525.039 168.45 516.551 156.379 506.308C137.716 490.473 126.836 471.644 123.385 449.212C122.709 444.818 122.621 430.971 123.241 426.687C125.191 413.224 129.889 402.237 138.515 390.97C144.755 382.819 156.886 370.276 167.345 361.161C176.077 353.551 179.046 351.396 201.741 336.202C220.865 323.398 231.943 315.756 248.63 303.855C268.457 289.715 272.471 286.648 281.838 278.485C299.31 263.256 310.074 251.657 318.864 238.585C338.198 209.835 345.95 174.544 340.02 142.268C337.474 128.411 332.705 115.295 325.605 102.628C321.747 95.744 318.705 91.1208 313.613 84.4007C301.97 69.0359 291.427 58.9006 270.66 43.1083C248.518 26.2698 231.407 15.8389 209.034 5.53947C205.842 4.0696 201.938 2.3473 200.36 1.71192L197.492 0.556641L196.231 5.13012ZM544.104 338.202C543.231 346.924 541.588 354.091 538.693 361.809C535.884 369.299 533.446 373.582 527.515 381.449C517.94 394.148 513.67 404.798 511.973 420.214C510.854 430.374 510.198 444.455 510.412 453.743C510.789 470.115 512.704 482.645 517.018 496.982C525.906 526.515 526.896 531.426 527.2 547.492C527.692 573.505 522.874 590.648 510.071 608.445C498.584 624.412 480.563 639.856 458.515 652.627C456.304 653.908 454.295 655.055 454.049 655.176C453.804 655.296 454.942 654.182 456.58 652.698C470.62 639.976 479.992 627.485 486.913 612.268C496.487 591.218 498.753 568.387 493.497 545.917C490.605 533.549 486.819 524.561 479.99 513.844C473.193 503.177 467.175 492.399 462.991 483.398C459.505 475.896 455.786 466.393 454.224 460.993C452.492 455.007 452.427 454.339 452.413 442.481C452.406 436.428 452.288 431.272 452.15 431.021C451.778 430.345 450.672 430.211 449.568 430.707C449.032 430.948 446.385 433.067 443.684 435.416C438.352 440.052 434.348 443.136 429.935 446.004C426.44 448.275 422.826 450.366 422.654 450.216C422.583 450.154 422.254 448.476 421.924 446.486C419.158 429.848 423.205 414.303 433.959 400.265C440.25 392.053 446.71 386.443 456.133 381.011C467.175 374.645 478.416 369.323 492.007 364.026C512.185 356.16 525.022 349.522 539.79 339.315C542.164 337.674 544.148 336.33 544.199 336.329C544.25 336.327 544.207 337.17 544.104 338.202ZM199.21 649.21C198.262 649.661 197.644 650.403 195.426 653.755C186.696 666.948 178.444 687.354 175.415 703.238C173.913 711.115 173.566 714.787 173.394 724.603C173.131 739.685 174.182 748.679 177.625 760.817C181.58 774.758 188.121 789.119 197.46 804.368C201.731 811.341 205.516 818.052 207.109 821.476C208.816 825.146 209.691 826.201 211.818 827.161C213.156 827.764 213.787 827.865 216.775 827.959C218.658 828.018 222.476 827.913 225.26 827.725C228.62 827.498 234.704 827.403 243.362 827.441C256.858 827.502 257.999 827.43 259.457 826.432C260.446 825.756 260.495 824.51 259.622 822.236C258.19 818.505 255.092 815.05 251.901 813.624L250.267 812.895L240.592 812.695C235.27 812.586 230.215 812.377 229.358 812.232C225.015 811.495 222.967 809.605 216.983 800.811C211.165 792.262 208.241 785.5 206.349 776.222C205.422 771.683 205.199 763.108 205.894 758.773C207.839 746.635 214.301 736.35 226.498 725.978C230.871 722.259 234.276 719.752 238.954 716.808C248.495 710.803 255.758 704.911 260.552 699.287C263.052 696.355 265.456 692.774 266.485 690.452C266.964 689.369 267.698 687.897 268.115 687.18C269.001 685.659 269.085 684.546 268.353 683.997C267.571 683.41 263.448 681.653 258.767 679.912C253.084 677.797 241.428 672.698 235.341 669.662C230.043 667.02 225.758 664.661 216.031 659.03C208.917 654.912 206.582 653.327 204.759 651.382C202.569 649.043 200.92 648.398 199.21 649.21ZM512.395 661.864C511.491 662.187 509.95 662.85 508.971 663.335C506.381 664.621 498.687 669.735 493.198 673.819C490.578 675.769 487.396 677.922 486.126 678.603C482.287 680.662 476.913 681.971 472.284 681.975C470.754 681.977 470.127 682.071 470.131 682.301C470.14 682.853 500.393 828.523 500.52 828.63C500.662 828.748 520.433 830.309 533.836 831.26C544.529 832.018 551.603 832.026 554.26 831.281C556.29 830.713 558.355 829.101 559.044 827.548C559.742 825.975 559.696 822.799 558.944 820.532L558.397 818.884L555.271 817.921C546.211 815.132 539.259 810.628 534.388 804.389C530.065 798.853 524.972 786.335 521.507 772.727C518.905 762.508 517.093 751.057 515.916 737.385C515.398 731.363 515.397 705.885 515.915 699.324C516.445 692.598 517.356 684.083 518.226 677.705C519.163 670.838 519.451 665.429 518.963 663.877C518.766 663.249 518.223 662.404 517.758 662C517.059 661.392 516.662 661.265 515.475 661.27C514.677 661.273 513.307 661.538 512.395 661.864Z" fill="white" fill-opacity="0.13"/>
</svg>
