<svg width="492" height="339" viewBox="0 0 492 339" fill="none" xmlns="http://www.w3.org/2000/svg">
<g clip-path="url(#clip0_390_28425)">
<path d="M206.003 316.332H133.903C116.103 316.332 112.703 320.532 120.203 323.632C127.703 326.732 91.8032 325.232 85.7032 330.732C79.5032 336.232 95.3032 338.332 112.403 338.332H249.803C263.503 338.332 260.103 328.332 251.903 327.032C243.703 325.732 265.203 327.532 273.403 324.632C281.603 321.732 275.703 316.332 206.003 316.332Z" fill="#99ADF9"/>
<path d="M311.205 334.631C309.105 337.531 302.105 338.231 290.205 337.931C281.205 337.631 271.805 336.931 271.805 332.731C271.805 328.531 294.705 329.031 302.705 329.931C309.605 330.731 312.405 332.931 311.205 334.631Z" fill="#C5D3FF"/>
<path d="M103.999 320.631C102.599 322.731 97.7987 323.331 89.3987 323.331C83.0987 323.331 76.4987 323.031 76.2987 320.131C76.0987 317.131 92.1987 317.031 97.8987 317.531C102.699 317.931 104.799 319.331 103.999 320.631Z" fill="#C5D3FF"/>
<path d="M456.105 313.832H420.405C419.054 313.827 417.76 313.288 416.805 312.333C415.849 311.377 415.31 310.083 415.305 308.732V271.832C415.31 270.482 415.849 269.188 416.805 268.232C417.76 267.277 419.054 266.738 420.405 266.732H456.105C457.456 266.738 458.75 267.277 459.705 268.232C460.66 269.188 461.199 270.482 461.205 271.832V308.732C461.199 310.083 460.66 311.377 459.705 312.333C458.75 313.288 457.456 313.827 456.105 313.832Z" fill="#4D4D4D"/>
<path d="M454.403 312.132H420.103C418.804 312.13 417.559 311.613 416.641 310.695C415.722 309.776 415.205 308.531 415.203 307.232V271.632C415.205 270.334 415.722 269.088 416.641 268.17C417.559 267.251 418.804 266.735 420.103 266.732H454.403C455.702 266.735 456.947 267.251 457.866 268.17C458.784 269.088 459.301 270.334 459.303 271.632V307.232C459.301 308.531 458.784 309.776 457.866 310.695C456.947 311.613 455.702 312.13 454.403 312.132Z" fill="#BABABA"/>
<path d="M437.603 304.232C445.556 304.232 452.003 297.785 452.003 289.832C452.003 281.879 445.556 275.432 437.603 275.432C429.65 275.432 423.203 281.879 423.203 289.832C423.203 297.785 429.65 304.232 437.603 304.232Z" fill="#357992"/>
<path d="M431.9 296.332C431.661 296.332 431.432 296.237 431.264 296.068C431.095 295.899 431 295.67 431 295.432V284.332C431 284.093 431.095 283.864 431.264 283.695C431.432 283.526 431.661 283.432 431.9 283.432V283.432C432.139 283.432 432.368 283.526 432.536 283.695C432.705 283.864 432.8 284.093 432.8 284.332V295.432C432.8 295.67 432.705 295.899 432.536 296.068C432.368 296.237 432.139 296.332 431.9 296.332Z" fill="#1C3177"/>
<path d="M442.298 296.332C442.06 296.332 441.831 296.237 441.662 296.068C441.493 295.899 441.398 295.67 441.398 295.432V284.332C441.398 284.093 441.493 283.864 441.662 283.695C441.831 283.526 442.06 283.432 442.298 283.432V283.432C442.537 283.432 442.766 283.526 442.935 283.695C443.104 283.864 443.198 284.093 443.198 284.332V295.432C443.198 295.67 443.104 295.899 442.935 296.068C442.766 296.237 442.537 296.332 442.298 296.332Z" fill="#1C3177"/>
<path d="M350.404 251.431C349.702 251.448 349 251.414 348.304 251.331C332.804 250.231 322.204 244.931 304.404 217.831C298.204 208.431 294.004 198.831 289.904 189.531C282.904 173.631 276.904 159.831 263.304 153.431C242.404 143.631 221.904 159.831 221.704 160.031C221.278 160.363 220.739 160.514 220.203 160.453C219.668 160.392 219.177 160.123 218.837 159.704C218.496 159.286 218.334 158.75 218.384 158.213C218.434 157.676 218.692 157.18 219.104 156.831C220.004 156.131 241.804 138.831 265.004 149.731C280.004 156.731 286.604 171.831 293.604 187.831C297.604 197.031 301.804 206.531 307.804 215.531C324.704 241.131 334.404 246.131 348.604 247.231C359.204 248.031 364.904 241.631 370.404 235.331C372.243 233.178 374.213 231.141 376.304 229.231C381.131 225.021 387.004 222.188 393.304 221.031C393.566 220.992 393.834 221.005 394.092 221.069C394.35 221.133 394.592 221.247 394.806 221.405C395.019 221.563 395.2 221.761 395.337 221.989C395.474 222.216 395.564 222.469 395.604 222.731C395.643 222.994 395.63 223.262 395.566 223.519C395.502 223.777 395.388 224.02 395.23 224.233C395.072 224.447 394.874 224.627 394.646 224.764C394.419 224.901 394.166 224.992 393.904 225.031C388.397 226.158 383.269 228.671 379.004 232.331C377.047 234.108 375.21 236.013 373.504 238.031C367.904 244.431 361.704 251.431 350.404 251.431Z" fill="#3045AC"/>
<path d="M408.602 214.13L417.002 207.03C417.202 206.86 417.436 206.732 417.687 206.654C417.939 206.577 418.204 206.551 418.466 206.579C418.728 206.607 418.981 206.689 419.211 206.818C419.441 206.947 419.642 207.121 419.802 207.33C420.096 207.719 420.23 208.206 420.174 208.691C420.118 209.175 419.877 209.619 419.502 209.93L411.002 217.43L408.602 214.13Z" fill="#1C3177"/>
<path d="M403.398 208.13L411.798 201.03C411.999 200.86 412.233 200.732 412.484 200.654C412.736 200.577 413.001 200.551 413.263 200.579C413.525 200.607 413.778 200.689 414.008 200.818C414.237 200.947 414.438 201.121 414.598 201.33C414.893 201.719 415.027 202.206 414.971 202.691C414.915 203.175 414.674 203.619 414.298 203.93L405.798 211.43L403.398 208.13Z" fill="#1C3177"/>
<path d="M414.502 217.831C411.889 220.812 409.083 223.618 406.102 226.231C401.002 230.631 394.402 229.831 391.402 226.431C391.202 226.231 391.102 226.031 390.902 225.831C389.511 224.064 388.858 221.827 389.082 219.589C389.306 217.351 390.388 215.287 392.102 213.831C396.202 210.031 403.002 204.631 403.002 204.631L411.202 214.131L414.502 217.831Z" fill="#BABABA"/>
<path d="M414.498 217.831C411.885 220.812 409.079 223.618 406.098 226.231C400.998 230.631 394.398 229.831 391.398 226.431C391.198 226.231 391.098 226.031 390.898 225.831C394.518 225.845 398.063 224.803 401.098 222.831C404.667 220.213 408.012 217.303 411.098 214.131L414.498 217.831Z" fill="#4D4D4D"/>
<path d="M261.507 294.433H261.107C254.307 294.333 236.607 281.033 232.107 274.833C227.507 268.633 223.407 260.733 229.007 255.633C230.289 254.556 231.849 253.863 233.507 253.633C236.574 253.153 239.711 253.83 242.307 255.533C247.107 258.633 260.607 274.333 264.407 281.033C268.107 287.633 268.007 294.333 261.507 294.433Z" fill="#3045AC"/>
<path d="M261.508 294.433C262.508 293.833 263.208 292.833 263.808 290.833C264.808 287.333 261.308 280.333 249.808 266.933C242.908 258.833 237.008 255.233 233.508 253.633C236.575 253.153 239.711 253.83 242.308 255.533C247.108 258.633 260.608 274.333 264.408 281.033C268.108 287.633 268.008 294.333 261.508 294.433Z" fill="#4461F2"/>
<path d="M227.707 259.934C228.707 257.134 234.507 257.634 239.507 262.534C244.507 267.434 252.107 277.134 250.207 281.334C248.307 285.534 241.107 282.134 235.207 276.334C229.307 270.534 226.107 264.434 227.707 259.934Z" fill="#4461F2"/>
<path d="M240.306 272.432C240.226 274.247 239.748 276.022 238.906 277.632C238.906 277.632 212.006 290.432 178.306 266.932C144.006 243.032 143.906 213.232 143.906 212.932C161.506 195.732 181.306 214.632 181.306 214.632C182.363 222.101 184.59 229.357 187.906 236.132C191.006 242.332 195.506 248.632 201.906 252.832C211.546 259.095 223.116 261.686 234.506 260.132C234.506 260.132 237.706 261.132 239.606 267.232C240.26 268.883 240.5 270.668 240.306 272.432Z" fill="#BABABA"/>
<path d="M240.306 272.432C240.226 274.247 239.748 276.022 238.906 277.632C238.906 277.632 212.006 290.432 178.306 266.932C144.006 243.032 143.906 213.232 143.906 212.932C161.506 195.732 181.306 214.632 181.306 214.632C182.363 222.101 184.59 229.357 187.906 236.132C185.268 238.192 182.335 239.843 179.206 241.032C175.487 242.034 171.658 242.571 167.806 242.632C167.806 242.632 184.706 267.932 209.706 272.532C223.206 274.832 233.606 273.832 240.306 272.432Z" fill="#6A6A6A"/>
<path d="M202.607 277.531C202.337 277.529 202.074 277.441 201.858 277.279C201.642 277.117 201.484 276.89 201.407 276.631C201.344 276.467 201.315 276.292 201.321 276.116C201.327 275.941 201.369 275.768 201.444 275.61C201.519 275.451 201.625 275.309 201.756 275.192C201.887 275.075 202.041 274.986 202.207 274.931C202.307 274.931 207.707 272.831 209.307 268.431C210.331 265.844 210.437 262.985 209.607 260.331C209.482 260.012 209.485 259.657 209.616 259.34C209.746 259.023 209.994 258.769 210.307 258.631C210.626 258.506 210.981 258.509 211.298 258.639C211.615 258.77 211.869 259.017 212.007 259.331C213.055 262.6 212.949 266.13 211.707 269.331C209.607 274.931 203.307 277.231 203.007 277.331C202.968 277.4 202.909 277.456 202.838 277.492C202.767 277.527 202.686 277.541 202.607 277.531Z" fill="#6A6A6A"/>
<path d="M179.409 267.232C179.245 267.24 179.08 267.216 178.926 267.159C178.771 267.103 178.629 267.017 178.508 266.905C178.387 266.793 178.289 266.659 178.221 266.509C178.152 266.359 178.115 266.197 178.109 266.032C178.106 265.693 178.226 265.364 178.446 265.107C178.667 264.849 178.974 264.681 179.309 264.632C179.409 264.632 186.409 264.132 189.909 259.532C192 256.84 193.159 253.541 193.209 250.132C193.183 249.788 193.294 249.446 193.519 249.184C193.745 248.921 194.065 248.759 194.409 248.732C194.754 248.706 195.095 248.817 195.358 249.042C195.621 249.267 195.783 249.588 195.809 249.932C195.861 253.99 194.52 257.943 192.009 261.132C187.709 266.632 179.809 267.132 179.409 267.232Z" fill="#6A6A6A"/>
<path d="M132 248.331C131.58 249.293 131.042 250.2 130.4 251.031C129.285 252.477 127.847 253.641 126.2 254.431C125.069 255.014 123.855 255.418 122.6 255.631C122.6 255.631 108.5 241.931 96.2 217.531C83.9 193.231 83 165.231 83 165.231C84.0363 164.668 85.1048 164.167 86.2 163.731C89.4369 162.447 92.9535 162.033 96.4 162.531C98.949 162.849 101.402 163.701 103.6 165.031C103.6 165.031 104.4 188.231 112.6 209.131C120.8 230.131 132.8 242.531 132.8 242.531C133.054 244.501 132.778 246.503 132 248.331Z" fill="#BABABA"/>
<path d="M132 248.331C127.6 244.431 119.2 235.531 111.1 218.331C101.4 197.731 97.5 171.231 96.5 162.531C99.049 162.849 101.502 163.701 103.7 165.031C103.7 165.031 104.5 188.231 112.7 209.131C120.9 230.131 132.9 242.531 132.9 242.531C133.087 244.509 132.778 246.503 132 248.331Z" fill="#F8FBFF"/>
<path d="M126.2 254.432C125.069 255.015 123.855 255.42 122.6 255.632C122.6 255.632 108.5 241.932 96.2 217.532C83.9 193.232 83 165.232 83 165.232C84.0363 164.67 85.1048 164.169 86.2 163.732C86.9 172.732 90.2 202.332 104.2 225.532C113.8 241.332 121.5 249.932 126.2 254.432Z" fill="#6A6A6A"/>
<path d="M154.102 268.83C150.65 270.701 146.651 271.303 142.802 270.53C136.702 269.13 134.402 267.13 134.402 267.13C134.402 267.13 132.402 264.13 133.902 262.43L134.102 262.23C135.39 261.164 136.947 260.472 138.602 260.23C140.505 261.719 142.588 262.963 144.802 263.93C147.402 264.83 152.002 263.93 153.702 265.03C154.038 265.276 154.294 265.617 154.437 266.009C154.579 266.4 154.602 266.826 154.502 267.23C154.496 267.788 154.359 268.336 154.102 268.83Z" fill="#BABABA"/>
<path d="M154.102 268.83C150.65 270.7 146.651 271.302 142.802 270.53C136.702 269.13 134.402 267.13 134.402 267.13C134.402 267.13 132.402 264.13 133.902 262.43C135.702 264.13 140.002 267.83 145.002 268.43C148.219 268.824 151.483 268.411 154.502 267.23C154.496 267.787 154.359 268.335 154.102 268.83Z" fill="#6A6A6A"/>
<path d="M152.202 266.032C148.176 266.696 144.045 265.954 140.502 263.932C138.932 263.151 137.589 261.981 136.602 260.532C136.608 259.879 136.744 259.233 137.002 258.632C137.259 258.032 137.633 257.488 138.102 257.032C138.902 256.332 140.202 256.032 142.202 256.632C142.202 256.632 146.102 260.032 152.602 257.732C159.102 255.432 158.702 254.032 160.102 253.632C161.102 253.332 162.402 254.832 162.702 256.532C162.889 257.3 162.819 258.108 162.502 258.832C161.373 260.676 159.875 262.268 158.103 263.507C156.33 264.746 154.321 265.605 152.202 266.032Z" fill="#BABABA"/>
<path d="M152.202 266.033C148.176 266.697 144.045 265.955 140.502 263.933C138.932 263.152 137.589 261.982 136.602 260.533C136.608 259.88 136.744 259.234 137.002 258.633C137.259 258.033 137.633 257.489 138.102 257.033C140.502 259.433 145.702 263.733 151.402 262.633C155.693 261.696 159.64 259.584 162.802 256.533C162.989 257.301 162.919 258.109 162.602 258.833C161.438 260.668 159.918 262.251 158.132 263.488C156.345 264.725 154.329 265.59 152.202 266.033Z" fill="#6A6A6A"/>
<path d="M151.097 259.433C147.277 260.083 143.35 259.375 139.997 257.433C138.496 256.721 137.217 255.615 136.297 254.233C136.312 252.962 136.813 251.745 137.697 250.833C138.497 250.133 139.697 249.833 141.597 250.433C141.597 250.433 145.297 253.633 151.497 251.433C157.697 249.233 157.297 247.933 158.597 247.533C159.497 247.233 160.797 248.733 161.097 250.333C161.28 251.068 161.21 251.843 160.897 252.533C159.839 254.306 158.419 255.836 156.731 257.025C155.043 258.214 153.123 259.034 151.097 259.433Z" fill="#BABABA"/>
<path d="M151.097 259.432C147.277 260.082 143.35 259.375 139.997 257.432C138.496 256.721 137.217 255.614 136.297 254.232C136.312 252.961 136.813 251.745 137.697 250.832C139.897 253.132 144.897 257.232 150.297 256.132C154.355 255.209 158.087 253.205 161.097 250.332C161.28 251.067 161.21 251.842 160.897 252.532C159.839 254.305 158.419 255.836 156.731 257.025C155.043 258.213 153.123 259.034 151.097 259.432Z" fill="#6A6A6A"/>
<path d="M150.401 254.431C147.081 255.552 143.474 255.482 140.201 254.231C138.786 253.805 137.509 253.011 136.501 251.931C136.422 251.364 136.46 250.787 136.615 250.236C136.77 249.686 137.038 249.173 137.401 248.731C138.001 248.031 139.101 247.631 140.901 247.831C140.901 247.831 144.601 250.131 149.901 247.431C155.201 244.631 154.701 243.531 155.801 242.931C156.601 242.531 157.901 243.631 158.401 245.031C158.636 245.672 158.671 246.369 158.501 247.031C156.871 250.46 153.964 253.116 150.401 254.431Z" fill="#BABABA"/>
<path d="M150.401 254.431C147.081 255.553 143.474 255.482 140.201 254.231C138.786 253.805 137.509 253.012 136.501 251.931C136.422 251.365 136.46 250.788 136.615 250.237C136.77 249.686 137.038 249.173 137.401 248.731C139.701 250.431 144.601 253.431 149.301 251.731C152.869 250.384 155.987 248.062 158.301 245.031C158.536 245.672 158.571 246.37 158.401 247.031C157.632 248.738 156.527 250.273 155.153 251.544C153.778 252.815 152.163 253.797 150.401 254.431Z" fill="#6A6A6A"/>
<path d="M146.9 249.631C146.64 250.982 146.306 252.317 145.9 253.631C145.074 256.579 143.792 259.38 142.1 261.931C141.377 262.866 140.574 263.736 139.7 264.531C138.25 265.956 136.46 266.989 134.5 267.531C134.5 267.531 126.8 260.131 124.6 257.631C123.169 256.046 121.833 254.376 120.6 252.631C120.248 250.714 120.248 248.749 120.6 246.831C120.858 245.132 121.585 243.539 122.7 242.231C123.284 241.671 123.92 241.169 124.6 240.731C126.84 239.741 129.364 239.599 131.7 240.331C131.7 240.331 139.1 244.931 142.4 246.731C143.999 247.536 145.507 248.508 146.9 249.631Z" fill="#BABABA"/>
<path d="M146.902 249.631C146.641 250.982 146.307 252.317 145.902 253.631C143.201 252.09 140.596 250.387 138.102 248.531C133.761 245.665 129.253 243.061 124.602 240.731C126.841 239.741 129.365 239.599 131.702 240.331C131.702 240.331 139.102 244.931 142.402 246.731C144 247.536 145.508 248.508 146.902 249.631Z" fill="#F8FBFF"/>
<path d="M139.7 264.43C138.215 265.809 136.438 266.835 134.5 267.43C134.5 267.43 126.8 259.93 124.6 257.53C123.169 255.945 121.833 254.275 120.6 252.53C120.248 250.613 120.248 248.648 120.6 246.73C123.7 250.23 132 259.23 137.8 263.03C138.5 263.63 139.2 264.03 139.7 264.43Z" fill="#6A6A6A"/>
<path d="M111.104 238.83C110.244 238.765 109.4 238.562 108.604 238.23C108.318 238.066 108.106 237.797 108.013 237.481C107.92 237.164 107.952 236.824 108.104 236.53C108.169 236.385 108.262 236.254 108.378 236.145C108.493 236.036 108.63 235.952 108.779 235.896C108.927 235.84 109.086 235.814 109.245 235.82C109.404 235.826 109.56 235.864 109.704 235.93C109.804 236.03 112.604 237.33 116.304 234.93C120.004 232.53 120.604 229.53 120.604 229.43C120.615 229.266 120.663 229.107 120.743 228.963C120.823 228.82 120.934 228.696 121.068 228.6C121.202 228.505 121.355 228.44 121.517 228.411C121.679 228.381 121.845 228.388 122.004 228.43C122.326 228.514 122.606 228.713 122.79 228.99C122.975 229.266 123.051 229.601 123.004 229.93C123.004 230.13 122.304 234.13 117.604 237.23C115.643 238.395 113.381 238.952 111.104 238.83Z" fill="#6A6A6A"/>
<path d="M100.399 218.731C99.1632 218.601 97.9514 218.298 96.7993 217.831C96.5132 217.666 96.3015 217.398 96.2083 217.081C96.1152 216.764 96.1478 216.424 96.2993 216.131C96.3564 215.991 96.441 215.865 96.548 215.759C96.655 215.652 96.7822 215.569 96.9222 215.513C97.0621 215.457 97.2119 215.43 97.3626 215.433C97.5133 215.436 97.6618 215.469 97.7993 215.531C97.8993 215.631 101.399 217.331 105.999 215.231C110.499 213.231 111.299 210.331 111.299 210.131C111.326 209.977 111.384 209.829 111.47 209.699C111.557 209.568 111.669 209.457 111.801 209.373C111.933 209.288 112.081 209.232 112.235 209.207C112.39 209.183 112.548 209.191 112.699 209.231C113.011 209.347 113.266 209.576 113.415 209.873C113.563 210.17 113.593 210.512 113.499 210.831C113.499 211.031 112.399 215.031 106.799 217.631C104.803 218.563 102.593 218.943 100.399 218.731Z" fill="#6A6A6A"/>
<path d="M92.8021 196.23C91.1848 196.198 89.6155 195.675 88.3021 194.73C88.0541 194.507 87.8968 194.2 87.8599 193.868C87.823 193.537 87.9092 193.203 88.1021 192.93C88.1875 192.789 88.3041 192.669 88.4429 192.58C88.5817 192.49 88.7392 192.434 88.9032 192.415C89.0672 192.395 89.2334 192.414 89.3892 192.468C89.545 192.523 89.6862 192.613 89.8021 192.73C89.9021 192.73 92.1021 194.43 97.0021 193.43C103.202 192.13 104.902 189.73 105.002 189.63C105.089 189.493 105.203 189.375 105.338 189.284C105.473 189.193 105.625 189.132 105.786 189.104C105.946 189.075 106.11 189.081 106.268 189.12C106.426 189.159 106.574 189.231 106.702 189.33C106.95 189.554 107.107 189.861 107.144 190.192C107.181 190.524 107.095 190.858 106.902 191.13C106.702 191.43 104.502 194.33 97.5021 195.93C95.9589 196.262 94.375 196.363 92.8021 196.23Z" fill="#6A6A6A"/>
<path d="M107.604 179.531C103.054 181.599 98.1001 182.624 93.1036 182.531C90.0113 182.562 86.9464 181.949 84.1036 180.731C83.0446 180.295 82.0648 179.687 81.2036 178.931C81.2036 178.931 81.3036 177.131 81.0036 171.231C80.0036 152.631 88.4036 150.231 93.9036 150.031C95.2269 150.027 96.5427 150.23 97.8036 150.631C99.8826 151.418 101.751 152.676 103.26 154.307C104.77 155.938 105.88 157.898 106.504 160.031C108.204 166.131 107.604 179.531 107.604 179.531Z" fill="#121212"/>
<path d="M95.3021 161.531C89.0021 164.931 86.4021 162.731 86.4021 162.731C86.4021 162.731 84.9021 167.831 84.2021 177.931C84.1021 178.931 84.1021 179.931 84.0021 180.731C82.943 180.295 81.9632 179.687 81.1021 178.931C81.1021 178.931 81.2021 177.131 80.9021 171.231C79.9021 152.631 88.3021 150.231 93.8021 150.031C95.1254 150.027 96.4412 150.23 97.7021 150.631C99.3021 153.331 101.102 158.431 95.3021 161.531Z" fill="#6A6A6A"/>
<path d="M223.006 192.732C222.706 194.332 222.406 195.832 222.006 197.332C219.606 206.632 215.406 214.132 209.506 219.032C192.606 233.132 169.406 240.632 139.606 221.332C115.806 205.932 93.9062 171.032 86.0062 157.532C84.0062 154.132 82.9062 152.032 82.9062 152.032C82.9062 152.032 96.6062 151.332 118.206 141.432C128.859 136.45 139.063 130.562 148.706 123.832C168.206 110.232 179.506 97.5316 186.006 87.6316C193.706 76.0316 194.806 68.4316 194.806 68.4316C194.806 68.4316 196.706 71.9316 200.006 79.6316C206.532 95.5307 212.141 111.791 216.806 128.332C224.106 153.532 226.106 175.832 223.006 192.732Z" fill="#BABABA"/>
<path d="M200.005 79.632C197.182 85.1721 193.94 90.4877 190.305 95.532C179.81 109.693 166.792 121.796 151.905 131.232C142.464 137.434 132.531 142.852 122.205 147.432C104.405 155.332 92.1047 157.132 85.9047 157.432C83.9047 154.032 82.8047 151.932 82.8047 151.932C82.8047 151.932 96.5047 151.232 118.105 141.332C128.757 136.351 138.961 130.462 148.605 123.732C168.105 110.132 179.405 97.432 185.905 87.532C193.605 75.932 194.705 68.332 194.705 68.332C196.668 72.0033 198.437 75.7751 200.005 79.632Z" fill="#121212"/>
<path d="M222.006 197.332C219.606 206.632 215.406 214.132 209.506 219.032C192.606 233.132 169.406 240.632 139.606 221.332C115.806 205.932 93.9062 171.032 86.0062 157.532C84.0062 154.132 82.9062 152.032 82.9062 152.032C82.9062 152.032 96.6062 151.332 118.206 141.432C126.706 154.632 145.506 181.932 164.006 198.032C185.506 216.832 210.006 205.732 222.006 197.332Z" fill="#6A6A6A"/>
<path d="M122.205 147.532C104.405 155.432 92.1047 157.232 85.9047 157.532C83.9047 154.132 82.8047 152.032 82.8047 152.032C82.8047 152.032 96.5047 151.332 118.105 141.432C119.305 143.232 120.705 145.332 122.205 147.532Z" fill="#4D4D4D"/>
<path d="M220.208 183.032C217.708 172.732 214.308 159.732 210.008 145.932C203.108 123.532 195.308 106.232 191.008 98.7316C197.008 89.6316 198.108 85.9316 198.108 85.9316C198.108 85.9316 199.608 88.7316 202.208 94.7316C207.293 107.173 211.667 119.894 215.308 132.832C221.108 152.432 222.708 169.832 220.208 183.032Z" fill="#E9E9E9"/>
<path d="M200.008 79.632C197.185 85.1721 193.943 90.4876 190.308 95.532C188.708 92.432 187.308 89.732 186.008 87.532C193.708 75.932 194.808 68.332 194.808 68.332C194.808 68.332 196.808 72.032 200.008 79.632Z" fill="#6A6A6A"/>
<path d="M168.703 191.431C168.703 191.431 159.703 198.231 141.403 205.831C136.303 207.931 131.303 209.731 126.803 211.231L125.603 210.031C112.803 197.731 101.303 181.831 93.5031 169.831C93.0031 169.131 92.6031 168.431 92.2031 167.831C102.646 165.022 112.845 161.377 122.703 156.931C139.603 149.431 143.903 146.031 143.903 146.031L168.703 191.431Z" fill="#E1ECFF"/>
<path d="M165.906 191.331C165.906 191.331 157.806 197.831 140.606 204.631C135.306 206.731 130.006 208.531 125.506 210.031C112.706 197.731 101.206 181.831 93.4062 169.831L95.0063 169.431C104.647 166.78 114.074 163.404 123.206 159.331C138.806 152.331 143.206 150.031 143.206 150.031L165.906 191.331Z" fill="#121212"/>
<path d="M121.304 195.232C120.978 195.24 120.66 195.134 120.404 194.932L109.404 185.132L108.704 187.232C108.648 187.399 108.559 187.552 108.443 187.683C108.326 187.814 108.184 187.92 108.025 187.995C107.866 188.07 107.694 188.112 107.518 188.118C107.343 188.124 107.168 188.095 107.004 188.032C106.838 187.976 106.684 187.887 106.553 187.771C106.422 187.654 106.316 187.512 106.241 187.353C106.166 187.194 106.124 187.022 106.118 186.846C106.112 186.671 106.141 186.496 106.204 186.332L107.604 182.332C107.684 182.128 107.805 181.943 107.96 181.788C108.115 181.633 108.3 181.512 108.504 181.432C108.73 181.385 108.963 181.388 109.187 181.439C109.411 181.491 109.622 181.591 109.804 181.732L119.504 190.332L119.004 186.432C118.946 186.141 118.994 185.839 119.142 185.582C119.289 185.325 119.524 185.129 119.804 185.032L152.904 170.732C153.068 170.659 153.245 170.618 153.425 170.614C153.604 170.609 153.783 170.64 153.951 170.705C154.118 170.771 154.271 170.868 154.4 170.993C154.53 171.118 154.633 171.267 154.704 171.432C154.778 171.596 154.818 171.773 154.822 171.953C154.827 172.132 154.796 172.311 154.731 172.478C154.666 172.646 154.568 172.799 154.443 172.928C154.318 173.058 154.169 173.161 154.004 173.232L121.804 187.132L122.704 193.632C122.748 193.909 122.705 194.193 122.579 194.445C122.454 194.696 122.252 194.901 122.004 195.032C121.782 195.132 121.546 195.199 121.304 195.232Z" fill="#4461F2"/>
<path d="M194.804 68.432C194.804 68.432 193.304 79.132 181.804 94.032C175.204 102.632 165.204 112.632 150.204 122.832C125.604 139.632 106.204 146.732 94.6042 149.832C90.7487 150.934 86.7979 151.671 82.8042 152.032C82.8042 152.032 57.7042 109.232 61.8042 70.432C62.9042 60.332 66.0042 51.932 70.7042 45.032C74.0438 40.0621 78.2428 35.7276 83.1042 32.232C97.0042 22.232 115.704 18.732 133.904 20.932C167.104 25.032 194.804 68.432 194.804 68.432Z" fill="#6981F5"/>
<path d="M194.805 68.4316C194.805 68.4316 194.105 73.2316 190.305 80.8316C187.92 85.5365 185.073 89.9919 181.805 94.1316C175.205 102.732 165.205 112.732 150.205 122.932C123.705 140.932 103.205 147.832 92.1047 150.532C89.0495 151.299 85.9406 151.834 82.8047 152.132C82.8047 151.832 82.9047 128.832 120.305 99.6316C157.905 70.1316 194.805 68.4316 194.805 68.4316Z" fill="#4461F2"/>
<path d="M190.302 80.832C187.917 85.5369 185.07 89.9923 181.802 94.132C175.202 102.732 165.202 112.732 150.202 122.932C123.702 140.932 103.202 147.832 92.1016 150.532C96.3016 140.932 105.502 126.732 126.202 110.532C144.929 95.7181 166.893 85.5414 190.302 80.832V80.832Z" fill="#3E58DC"/>
<path d="M194.808 68.432C194.808 68.432 193.308 79.132 181.808 94.032C178.221 87.7753 174.177 81.7924 169.708 76.132C169.708 76.132 155.008 89.432 143.008 79.932C131.008 70.332 140.008 52.732 140.008 52.732C131.22 44.1447 120.205 38.1869 108.208 35.532C99.9106 33.7541 91.4831 32.6505 83.0078 32.232C96.9078 22.232 115.608 18.732 133.808 20.932C167.108 25.032 194.808 68.432 194.808 68.432Z" fill="#C5CEFB"/>
<path d="M94.7058 149.831C90.8502 150.933 86.8995 151.67 82.9058 152.031C82.9058 152.031 57.8058 109.231 61.9058 70.4312C63.0058 60.3312 66.1058 51.9313 70.8058 45.0312C68.8302 67.5544 71.276 90.2465 78.0058 111.831C82.2342 125.045 87.8313 137.781 94.7058 149.831Z" fill="#A9B6F9"/>
<path d="M208.902 324.031C208.916 324.666 208.883 325.301 208.802 325.931C208.402 331.831 190.302 332.931 177.702 333.531C165.302 334.131 152.202 330.631 156.702 326.531L156.902 326.331C160.102 323.631 166.302 320.531 173.202 318.031C177.192 316.556 181.266 315.321 185.402 314.331C190.802 313.031 201.802 310.431 205.402 313.131C206.154 313.727 206.768 314.477 207.202 315.331C208.429 318.062 209.011 321.039 208.902 324.031Z" fill="#3045AC"/>
<path d="M208.902 324.031C208.916 324.666 208.883 325.301 208.802 325.931C208.402 331.831 190.302 332.931 177.702 333.531C165.302 334.131 152.202 330.631 156.702 326.531C159.402 328.131 165.302 330.031 177.602 329.531C194.402 328.831 204.602 326.031 208.902 324.031Z" fill="#4461F2"/>
<path d="M207.103 315.331C206.018 316.291 204.807 317.098 203.503 317.731C198.703 320.131 184.103 322.731 175.203 321.231C171.303 320.531 171.603 319.331 173.103 318.031C177.093 316.556 181.167 315.321 185.303 314.331C190.703 313.031 201.703 310.431 205.303 313.131C206.055 313.727 206.669 314.477 207.103 315.331Z" fill="#4461F2"/>
<path d="M184.601 267.332C188.601 292.932 203.201 312.532 203.201 312.532C202.037 314.037 200.615 315.323 199.001 316.332C197.656 317.174 196.212 317.846 194.701 318.332C192.162 319.02 189.516 319.223 186.901 318.932C185.213 318.764 183.542 318.463 181.901 318.032C181.901 318.032 157.001 285.932 153.901 249.332C150.801 212.732 170.501 194.332 170.501 194.332C170.648 194.252 170.783 194.151 170.901 194.032C174.115 192.051 177.812 190.994 181.587 190.977C185.362 190.959 189.069 191.982 192.301 193.932C193.028 194.32 193.73 194.754 194.401 195.232C202.501 200.532 203.701 205.932 203.701 205.932C199.918 209.428 196.682 213.473 194.101 217.932C190.001 224.932 180.601 241.732 184.601 267.332Z" fill="#BABABA"/>
<path d="M184.596 267.332C188.596 292.932 203.196 312.532 203.196 312.532C202.032 314.037 200.61 315.324 198.996 316.332C191.696 306.232 174.196 275.632 174.796 246.532C175.296 219.932 189.096 201.432 194.496 195.232C202.596 200.532 203.796 205.932 203.796 205.932C200.013 209.429 196.777 213.474 194.196 217.932C189.996 224.932 180.596 241.732 184.596 267.332Z" fill="#6A6A6A"/>
<path d="M186.8 318.832C185.112 318.664 183.44 318.363 181.8 317.932C181.8 317.932 156.9 285.832 153.8 249.232C150.7 212.632 170.4 194.232 170.4 194.232C170.547 194.152 170.682 194.051 170.8 193.932C167 201.732 158.5 221.932 159.3 244.732C160.3 274.032 173 296.632 181.9 311.032C183.6 313.932 185.3 316.532 186.8 318.832Z" fill="#F8FBFF"/>
<path d="M167.793 292.831C167.622 292.84 167.451 292.809 167.295 292.739C167.139 292.669 167.001 292.564 166.893 292.431C166.64 292.185 166.489 291.853 166.471 291.501C166.452 291.148 166.567 290.802 166.793 290.531C169.301 288.23 172.316 286.552 175.593 285.631C181.493 283.831 187.993 285.831 188.293 285.931C188.633 286.044 188.917 286.284 189.084 286.6C189.252 286.917 189.291 287.286 189.193 287.631C189.08 287.971 188.84 288.255 188.524 288.422C188.207 288.59 187.838 288.629 187.493 288.531C187.393 288.531 181.493 286.731 176.393 288.231C171.293 289.831 168.793 292.331 168.793 292.431C168.671 292.574 168.517 292.685 168.342 292.754C168.168 292.824 167.98 292.85 167.793 292.831Z" fill="#6A6A6A"/>
<path d="M157.494 260.831C157.248 260.839 157.005 260.778 156.793 260.654C156.581 260.53 156.408 260.349 156.294 260.131C156.195 259.975 156.13 259.801 156.102 259.619C156.074 259.437 156.083 259.251 156.13 259.072C156.177 258.894 156.26 258.727 156.374 258.583C156.489 258.438 156.631 258.318 156.794 258.231C160.743 256.072 165.106 254.777 169.594 254.431C174.109 254.314 178.548 255.607 182.294 258.131C182.444 258.232 182.571 258.363 182.668 258.515C182.765 258.667 182.83 258.838 182.858 259.016C182.886 259.194 182.877 259.376 182.832 259.551C182.786 259.726 182.705 259.889 182.594 260.031C182.493 260.181 182.362 260.308 182.21 260.405C182.058 260.502 181.887 260.567 181.709 260.595C181.531 260.623 181.349 260.614 181.174 260.569C180.999 260.524 180.836 260.443 180.694 260.331C180.594 260.331 175.594 256.831 169.694 257.131C165.618 257.438 161.659 258.633 158.094 260.631C157.994 260.831 157.694 260.831 157.494 260.831Z" fill="#6A6A6A"/>
<path d="M184.897 234.428C184.726 234.437 184.555 234.405 184.399 234.336C184.242 234.266 184.105 234.161 183.997 234.028C183.897 233.928 176.497 227.228 169.097 226.328C161.897 225.428 157.497 228.528 157.497 228.628C157.202 228.83 156.84 228.911 156.487 228.856C156.134 228.8 155.815 228.611 155.597 228.328C155.394 228.033 155.313 227.671 155.369 227.318C155.424 226.965 155.613 226.646 155.897 226.428C156.097 226.228 161.197 222.528 169.497 223.628C177.697 224.728 185.497 231.728 185.897 232.028C186.034 232.142 186.145 232.284 186.225 232.444C186.305 232.603 186.351 232.778 186.36 232.956C186.369 233.134 186.342 233.312 186.28 233.48C186.217 233.647 186.121 233.799 185.997 233.928C185.687 234.198 185.304 234.372 184.897 234.428Z" fill="#6A6A6A"/>
<path d="M272.2 206.033C270.764 210.264 267.992 213.915 264.3 216.433C258.3 220.333 254.9 220.733 254.9 220.733C254.9 220.733 251 220.133 251 217.633V217.333C251.245 215.479 251.969 213.721 253.1 212.233C255.81 211.761 258.46 210.99 261 209.933C263.8 208.533 266.8 204.033 269 203.533C269.454 203.45 269.922 203.501 270.348 203.678C270.774 203.856 271.139 204.152 271.4 204.533C271.768 204.971 272.041 205.482 272.2 206.033Z" fill="#BABABA"/>
<path d="M272.2 206.034C270.764 210.265 267.992 213.916 264.3 216.434C258.3 220.334 254.9 220.734 254.9 220.734C254.9 220.734 251 220.134 251 217.634C253.7 217.434 260.1 216.634 264.6 213.034C267.511 210.741 269.841 207.795 271.4 204.434C271.761 204.915 272.032 205.457 272.2 206.034Z" fill="#6A6A6A"/>
<path d="M268.502 205.532C265.754 209.319 261.863 212.123 257.402 213.532C255.593 214.248 253.63 214.489 251.702 214.232C251.195 213.742 250.799 213.15 250.54 212.494C250.281 211.839 250.166 211.135 250.202 210.432C250.302 209.232 251.102 207.932 253.202 206.732C253.202 206.732 258.902 206.032 262.502 199.032C266.102 192.032 264.602 191.332 265.502 189.932C266.102 188.932 268.302 189.032 269.802 189.932C270.533 190.342 271.073 191.025 271.302 191.832C272.202 194.332 272.102 200.632 268.502 205.532Z" fill="#BABABA"/>
<path d="M268.502 205.532C265.754 209.318 261.863 212.123 257.402 213.532C255.593 214.248 253.63 214.489 251.702 214.232C251.195 213.742 250.799 213.15 250.54 212.494C250.281 211.839 250.166 211.135 250.202 210.432C253.902 210.232 261.502 209.232 265.202 203.732C267.966 199.638 269.557 194.865 269.802 189.932C270.533 190.342 271.073 191.025 271.302 191.832C272.202 194.332 272.102 200.632 268.502 205.532Z" fill="#6A6A6A"/>
<path d="M261.799 202.432C259.183 206.048 255.463 208.715 251.199 210.032C249.48 210.692 247.621 210.898 245.799 210.632C245.32 210.169 244.946 209.608 244.704 208.986C244.463 208.365 244.358 207.698 244.399 207.032C244.499 205.932 245.299 204.632 247.299 203.532C247.299 203.532 252.699 202.932 256.099 196.232C259.499 189.632 258.099 188.932 258.899 187.532C259.499 186.632 261.499 186.632 262.999 187.532C263.699 187.933 264.232 188.572 264.499 189.332C265.299 191.832 265.199 197.832 261.799 202.432Z" fill="#BABABA"/>
<path d="M261.799 202.433C259.183 206.048 255.463 208.715 251.199 210.033C249.48 210.692 247.621 210.899 245.799 210.633C245.32 210.17 244.946 209.608 244.704 208.986C244.463 208.365 244.358 207.698 244.399 207.033C247.899 206.833 255.099 205.933 258.699 200.733C261.285 196.825 262.802 192.309 263.099 187.633C263.799 188.033 264.332 188.672 264.599 189.433C265.039 191.676 265.017 193.986 264.536 196.221C264.055 198.456 263.123 200.569 261.799 202.433Z" fill="#6A6A6A"/>
<path d="M259.102 211.332C259.184 213.775 258.705 216.203 257.702 218.432C257.12 219.71 256.345 220.891 255.402 221.932C255.402 221.932 230.102 230.832 203.502 208.632C189.802 197.232 178.802 182.332 171.402 170.632C167.411 164.373 163.772 157.896 160.502 151.232C160.502 151.232 158.402 144.732 162.302 139.132C163.765 137.012 165.767 135.321 168.102 134.232C172.802 131.832 176.702 131.632 179.802 132.432C182.982 133.27 185.817 135.089 187.902 137.632C187.902 137.632 191.802 146.232 197.602 156.832C204.402 169.132 213.802 184.132 222.802 191.132C239.502 204.132 253.402 199.132 253.402 199.132C254.518 200.302 255.523 201.575 256.402 202.932C257.502 205.032 259.002 208.032 259.102 211.332Z" fill="#BABABA"/>
<path d="M197.299 156.631C194.052 161.732 189.196 165.603 183.499 167.631C179.552 169.159 175.413 170.135 171.199 170.531C167.209 164.272 163.57 157.796 160.299 151.131C160.299 151.131 156.699 139.831 167.799 134.031C180.299 127.531 187.599 137.431 187.599 137.431C187.599 137.431 191.499 146.131 197.299 156.631Z" fill="#6A6A6A"/>
<path d="M257.601 218.331C257.019 219.61 256.243 220.79 255.301 221.831C255.301 221.831 230.001 230.731 203.401 208.531C189.701 197.131 178.701 182.231 171.301 170.531C167.31 164.272 163.671 157.795 160.401 151.131C160.401 151.131 158.301 144.631 162.201 139.031C165.501 146.531 179.601 177.131 197.501 194.731C218.001 214.831 229.101 217.331 248.801 218.131C252.001 218.231 255.001 218.331 257.601 218.331Z" fill="#6A6A6A"/>
<path d="M256.102 202.832C251.002 204.332 243.902 205.432 236.502 203.132C222.702 198.832 211.402 190.132 200.302 173.432C191.202 159.632 182.402 139.232 179.602 132.332C182.782 133.17 185.616 134.989 187.702 137.532C187.702 137.532 191.602 146.132 197.402 156.732C204.202 169.032 213.602 184.032 222.602 191.032C239.302 204.032 253.202 199.032 253.202 199.032C254.296 200.196 255.268 201.469 256.102 202.832Z" fill="#F8FBFF"/>
<path d="M186.8 187.132C185.378 187.137 183.963 186.935 182.6 186.532C182.26 186.396 181.988 186.131 181.842 185.796C181.696 185.461 181.688 185.081 181.819 184.74C181.951 184.398 182.211 184.122 182.544 183.971C182.877 183.82 183.256 183.806 183.6 183.932C183.8 184.032 188.5 185.632 194.8 182.232C198.557 180.13 201.353 176.653 202.6 172.532C202.639 172.361 202.712 172.2 202.814 172.058C202.915 171.915 203.044 171.794 203.193 171.701C203.341 171.608 203.507 171.545 203.679 171.516C203.852 171.487 204.029 171.493 204.2 171.532C204.371 171.572 204.532 171.644 204.674 171.746C204.817 171.848 204.938 171.977 205.031 172.125C205.124 172.274 205.187 172.439 205.216 172.612C205.245 172.785 205.239 172.961 205.2 173.132C204.513 175.567 203.345 177.839 201.765 179.814C200.185 181.79 198.224 183.428 196 184.632C193.204 186.256 190.032 187.118 186.8 187.132Z" fill="#6A6A6A"/>
<path d="M205.9 209.532C205.529 209.532 205.173 209.385 204.91 209.122C204.647 208.86 204.5 208.504 204.5 208.132C204.5 207.761 204.647 207.405 204.91 207.142C205.173 206.88 205.529 206.732 205.9 206.732C206 206.732 212.2 206.632 215.7 202.332C219.3 197.932 218.6 191.732 218.6 191.632C218.58 191.455 218.595 191.276 218.645 191.104C218.695 190.933 218.777 190.773 218.889 190.633C219 190.494 219.138 190.378 219.295 190.292C219.451 190.206 219.623 190.152 219.8 190.132C220.155 190.108 220.506 190.217 220.784 190.44C221.062 190.662 221.246 190.981 221.3 191.332C221.3 191.632 222.1 198.732 217.8 204.032C213.5 209.532 206.2 209.532 205.9 209.532Z" fill="#6A6A6A"/>
<path d="M227.899 221.232C227.616 221.233 227.339 221.148 227.107 220.987C226.874 220.826 226.697 220.597 226.599 220.332C226.468 219.987 226.479 219.604 226.628 219.267C226.778 218.93 227.055 218.666 227.399 218.532C229.152 217.761 230.709 216.606 231.955 215.152C233.202 213.698 234.105 211.982 234.599 210.132C236.099 203.932 233.999 200.332 233.899 200.232C233.713 199.923 233.65 199.555 233.725 199.203C233.799 198.85 234.004 198.539 234.299 198.332C234.607 198.145 234.975 198.083 235.327 198.158C235.68 198.232 235.991 198.437 236.199 198.732C236.299 198.932 239.099 203.432 237.199 210.732C236.588 213.009 235.47 215.118 233.929 216.902C232.388 218.685 230.463 220.097 228.299 221.032C228.199 221.232 228.099 221.232 227.899 221.232Z" fill="#6A6A6A"/>
<path d="M198.097 144.632C197.891 145.658 197.589 146.662 197.197 147.632C195.797 151.032 192.497 156.632 184.997 161.532C173.397 169.032 163.097 165.832 163.097 165.832C158.289 158.974 155.234 151.043 154.197 142.732C153.297 135.032 158.397 129.032 164.997 126.132C169.897 124.032 175.597 123.632 180.197 125.632C191.097 130.532 198.097 144.632 198.097 144.632Z" fill="#121212"/>
<path d="M198.103 144.632C197.897 145.658 197.596 146.662 197.203 147.632C197.203 147.532 197.103 147.532 197.103 147.432C187.803 135.132 180.503 132.632 180.503 132.632C180.503 132.632 177.803 139.032 168.903 135.332C162.703 132.832 163.803 128.432 165.103 126.132C170.003 124.032 175.703 123.632 180.303 125.632C191.103 130.532 198.103 144.632 198.103 144.632Z" fill="#6A6A6A"/>
<path d="M76.6063 91.7323C75.7081 91.58 74.7856 91.774 74.0247 92.275C73.2639 92.7761 72.7213 93.547 72.5063 94.4323C71.2849 99.4807 70.3171 104.587 69.6063 109.732C69.1063 113.932 68.9063 117.432 68.8063 119.832C68.7805 120.68 69.0587 121.508 69.5906 122.169C70.1224 122.829 70.8729 123.277 71.7063 123.432C72.1747 123.507 72.6532 123.484 73.1126 123.367C73.5719 123.249 74.0023 123.038 74.3771 122.748C74.7519 122.457 75.0632 122.093 75.2918 121.678C75.5205 121.262 75.6615 120.804 75.7063 120.332C76.0125 115.897 76.6138 111.487 77.5063 107.132C78.5063 102.032 79.2063 98.4323 79.7063 96.0323C79.8341 95.0556 79.5845 94.067 79.0084 93.268C78.4324 92.469 77.5733 91.9197 76.6063 91.7323Z" fill="#121212"/>
<path d="M59.3047 102.432C59.4084 101.962 59.6169 101.522 59.9146 101.143C60.2123 100.765 60.5915 100.459 61.0241 100.247C61.4566 100.036 61.9313 99.9245 62.4127 99.9219C62.8942 99.9194 63.37 100.026 63.8047 100.232C66.8047 101.532 71.2047 103.432 75.4047 104.932C79.7047 106.432 83.7047 107.932 86.2047 108.932C87.0242 109.239 87.7018 109.837 88.1077 110.612C88.5137 111.387 88.6194 112.284 88.4047 113.132C88.2874 113.59 88.0791 114.019 87.7923 114.394C87.5055 114.77 87.146 115.083 86.7354 115.316C86.3248 115.55 85.8714 115.698 85.4022 115.752C84.933 115.807 84.4578 115.766 84.0047 115.632C79.2425 114.286 74.5671 112.65 70.0047 110.732C66.7689 109.38 63.6284 107.809 60.6047 106.032C60.0619 105.623 59.6499 105.065 59.419 104.426C59.1881 103.787 59.1484 103.094 59.3047 102.432Z" fill="#121212"/>
<path d="M119.597 67.3318C118.423 67.1589 117.227 67.4329 116.246 68.0996C115.264 68.7662 114.569 69.7769 114.297 70.9318C113.197 75.9318 111.597 84.3318 110.897 90.9318C110.397 96.4318 110.097 100.932 110.097 104.032C110.055 105.121 110.421 106.186 111.124 107.019C111.827 107.852 112.816 108.391 113.897 108.532C114.505 108.625 115.127 108.591 115.721 108.431C116.315 108.272 116.87 107.99 117.35 107.604C117.829 107.219 118.223 106.738 118.507 106.191C118.791 105.645 118.958 105.046 118.997 104.432C119.197 100.432 119.797 94.3318 120.897 87.3318C121.997 80.6318 122.897 75.9318 123.397 72.8318C123.532 72.2192 123.54 71.5854 123.419 70.9698C123.298 70.3542 123.052 69.7701 122.695 69.254C122.339 68.7379 121.88 68.3008 121.346 67.9701C120.813 67.6394 120.218 67.4221 119.597 67.3318Z" fill="#121212"/>
<path d="M97.4016 81.7318C97.5417 81.1268 97.8115 80.5593 98.1925 80.0688C98.5735 79.5784 99.0566 79.1765 99.6082 78.8912C100.16 78.6059 100.767 78.4438 101.387 78.4163C102.008 78.3888 102.627 78.4965 103.202 78.7318C107.102 80.3318 112.802 82.6318 118.302 84.5318C123.902 86.4318 129.102 88.2318 132.402 89.4318C133.473 89.8065 134.364 90.5687 134.901 91.5682C135.438 92.5678 135.581 93.7322 135.302 94.8318C135.157 95.4328 134.893 95.9988 134.527 96.4965C134.16 96.9943 133.698 97.4138 133.167 97.7305C132.636 98.0472 132.047 98.2547 131.435 98.3408C130.823 98.4268 130.199 98.3898 129.602 98.2318C123.414 96.621 117.335 94.6169 111.402 92.2318C107.179 90.6046 103.099 88.6313 99.2016 86.3318C98.4995 85.8118 97.9582 85.1044 97.6398 84.2908C97.3214 83.4772 97.2389 82.5903 97.4016 81.7318Z" fill="#121212"/>
<path d="M458.102 258.432C461.488 259.571 464.52 261.569 466.902 264.232C470.602 268.632 471.102 275.732 471.102 275.732L491.302 266.332C491.302 266.332 481.102 270.232 477.702 263.432C474.302 256.632 485.602 245.832 485.602 245.832C485.602 245.832 473.102 256.032 468.202 254.532C463.302 253.032 462.502 246.932 462.502 246.932L458.102 258.432Z" fill="#4461F2"/>
<path d="M439 256.132L442.6 256.232L448.2 215.232L435.5 212.832L439 256.132Z" fill="#C5CEFB"/>
<path d="M447.797 256.332L456.197 217.932L468.297 223.832L449.997 257.332L447.797 256.332Z" fill="#C5CEFB"/>
<path d="M47.6016 62.532L45.5016 67.132L1.60156 53.632L7.50156 36.332L47.6016 62.532Z" fill="#4461F2"/>
<path d="M54.2031 47.332L50.3031 52.932L0.703125 15.132L14.4031 0.832031L54.2031 47.332Z" fill="#4461F2"/>
</g>
<defs>
<clipPath id="clip0_390_28425">
<rect width="490.6" height="337.5" fill="white" transform="translate(0.703125 0.832031)"/>
</clipPath>
</defs>
</svg>
