<svg width="59" height="59" viewBox="0 0 59 59" fill="none" xmlns="http://www.w3.org/2000/svg">
<g id="business.fabc3a7.svg">
<g id="Group">
<g id="stroke">
<path id="Vector" d="M40.8643 40.2239C40.8028 40.4336 40.6997 40.6288 40.5609 40.7977C40.4222 40.9666 40.2508 41.1058 40.0571 41.2069C39.8633 41.308 39.6511 41.3689 39.4332 41.3861C39.2153 41.4032 38.9962 41.3762 38.789 41.3067H38.6988C38.2931 41.1332 37.9699 40.81 37.7964 40.4043H37.7062L34.2773 34.8099C34.1284 34.5766 33.8958 34.4093 33.6273 34.3421C33.3588 34.275 33.0748 34.3132 32.8336 34.449C32.6085 34.6259 32.4502 34.8741 32.3847 35.1528C32.3191 35.4315 32.3501 35.7242 32.4727 35.9829L35.9015 41.4871L36.4429 42.2992L36.2625 42.6602C36.0909 42.9386 35.8393 43.1587 35.5406 43.2918C35.3566 43.4167 35.1429 43.4908 34.9211 43.5067C34.6993 43.5225 34.4772 43.4795 34.2773 43.382C33.8829 43.2381 33.5595 42.9471 33.375 42.5699H33.2848L29.8559 36.8853C29.8071 36.7288 29.7234 36.5855 29.6111 36.4661C29.4988 36.3466 29.3609 36.2543 29.2077 36.1959C29.0546 36.1376 28.8902 36.1148 28.7269 36.1292C28.5636 36.1437 28.4058 36.195 28.2652 36.2793C28.1247 36.3637 28.0051 36.4788 27.9155 36.6161C27.8259 36.7533 27.7687 36.9091 27.7481 37.0717C27.7275 37.2343 27.7441 37.3995 27.7966 37.5548C27.8491 37.71 27.9362 37.8513 28.0513 37.9681L31.3899 43.6527L31.6606 44.1039V44.4648C31.4642 44.7211 31.2188 44.9358 30.9387 45.0964C30.5312 45.2827 30.0669 45.3021 29.6453 45.1503C29.2236 44.9985 28.8782 44.6877 28.6829 44.2844L25.4345 38.8704C25.2807 38.6634 25.058 38.5181 24.8066 38.4606C24.5552 38.4032 24.2915 38.4374 24.063 38.557C23.8345 38.6767 23.6563 38.874 23.5603 39.1134C23.4644 39.3528 23.4571 39.6186 23.5396 39.8629L26.6978 45.0964L26.5173 45.4574C26.4068 45.6554 26.256 45.8281 26.0746 45.9644C25.8932 46.1006 25.6854 46.1973 25.4644 46.2483C25.2433 46.2993 25.0141 46.3035 24.7914 46.2605C24.5687 46.2175 24.3574 46.1284 24.1713 45.9988C23.8929 45.8272 23.6727 45.5756 23.5396 45.2769H23.4494L17.855 35.8025C17.7486 35.6359 17.6018 35.4989 17.4282 35.4043C17.2547 35.3096 17.0601 35.2604 16.8624 35.2611H12.5312V20.9141H23.4494L19.1182 25.155C18.9322 25.3254 18.782 25.5311 18.6765 25.7603C18.571 25.9895 18.5123 26.2374 18.5039 26.4895C18.4955 26.7417 18.5376 26.9929 18.6275 27.2286C18.7175 27.4643 18.8537 27.6796 19.028 27.862L19.3889 28.1327L20.0206 28.4936C20.9232 29.1144 21.993 29.4468 23.0885 29.4468C24.184 29.4468 25.2538 29.1144 26.1564 28.4936L32.202 24.6136L40.7741 38.9606C40.8782 39.1526 40.9401 39.3646 40.9557 39.5825C40.9712 39.8004 40.9401 40.019 40.8643 40.2239Z" fill="white"/>
<path id="Vector_2" d="M41.0496 35.5313L33.3798 22.8085C33.32 22.6779 33.2325 22.5619 33.1235 22.4684C33.0144 22.375 32.8864 22.3063 32.7482 22.2671C32.5938 22.2291 32.4329 22.2255 32.2769 22.2567C32.121 22.2879 31.9738 22.3531 31.8459 22.4476L24.8077 26.9592C24.221 27.3088 23.5507 27.4934 22.8677 27.4934C22.1847 27.4934 21.5144 27.3088 20.9277 26.9592L20.4766 26.6885L28.2366 19.1992C28.7881 18.6449 29.5304 18.3222 30.3119 18.2969H38.072C38.478 18.3009 38.8783 18.3933 39.245 18.5676L46.0124 21.3648V35.5313H41.0496Z" fill="white"/>
<g id="Vector_3" style="mix-blend-mode:darken">
<path d="M3.0625 16.582H12.0858V38.2379H3.0625V16.582ZM46.3742 16.582H55.3975V38.2379H46.3742V16.582Z" fill="#121212"/>
</g>
<path id="Vector_4" d="M40.7741 38.9606L32.202 24.6136L26.1564 28.4936C25.2537 29.1144 24.184 29.4468 23.0885 29.4468C21.993 29.4468 20.9232 29.1144 20.0206 28.4936L19.3889 28.1327L19.028 27.862C18.8537 27.6796 18.7175 27.4643 18.6275 27.2286C18.5376 26.9929 18.4955 26.7417 18.5039 26.4895C18.5123 26.2374 18.571 25.9895 18.6765 25.7603C18.782 25.5311 18.9322 25.3254 19.1182 25.155L23.4494 20.9141H12.5312V22.7187H20.7424L23.8103 22.8992C23.0885 23.621 22.2764 22.448 19.2987 26.5085C20.196 27.1083 21.1302 27.6507 22.0959 28.1327V28.3132C23.9908 29.4862 25.1638 28.1327 25.7052 28.3132L30.2169 24.7038L39.0597 40.7653C39.1499 40.8555 39.1499 40.8555 39.1499 40.9457L39.6913 41.3067H39.7815C40.6839 41.5774 40.6839 41.1262 40.9546 40.2239C41.0169 40.0127 41.0331 39.7906 41.0019 39.5726C40.9708 39.3546 40.8931 39.1459 40.7741 38.9606Z" fill="#DEE0E2"/>
<path id="Vector_5" d="M55.2131 16.041H46.641C46.3538 16.041 46.0784 16.1551 45.8754 16.3582C45.6723 16.5612 45.5582 16.8366 45.5582 17.1238V19.2894L39.7833 16.9433C39.186 16.685 38.5389 16.5618 37.8884 16.5824H30.4893C29.8423 16.5629 29.1978 16.6726 28.5936 16.905C27.9894 17.1374 27.4375 17.4878 26.9703 17.9359L25.707 19.1992H12.894V17.1238C12.894 16.8366 12.7799 16.5612 12.5768 16.3582C12.3737 16.1551 12.0983 16.041 11.8112 16.041H3.23904C3.09685 16.041 2.95605 16.069 2.82468 16.1234C2.69331 16.1779 2.57394 16.2576 2.47339 16.3582C2.37285 16.4587 2.29309 16.5781 2.23867 16.7094C2.18426 16.8408 2.15625 16.9816 2.15625 17.1238V38.148C2.15625 38.4352 2.27033 38.7106 2.47339 38.9137C2.67646 39.1168 2.95187 39.2308 3.23904 39.2308H11.8112C12.0983 39.2308 12.3737 39.1168 12.5768 38.9137C12.7799 38.7106 12.894 38.4352 12.894 38.148V37.336H16.5935L21.6465 45.8178C21.9928 46.4013 22.4799 46.8887 23.0631 47.2355C23.6463 47.5823 24.3071 47.7774 24.9851 47.8029C25.5658 47.7925 26.1364 47.6488 26.6527 47.3828C27.169 47.1168 27.6172 46.7358 27.9628 46.269L28.7749 46.6299L30.0382 46.8104C30.6737 46.7986 31.296 46.6271 31.8479 46.3117C32.3998 45.9964 32.8635 45.5473 33.1963 45.0057H33.3768L34.5498 45.1862C35.2023 45.1987 35.8465 45.0383 36.417 44.7213C36.9875 44.4044 37.464 43.9421 37.7982 43.3815H37.8884V43.1109L38.881 43.2913C39.3745 43.2915 39.8631 43.1929 40.3179 43.0013C40.7727 42.8098 41.1847 42.5292 41.5294 42.176C41.8741 41.8229 42.1447 41.4043 42.3252 40.945C42.5058 40.4857 42.5926 39.9949 42.5805 39.5015C42.5918 38.9391 42.468 38.3821 42.2196 37.8773L41.9489 37.4262H45.468V38.2383C45.468 38.5255 45.5821 38.8009 45.7851 39.0039C45.9882 39.207 46.2636 39.3211 46.5508 39.3211H55.1229C55.2804 39.3349 55.439 39.314 55.5876 39.2599C55.7362 39.2058 55.8711 39.1198 55.9829 39.008C56.0947 38.8962 56.1807 38.7613 56.2347 38.6127C56.2888 38.4642 56.3097 38.3056 56.2959 38.148V17.1238C56.2959 16.9816 56.2679 16.8408 56.2135 16.7094C56.1591 16.5781 56.0793 16.4587 55.9788 16.3582C55.8782 16.2576 55.7589 16.1779 55.6275 16.1234C55.4961 16.069 55.3553 16.041 55.2131 16.041ZM10.9088 37.336H3.96091V17.8457H10.9088V37.336ZM40.8661 40.2234C40.8046 40.4331 40.7014 40.6283 40.5627 40.7972C40.424 40.9661 40.2526 41.1053 40.0588 41.2064C39.8651 41.3075 39.6529 41.3684 39.435 41.3856C39.2171 41.4027 38.998 41.3757 38.7908 41.3062H38.7005C38.2948 41.1327 37.9717 40.8095 37.7982 40.4039H37.708L34.2791 34.8094C34.1302 34.5762 33.8976 34.4088 33.6291 34.3416C33.3606 34.2745 33.0766 34.3128 32.8354 34.4485C32.6103 34.6254 32.452 34.8736 32.3864 35.1523C32.3208 35.431 32.3519 35.7237 32.4745 35.9825L35.9033 41.4867L36.4447 42.2988L36.2642 42.6597C36.0927 42.9381 35.8411 43.1582 35.5424 43.2913C35.3584 43.4162 35.1447 43.4903 34.9229 43.5062C34.7011 43.522 34.479 43.479 34.2791 43.3815C33.8847 43.2377 33.5613 42.9466 33.3768 42.5695H33.2866L29.8577 36.8848C29.8089 36.7283 29.7252 36.585 29.6129 36.4656C29.5006 36.3462 29.3627 36.2538 29.2095 36.1955C29.0563 36.1371 28.8919 36.1143 28.7287 36.1288C28.5654 36.1432 28.4075 36.1945 28.267 36.2788C28.1264 36.3632 28.0069 36.4783 27.9173 36.6156C27.8277 36.7528 27.7705 36.9086 27.7499 37.0713C27.7293 37.2339 27.7459 37.399 27.7984 37.5543C27.8509 37.7096 27.938 37.8509 28.0531 37.9676L31.3917 43.6522L31.6624 44.1034V44.4643C31.466 44.7206 31.2206 44.9353 30.9405 45.096C30.533 45.2823 30.0687 45.3016 29.647 45.1498C29.2254 44.998 28.88 44.6872 28.6847 44.2839L25.4363 38.8699C25.2825 38.6629 25.0598 38.5176 24.8084 38.4601C24.5569 38.4027 24.2932 38.4369 24.0648 38.5566C23.8363 38.6762 23.658 38.8735 23.5621 39.1129C23.4662 39.3523 23.4588 39.6181 23.5414 39.8625L26.6996 45.096L26.5191 45.4569C26.4085 45.655 26.2577 45.8277 26.0764 45.9639C25.895 46.1001 25.6871 46.1968 25.4661 46.2478C25.2451 46.2988 25.0159 46.303 24.7932 46.26C24.5705 46.217 24.3592 46.1279 24.173 45.9983C23.8946 45.8267 23.6745 45.5752 23.5414 45.2764H23.4512L17.8568 35.802C17.7503 35.6354 17.6035 35.4985 17.43 35.4038C17.2565 35.3092 17.0619 35.2599 16.8642 35.2606H12.533V20.9136H23.4512L19.12 25.1545C18.9339 25.3249 18.7838 25.5307 18.6783 25.7598C18.5728 25.989 18.5141 26.2369 18.5057 26.489C18.4973 26.7412 18.5393 26.9925 18.6293 27.2281C18.7193 27.4638 18.8555 27.6791 19.0298 27.8615L19.3907 28.1322L20.0223 28.4931C20.925 29.1139 21.9947 29.4463 23.0903 29.4463C24.1858 29.4463 25.2555 29.1139 26.1582 28.4931L32.2038 24.6131L40.7759 38.9601C40.88 39.1521 40.9419 39.3642 40.9575 39.582C40.973 39.7999 40.9419 40.0185 40.8661 40.2234ZM41.0466 35.5313L33.3768 22.8085C33.3169 22.6779 33.2295 22.5619 33.1204 22.4684C33.0114 22.3749 32.8833 22.3062 32.7452 22.2671C32.5907 22.229 32.4298 22.2255 32.2739 22.2567C32.1179 22.2879 31.9708 22.353 31.8428 22.4475L24.8047 26.9592C24.218 27.3088 23.5477 27.4934 22.8647 27.4934C22.1817 27.4934 21.5114 27.3088 20.9247 26.9592L20.4735 26.6885L28.2335 19.1992C28.785 18.6449 29.5274 18.3222 30.3089 18.2968H38.0689C38.4749 18.3009 38.8752 18.3932 39.2419 18.5675L46.0094 21.3647V35.5313H41.0466ZM54.4913 37.336H47.5433V17.8457H54.4913V37.336Z" fill="#4D535B"/>
</g>
</g>
</g>
</svg>
