<svg width="58" height="58" viewBox="0 0 58 58" fill="none" xmlns="http://www.w3.org/2000/svg">
<g id="business.fabc3a7.svg">
<g id="Group">
<g id="stroke">
<path id="Vector" d="M40.5714 40.0618C40.5099 40.2715 40.4067 40.4667 40.268 40.6356C40.1293 40.8045 39.9579 40.9437 39.7641 41.0448C39.5703 41.1459 39.3581 41.2068 39.1402 41.224C38.9223 41.2411 38.7032 41.2141 38.496 41.1446H38.4058C38.0001 40.9711 37.6769 40.6479 37.5035 40.2422H37.4132L33.9844 34.6478C33.8354 34.4145 33.6028 34.2471 33.3343 34.18C33.0659 34.1129 32.7818 34.1511 32.5407 34.2869C32.3156 34.4638 32.1573 34.712 32.0917 34.9907C32.0261 35.2694 32.0572 35.5621 32.1797 35.8208L35.6086 41.325L36.15 42.1371L35.9695 42.4981C35.798 42.7765 35.5464 42.9966 35.2476 43.1297C35.0637 43.2546 34.85 43.3287 34.6281 43.3445C34.4063 43.3604 34.1843 43.3174 33.9844 43.2199C33.5899 43.076 33.2666 42.785 33.0821 42.4078H32.9918L29.563 36.7232C29.5142 36.5667 29.4304 36.4234 29.3182 36.3039C29.2059 36.1845 29.0679 36.0922 28.9148 36.0338C28.7616 35.9755 28.5972 35.9527 28.4339 35.9671C28.2707 35.9816 28.1128 36.0329 27.9722 36.1172C27.8317 36.2015 27.7121 36.3167 27.6226 36.4539C27.533 36.5912 27.4757 36.747 27.4551 36.9096C27.4345 37.0722 27.4511 37.2374 27.5036 37.3927C27.5562 37.5479 27.6432 37.6892 27.7583 37.806L31.0969 43.4906L31.3676 43.9418V44.3027C31.1712 44.559 30.9259 44.7737 30.6458 44.9343C30.2382 45.1206 29.7739 45.14 29.3523 44.9882C28.9307 44.8364 28.5852 44.5256 28.3899 44.1222L25.1416 38.7083C24.9877 38.5013 24.7651 38.3559 24.5136 38.2985C24.2622 38.2411 23.9985 38.2752 23.77 38.3949C23.5416 38.5146 23.3633 38.7119 23.2674 38.9513C23.1714 39.1907 23.1641 39.4565 23.2467 39.7008L26.4048 44.9343L26.2244 45.2953C26.1138 45.4933 25.963 45.666 25.7816 45.8022C25.6003 45.9385 25.3924 46.0352 25.1714 46.0862C24.9504 46.1372 24.7211 46.1413 24.4984 46.0984C24.2757 46.0554 24.0645 45.9662 23.8783 45.8367C23.5999 45.6651 23.3798 45.4135 23.2467 45.1148H23.1564L17.562 35.6404C17.4556 35.4738 17.3088 35.3368 17.1353 35.2422C16.9617 35.1475 16.7671 35.0983 16.5695 35.099H12.2383V20.752H23.1564L18.8253 24.9929C18.6392 25.1632 18.489 25.369 18.3835 25.5982C18.278 25.8274 18.2194 26.0753 18.211 26.3274C18.2026 26.5795 18.2446 26.8308 18.3346 27.0665C18.4246 27.3022 18.5607 27.5175 18.735 27.6999L19.096 27.9706L19.7276 28.3315C20.6303 28.9523 21.7 29.2847 22.7955 29.2847C23.891 29.2847 24.9608 28.9523 25.8634 28.3315L31.909 24.4515L40.4811 38.7985C40.5852 38.9905 40.6472 39.2025 40.6627 39.4204C40.6783 39.6382 40.6471 39.8569 40.5714 40.0618Z" fill="white"/>
<path id="Vector_2" d="M40.7508 35.3692L33.081 22.6464C33.0212 22.5158 32.9337 22.3998 32.8247 22.3063C32.7156 22.2129 32.5876 22.1442 32.4494 22.105C32.295 22.067 32.1341 22.0634 31.9781 22.0946C31.8222 22.1258 31.675 22.191 31.5471 22.2855L24.5089 26.7971C23.9222 27.1467 23.2519 27.3313 22.5689 27.3313C21.8859 27.3313 21.2156 27.1467 20.6289 26.7971L20.1777 26.5264L27.9378 19.0371C28.4893 18.4828 29.2316 18.1601 30.0131 18.1348H37.7731C38.1791 18.1388 38.5794 18.2312 38.9461 18.4055L45.7136 21.2027V35.3692H40.7508Z" fill="white"/>
<g id="Vector_3" style="mix-blend-mode:darken">
<path d="M2.76562 16.4199H11.7889V38.0758H2.76562V16.4199ZM46.0774 16.4199H55.1006V38.0758H46.0774V16.4199Z" fill="#562FB9"/>
</g>
<path id="Vector_4" d="M40.4811 38.7985L31.909 24.4515L25.8634 28.3315C24.9608 28.9523 23.891 29.2847 22.7955 29.2847C21.7 29.2847 20.6303 28.9523 19.7276 28.3315L19.096 27.9706L18.735 27.6999C18.5607 27.5175 18.4246 27.3022 18.3346 27.0665C18.2446 26.8308 18.2026 26.5795 18.211 26.3274C18.2194 26.0753 18.278 25.8274 18.3835 25.5982C18.489 25.369 18.6392 25.1632 18.8253 24.9929L23.1564 20.752H12.2383V22.5566H20.4495L23.5174 22.7371C22.7955 23.4589 21.9834 22.2859 19.0057 26.3464C19.903 26.9461 20.8373 27.4886 21.803 27.9706V28.151C23.6978 29.3241 24.8709 27.9706 25.4123 28.151L29.9239 24.5417L38.7667 40.6032C38.857 40.6934 38.8569 40.6934 38.8569 40.7836L39.3983 41.1446H39.4886C40.3909 41.4153 40.3909 40.9641 40.6616 40.0618C40.724 39.8506 40.7401 39.6285 40.709 39.4105C40.6778 39.1925 40.6001 38.9838 40.4811 38.7985Z" fill="#DEE0E2"/>
<path id="Vector_5" d="M54.9182 15.8789H46.3461C46.0589 15.8789 45.7835 15.993 45.5804 16.196C45.3774 16.3991 45.2633 16.6745 45.2633 16.9617V19.1273L39.4884 16.7812C38.891 16.5229 38.244 16.3997 37.5935 16.4203H30.1944C29.5473 16.4008 28.9029 16.5105 28.2987 16.7429C27.6944 16.9753 27.1426 17.3257 26.6753 17.7738L25.4121 19.0371H12.599V16.9617C12.599 16.6745 12.4849 16.3991 12.2819 16.196C12.0788 15.993 11.8034 15.8789 11.5162 15.8789H2.94412C2.80193 15.8789 2.66112 15.9069 2.52975 15.9613C2.39838 16.0157 2.27902 16.0955 2.17847 16.196C2.07792 16.2966 1.99817 16.416 1.94375 16.5473C1.88934 16.6787 1.86133 16.8195 1.86133 16.9617V37.9859C1.86133 38.2731 1.97541 38.5485 2.17847 38.7516C2.38153 38.9547 2.65695 39.0687 2.94412 39.0687H11.5162C11.8034 39.0687 12.0788 38.9547 12.2819 38.7516C12.4849 38.5485 12.599 38.2731 12.599 37.9859V37.1738H16.2986L21.3516 45.6557C21.6979 46.2392 22.1849 46.7266 22.7682 47.0734C23.3514 47.4202 24.0122 47.6153 24.6902 47.6408C25.2709 47.6304 25.8414 47.4867 26.3577 47.2207C26.874 46.9547 27.3223 46.5736 27.6679 46.1069L28.48 46.4678L29.7433 46.6483C30.3788 46.6365 31.0011 46.465 31.553 46.1496C32.1049 45.8342 32.5686 45.3851 32.9014 44.8436H33.0819L34.2549 45.0241C34.9074 45.0365 35.5516 44.8762 36.1221 44.5592C36.6926 44.2423 37.1691 43.78 37.5033 43.2194H37.5935V42.9487L38.5861 43.1292C39.0796 43.1294 39.5681 43.0308 40.023 42.8392C40.4778 42.6477 40.8897 42.3671 41.2345 42.0139C41.5792 41.6608 41.8498 41.2422 42.0303 40.7829C42.2108 40.3236 42.2976 39.8328 42.2856 39.3394C42.2969 38.777 42.1731 38.22 41.9247 37.7152L41.654 37.2641H45.1731V38.0762C45.1731 38.3633 45.2871 38.6388 45.4902 38.8418C45.6933 39.0449 45.9687 39.159 46.2559 39.159H54.828C54.9855 39.1727 55.1441 39.1519 55.2927 39.0978C55.4412 39.0437 55.5762 38.9577 55.688 38.8459C55.7998 38.7341 55.8857 38.5992 55.9398 38.4506C55.9939 38.3021 56.0148 38.1434 56.001 37.9859V16.9617C56.001 16.8195 55.973 16.6787 55.9186 16.5473C55.8642 16.416 55.7844 16.2966 55.6839 16.196C55.5833 16.0955 55.4639 16.0157 55.3326 15.9613C55.2012 15.9069 55.0604 15.8789 54.9182 15.8789ZM10.6139 37.1738H3.66598V17.6836H10.6139V37.1738ZM40.5712 40.0613C40.5097 40.271 40.4065 40.4662 40.2678 40.6351C40.1291 40.804 39.9577 40.9432 39.7639 41.0443C39.5701 41.1454 39.3579 41.2063 39.14 41.2235C38.9222 41.2406 38.703 41.2136 38.4958 41.1441H38.4056C37.9999 40.9706 37.6767 40.6474 37.5033 40.2418H37.413L33.9842 34.6473C33.8353 34.4141 33.6027 34.2467 33.3342 34.1795C33.0657 34.1124 32.7817 34.1507 32.5405 34.2864C32.3154 34.4633 32.1571 34.7115 32.0915 34.9902C32.0259 35.2689 32.057 35.5616 32.1795 35.8204L35.6084 41.3245L36.1498 42.1366L35.9693 42.4976C35.7978 42.776 35.5462 42.9961 35.2475 43.1292C35.0635 43.2541 34.8498 43.3282 34.628 43.3441C34.4061 43.3599 34.1841 43.3169 33.9842 43.2194C33.5898 43.0755 33.2664 42.7845 33.0819 42.4073H32.9916L29.5628 36.7227C29.514 36.5662 29.4303 36.4229 29.318 36.3035C29.2057 36.1841 29.0678 36.0917 28.9146 36.0334C28.7614 35.975 28.597 35.9522 28.4337 35.9666C28.2705 35.9811 28.1126 36.0324 27.9721 36.1167C27.8315 36.2011 27.7119 36.3162 27.6224 36.4535C27.5328 36.5907 27.4755 36.7465 27.4549 36.9091C27.4343 37.0718 27.4509 37.2369 27.5035 37.3922C27.556 37.5474 27.6431 37.6888 27.7581 37.8055L31.0968 43.4901L31.3674 43.9413V44.3022C31.1711 44.5585 30.9257 44.7732 30.6456 44.9339C30.238 45.1202 29.7737 45.1395 29.3521 44.9877C28.9305 44.8359 28.5851 44.5251 28.3898 44.1218L25.1414 38.7078C24.9876 38.5008 24.7649 38.3555 24.5134 38.298C24.262 38.2406 23.9983 38.2748 23.7698 38.3944C23.5414 38.5141 23.3631 38.7114 23.2672 38.9508C23.1712 39.1902 23.1639 39.456 23.2465 39.7004L26.4046 44.9339L26.2242 45.2948C26.1136 45.4928 25.9628 45.6655 25.7815 45.8018C25.6001 45.938 25.3922 46.0347 25.1712 46.0857C24.9502 46.1367 24.721 46.1409 24.4982 46.0979C24.2755 46.0549 24.0643 45.9658 23.8781 45.8362C23.5997 45.6646 23.3796 45.413 23.2465 45.1143H23.1563L17.5618 35.6399C17.4554 35.4733 17.3086 35.3364 17.1351 35.2417C16.9616 35.1471 16.7669 35.0978 16.5693 35.0985H12.2381V20.7515H23.1563L18.8251 24.9924C18.639 25.1628 18.4888 25.3686 18.3833 25.5977C18.2779 25.8269 18.2192 26.0748 18.2108 26.3269C18.2024 26.5791 18.2444 26.8303 18.3344 27.066C18.4244 27.3017 18.5605 27.517 18.7349 27.6994L19.0958 27.9701L19.7274 28.331C20.6301 28.9518 21.6998 29.2842 22.7953 29.2842C23.8909 29.2842 24.9606 28.9518 25.8632 28.331L31.9088 24.451L40.481 38.798C40.5851 38.99 40.647 39.2021 40.6625 39.4199C40.6781 39.6378 40.647 39.8564 40.5712 40.0613ZM40.7517 35.3692L33.0819 22.6464C33.022 22.5158 32.9346 22.3998 32.8255 22.3063C32.7165 22.2128 32.5884 22.1441 32.4502 22.105C32.2958 22.0669 32.1349 22.0634 31.979 22.0946C31.823 22.1258 31.6758 22.1909 31.5479 22.2854L24.5098 26.7971C23.923 27.1467 23.2527 27.3313 22.5698 27.3313C21.8868 27.3313 21.2165 27.1467 20.6297 26.7971L20.1786 26.5264L27.9386 19.0371C28.4901 18.4828 29.2325 18.16 30.014 18.1347H37.774C38.18 18.1388 38.5803 18.2311 38.947 18.4054L45.7145 21.2026V35.3692H40.7517ZM54.1963 37.1738H47.2484V17.6836H54.1963V37.1738Z" fill="#4D535B"/>
</g>
</g>
</g>
</svg>
