<svg width="58" height="41" viewBox="0 0 58 41" fill="none" xmlns="http://www.w3.org/2000/svg">
<g id="data.855fe95.svg" clip-path="url(#clip0_235_16446)">
<path id="Vector" d="M11.415 9.40716V7.33798H48.667V9.40716H11.4141H11.415ZM49.7007 4.23324V2.16406H52.8044C53.2123 2.16381 53.6163 2.24396 53.9932 2.39995C54.3701 2.55593 54.7126 2.78469 55.0011 3.07313C55.2895 3.36158 55.5183 3.70405 55.6743 4.08097C55.8302 4.45789 55.9104 4.86186 55.9101 5.26978V31.6552H53.3232V6.30437C53.3233 6.03256 53.2699 5.76339 53.166 5.51223C53.062 5.26107 52.9096 5.03285 52.7175 4.84061C52.5253 4.64837 52.2972 4.49586 52.0461 4.39182C51.795 4.28777 51.5258 4.23422 51.254 4.23422H49.7016L49.7007 4.23324Z" fill="#DEE0E2"/>
<path id="Vector_2" d="M56.4123 34.9397C56.4124 35.5126 56.2996 36.08 56.0804 36.6093C55.8613 37.1387 55.5399 37.6196 55.1348 38.0248C54.7297 38.4299 54.2487 38.7512 53.7194 38.9704C53.19 39.1896 52.6227 39.3023 52.0498 39.3022H11.4141V6.58203H20.2095" stroke="#4D535B" stroke-width="1.95759" stroke-miterlimit="10" stroke-linejoin="round"/>
<path id="Vector_3" d="M49.8672 31.6673C50.3253 30.8931 51.2522 30.577 52.0489 30.577C52.6219 30.5768 53.1892 30.6896 53.7185 30.9088C54.2479 31.128 54.7288 31.4493 55.134 31.8544C55.5391 32.2595 55.8604 32.7405 56.0796 33.2699C56.2988 33.7992 56.4115 34.3665 56.4114 34.9395V5.4914C56.4115 4.91847 56.2988 4.35113 56.0796 3.82179C55.8604 3.29245 55.5391 2.81149 55.134 2.40636C54.7288 2.00124 54.2479 1.67991 53.7185 1.46072C53.1892 1.24153 52.6219 1.12878 52.0489 1.12891C51.2522 1.12891 50.2382 1.31488 49.8672 2.21929V31.6673Z" stroke="#4D535B" stroke-width="1.95759" stroke-miterlimit="10" stroke-linejoin="round"/>
<path id="Vector_4" d="M3.78943 6.19141C2.28404 6.19141 1.0625 7.17314 1.0625 8.37314V33.3325L3.78943 38.7863L6.5144 33.3325V8.37314C6.5144 7.17314 5.29384 6.19141 3.78943 6.19141Z" fill="#121212" stroke="#4D535B" stroke-width="1.95759" stroke-miterlimit="10" stroke-linejoin="round"/>
<path id="Vector_5" d="M1.0625 12.7347H6.51537M19.3239 6.58203H49.8623M31.0695 11.3644H45.0398M31.0695 15.7269H45.0398M31.0695 20.0904H41.7667M25.8965 11.3644H17.6179V20.6767H25.8955L25.8965 11.3644Z" stroke="#4D535B" stroke-width="1.95759" stroke-miterlimit="10" stroke-linejoin="round"/>
<path id="Vector_6" d="M38.3197 35.1642H45.5628V27.9211H38.3197V35.1642ZM38.3197 35.1642H32.1112M38.3197 35.1642V24.8164H32.1112V35.1642M24.8681 35.1642V26.8856H32.1112V35.1642M24.8681 35.1642H32.1112M24.8681 35.1642H17.625V31.0239H24.8681V35.1642Z" stroke="#4D535B" stroke-width="1.95759" stroke-miterlimit="10"/>
</g>
<defs>
<clipPath id="clip0_235_16446">
<rect width="57.749" height="40.1306" fill="white" transform="translate(0.0859375 0.150391)"/>
</clipPath>
</defs>
</svg>
