<svg width="59" height="42" viewBox="0 0 59 42" fill="none" xmlns="http://www.w3.org/2000/svg">
<g id="data.855fe95.svg" clip-path="url(#clip0_103_14613)">
<path id="Vector" d="M12.1221 10.245V8.17587H49.3741V10.245H12.1211H12.1221ZM50.4077 5.07113V3.00195H53.5114C53.9194 3.0017 54.3233 3.08185 54.7003 3.23784C55.0772 3.39382 55.4197 3.62258 55.7081 3.91102C55.9965 4.19947 56.2253 4.54194 56.3813 4.91886C56.5373 5.29578 56.6174 5.69975 56.6172 6.10767V32.4931H54.0302V7.14226C54.0303 6.87045 53.9769 6.60128 53.873 6.35012C53.7691 6.09897 53.6167 5.87075 53.4245 5.6785C53.2324 5.48626 53.0042 5.33376 52.7531 5.22971C52.502 5.12566 52.2328 5.07211 51.961 5.07211H50.4087L50.4077 5.07113Z" fill="#DEE0E2"/>
<path id="Vector_2" d="M57.1193 35.7776C57.1194 36.3505 57.0067 36.9179 56.7875 37.4472C56.5683 37.9766 56.247 38.4575 55.8418 38.8626C55.4367 39.2678 54.9557 39.5891 54.4264 39.8083C53.8971 40.0275 53.3297 40.1402 52.7568 40.1401H12.1211V7.41992H20.9166" stroke="#4D535B" stroke-width="1.95759" stroke-miterlimit="10" stroke-linejoin="round"/>
<path id="Vector_3" d="M50.5742 32.5052C51.0323 31.731 51.9592 31.4149 52.756 31.4149C53.3289 31.4147 53.8962 31.5275 54.4256 31.7467C54.9549 31.9659 55.4359 32.2872 55.841 32.6923C56.2461 33.0974 56.5674 33.5784 56.7866 34.1077C57.0058 34.6371 57.1186 35.2044 57.1185 35.7774V6.32929C57.1186 5.75636 57.0058 5.18903 56.7866 4.65969C56.5674 4.13034 56.2461 3.64938 55.841 3.24426C55.4359 2.83913 54.9549 2.5178 54.4256 2.29861C53.8962 2.07942 53.3289 1.96667 52.756 1.9668C51.9592 1.9668 50.9452 2.15277 50.5742 3.05718V32.5052Z" stroke="#4D535B" stroke-width="1.95759" stroke-miterlimit="10" stroke-linejoin="round"/>
<path id="Vector_4" d="M4.50036 7.0293C2.99498 7.0293 1.77344 8.01103 1.77344 9.21103V34.1703L4.50036 39.6242L7.22533 34.1703V9.21103C7.22533 8.01103 6.00477 7.0293 4.50036 7.0293Z" fill="#562FB9" stroke="#4D535B" stroke-width="1.95759" stroke-miterlimit="10" stroke-linejoin="round"/>
<path id="Vector_5" d="M1.77344 13.5726H7.22631M20.0348 7.41992H50.5733M31.7804 12.2023H45.7508M31.7804 16.5648H45.7508M31.7804 20.9283H42.4777M26.6075 12.2023H18.3288V21.5146H26.6065L26.6075 12.2023Z" stroke="#4D535B" stroke-width="1.95759" stroke-miterlimit="10" stroke-linejoin="round"/>
<path id="Vector_6" d="M39.0248 36.0021H46.2679V28.759H39.0248V36.0021ZM39.0248 36.0021H32.8163M39.0248 36.0021V25.6543H32.8163V36.0021M25.5732 36.0021V27.7235H32.8163V36.0021M25.5732 36.0021H32.8163M25.5732 36.0021H18.3301V31.8618H25.5732V36.0021Z" stroke="#4D535B" stroke-width="1.95759" stroke-miterlimit="10"/>
</g>
<defs>
<clipPath id="clip0_103_14613">
<rect width="57.749" height="40.1306" fill="white" transform="translate(0.794922 0.988281)"/>
</clipPath>
</defs>
</svg>
