<svg width="58" height="59" viewBox="0 0 58 59" fill="none" xmlns="http://www.w3.org/2000/svg">
<g id="graphics-design.91dfe44.svg">
<g id="Group">
<g id="white">
<path id="Vector" d="M16.4062 27.4082L18.2109 46.3571H17.3086V50.8687H42.5738V46.3571H40.7691L42.5738 27.4082H16.4062Z" fill="white"/>
<path id="Vector_2" d="M42.5738 27.4082H16.4062L16.5867 30.1152H39.8668L38.0621 47.2594H39.8668V50.8687H42.5738V46.3571H40.7691L42.5738 27.4082Z" fill="#DEE0E2"/>
</g>
<g id="stroke">
<path id="Vector_3" d="M35.8047 27.138L45.0084 9.18164L49.881 11.7082L41.8503 27.138" stroke="#4D535B" stroke-width="1.80466" stroke-miterlimit="10"/>
<path id="Vector_4" d="M46.1815 26.6868L50.9638 17.3026L42.9331 13.1519M13.6075 20.0998L17.6679 27.1379M25.2475 27.1379L19.2019 16.4905M19.1117 17.3026L13.8782 20.6412M21.4577 27.1379L17.0363 18.8365M33.0977 27.1379L33.188 15.8588L30.1201 9.27185L27.2326 16.1295V27.1379M32.7368 16.4002L27.2326 16.6709M30.2103 27.1379L30.0298 17.3928M41.3089 46.1771L42.8429 27.4086H16.5852L18.0289 46.1771M16.7656 51.0496H42.6624V46.538H16.7656V51.0496ZM10.72 7.82812C9.83127 10.422 9.76822 13.2276 10.5396 15.8588C11.893 19.5584 15.1414 20.3705 17.6679 17.3928C17.962 17.1247 18.1766 16.7808 18.288 16.3987C18.3994 16.0167 18.4034 15.6114 18.2996 15.2272C17.307 12.3398 14.4196 13.2421 10.72 7.82812Z" stroke="#4D535B" stroke-width="1.80466" stroke-miterlimit="10"/>
</g>
<g id="flah" style="mix-blend-mode:darken">
<path d="M13.6977 21.0923L18.2093 27.4086H25.428L20.014 17.483L13.6977 21.0923ZM10.72 7.82812C9.83127 10.422 9.76822 13.2276 10.5396 15.8588C11.893 19.5584 15.1414 20.3705 17.6679 17.3928C17.962 17.1247 18.1766 16.7808 18.288 16.3987C18.3994 16.0167 18.4034 15.6114 18.2996 15.2272C17.307 12.3398 14.4196 13.2421 10.72 7.82812ZM35.3536 27.4086L45.2792 9.36208L49.7908 12.0691L41.6699 27.4086H35.3536ZM27.2326 27.4086H33.5489L32.6466 16.5807L29.9396 9.36208L27.2326 16.5807V27.4086Z" fill="#562FB9"/>
</g>
</g>
</g>
</svg>
