<svg width="59" height="59" viewBox="0 0 59 59" fill="none" xmlns="http://www.w3.org/2000/svg">
<g id="graphics-design.91dfe44.svg">
<g id="Group">
<g id="white">
<path id="Vector" d="M16.7031 27.5703L18.5078 46.5192H17.6055V51.0308H42.8706V46.5192H41.066L42.8706 27.5703H16.7031Z" fill="white"/>
<path id="Vector_2" d="M42.8706 27.5703H16.7031L16.8836 30.2773H40.1636L38.359 47.4215H40.1636V51.0308H42.8706V46.5192H41.066L42.8706 27.5703Z" fill="#DEE0E2"/>
</g>
<g id="stroke">
<path id="Vector_3" d="M36.0938 27.3001L45.2975 9.34375L50.1701 11.8703L42.1393 27.3001" stroke="#4D535B" stroke-width="1.80466" stroke-miterlimit="10"/>
<path id="Vector_4" d="M46.4745 26.8489L51.2568 17.4647L43.2261 13.314M13.9004 20.2619L17.9609 27.3001M25.5405 27.3001L19.4949 16.6526M19.4046 17.4647L14.1711 20.8033M21.7507 27.3001L17.3293 18.9986M33.3907 27.3001L33.4809 16.021L30.413 9.43396L27.5256 16.2917V27.3001M33.0298 16.5623L27.5256 16.833M30.5033 27.3001L30.3228 17.5549M41.6019 46.3392L43.1359 27.5708H16.8781L18.3218 46.3392M17.0586 51.2117H42.9554V46.7001H17.0586V51.2117ZM11.013 7.99023C10.1242 10.5841 10.0612 13.3897 10.8325 16.021C12.186 19.7205 15.4344 20.5326 17.9609 17.5549C18.255 17.2868 18.4695 16.9429 18.581 16.5609C18.6924 16.1788 18.6964 15.7735 18.5925 15.3893C17.6 12.5019 14.7125 13.4042 11.013 7.99023Z" stroke="#4D535B" stroke-width="1.80466" stroke-miterlimit="10"/>
</g>
<g id="flah" style="mix-blend-mode:darken">
<path d="M13.9907 21.2545L18.5023 27.5707H25.7209L20.307 17.6451L13.9907 21.2545ZM11.013 7.99023C10.1242 10.5841 10.0612 13.3897 10.8325 16.021C12.186 19.7205 15.4344 20.5326 17.9609 17.5549C18.255 17.2868 18.4695 16.9429 18.581 16.5609C18.6924 16.1788 18.6964 15.7735 18.5925 15.3893C17.6 12.5019 14.7125 13.4042 11.013 7.99023ZM35.6465 27.5707L45.5721 9.52419L50.0838 12.2312L41.9628 27.5707H35.6465ZM27.5256 27.5707H33.8419L32.9396 16.7428L30.2326 9.52419L27.5256 16.7428V27.5707Z" fill="#121212"/>
</g>
</g>
</g>
</svg>
