<svg width="58" height="59" viewBox="0 0 58 59" fill="none" xmlns="http://www.w3.org/2000/svg">
<g id="lifestyle.112b348.svg">
<g id="Group">
<g id="stroke">
<path id="Vector" d="M11.0469 18.5684H42.3576V48.1647C42.3576 49.122 41.9774 50.04 41.3005 50.7169C40.6236 51.3937 39.7056 51.774 38.7483 51.774H14.6562C13.6989 51.774 12.7809 51.3937 12.104 50.7169C11.4271 50.04 11.0469 49.122 11.0469 48.1647V18.5684Z" fill="white"/>
<path id="Vector_2" d="M11.0469 18.5684V22.3581H38.5679V50.7815C38.5679 51.1424 38.4776 51.4131 38.4776 51.6838C40.1018 51.3229 42.3576 49.7889 42.3576 47.9842V18.5684H11.0469Z" fill="#DEE0E2"/>
<path id="Vector_3" d="M19.619 18.5684V26.1479M11.9492 18.5684H41.4553C41.6946 18.5684 41.9241 18.6634 42.0934 18.8326C42.2626 19.0019 42.3576 19.2314 42.3576 19.4707V47.2624C42.3576 48.4589 41.8823 49.6065 41.0362 50.4526C40.1901 51.2987 39.0426 51.774 37.846 51.774H15.5585C14.362 51.774 13.2144 51.2987 12.3683 50.4526C11.5222 49.6065 11.0469 48.4589 11.0469 47.2624V19.4707C11.0469 19.2314 11.1419 19.0019 11.3112 18.8326C11.4804 18.6634 11.7099 18.5684 11.9492 18.5684Z" stroke="#4D535B" stroke-width="1.89489" stroke-miterlimit="10"/>
<path id="Vector_4" d="M22.9588 26.5996H16.1914C15.693 26.5996 15.2891 27.0036 15.2891 27.5019V36.1282C15.2891 36.6265 15.693 37.0305 16.1914 37.0305H22.9588C23.4572 37.0305 23.8612 36.6265 23.8612 36.1282V27.5019C23.8612 27.0036 23.4572 26.5996 22.9588 26.5996Z" stroke="#4D535B" stroke-width="2.01219" stroke-miterlimit="10"/>
<g id="Vector_5" style="mix-blend-mode:darken">
<path d="M22.9588 26.5996H16.1914C15.693 26.5996 15.2891 27.0036 15.2891 27.5019V36.1282C15.2891 36.6265 15.693 37.0305 16.1914 37.0305H22.9588C23.4572 37.0305 23.8612 36.6265 23.8612 36.1282V27.5019C23.8612 27.0036 23.4572 26.5996 22.9588 26.5996Z" fill="#121212"/>
</g>
<path id="Vector_6" d="M42.3544 26.1485C44.4647 26.3658 46.4193 27.358 47.8405 28.933C49.2616 30.508 50.0482 32.5541 50.0482 34.6755C50.0482 36.7969 49.2616 38.8429 47.8405 40.4179C46.4193 41.993 44.4647 42.9851 42.3544 43.2025M27.1953 5.30469V14.7791" stroke="#4D535B" stroke-width="1.89489" stroke-miterlimit="10"/>
<path id="Vector_7" d="M32.885 7.19922V14.7788M21.5156 7.19922V14.7788" stroke="#4D535B" stroke-width="1.69638" stroke-miterlimit="10"/>
</g>
</g>
</g>
</svg>
