<svg width="59" height="58" viewBox="0 0 59 58" fill="none" xmlns="http://www.w3.org/2000/svg">
<g id="lifestyle.112b348.svg">
<g id="Group">
<g id="stroke">
<path id="Vector" d="M11.7539 18.4062H43.0647V48.0026C43.0647 48.9598 42.6844 49.8779 42.0075 50.5548C41.3307 51.2316 40.4126 51.6119 39.4554 51.6119H15.3632C14.406 51.6119 13.4879 51.2316 12.811 50.5548C12.1342 49.8779 11.7539 48.9598 11.7539 48.0026V18.4062Z" fill="white"/>
<path id="Vector_2" d="M11.7539 18.4062V22.196H39.2749V50.6194C39.2749 50.9803 39.1847 51.251 39.1847 51.5217C40.8089 51.1608 43.0647 49.6268 43.0647 47.8221V18.4062H11.7539Z" fill="#DEE0E2"/>
<path id="Vector_3" d="M20.326 18.4062V25.9858M12.6562 18.4062H42.1624C42.4017 18.4062 42.6312 18.5013 42.8004 18.6705C42.9696 18.8398 43.0647 19.0693 43.0647 19.3086V47.1003C43.0647 48.2968 42.5893 49.4444 41.7433 50.2905C40.8972 51.1366 39.7496 51.6119 38.553 51.6119H16.2655C15.069 51.6119 13.9214 51.1366 13.0753 50.2905C12.2292 49.4444 11.7539 48.2968 11.7539 47.1003V19.3086C11.7539 19.0693 11.849 18.8398 12.0182 18.6705C12.1874 18.5013 12.4169 18.4062 12.6562 18.4062Z" stroke="#4D535B" stroke-width="1.89489" stroke-miterlimit="10"/>
<path id="Vector_4" d="M23.6659 26.4375H16.8984C16.4001 26.4375 15.9961 26.8415 15.9961 27.3398V35.9661C15.9961 36.4644 16.4001 36.8684 16.8984 36.8684H23.6659C24.1642 36.8684 24.5682 36.4644 24.5682 35.9661V27.3398C24.5682 26.8415 24.1642 26.4375 23.6659 26.4375Z" stroke="#4D535B" stroke-width="2.01219" stroke-miterlimit="10"/>
<g id="Vector_5" style="mix-blend-mode:darken">
<path d="M23.6659 26.4375H16.8984C16.4001 26.4375 15.9961 26.8415 15.9961 27.3398V35.9661C15.9961 36.4644 16.4001 36.8684 16.8984 36.8684H23.6659C24.1642 36.8684 24.5682 36.4644 24.5682 35.9661V27.3398C24.5682 26.8415 24.1642 26.4375 23.6659 26.4375Z" fill="#562FB9"/>
</g>
<path id="Vector_6" d="M43.0654 25.9864C45.1756 26.2037 47.1303 27.1958 48.5514 28.7709C49.9725 30.3459 50.7591 32.3919 50.7591 34.5133C50.7591 36.6347 49.9725 38.6808 48.5514 40.2558C47.1303 41.8309 45.1756 42.823 43.0654 43.0403M27.9062 5.14258V14.617" stroke="#4D535B" stroke-width="1.89489" stroke-miterlimit="10"/>
<path id="Vector_7" d="M33.592 7.03711V14.6167M22.2227 7.03711V14.6167" stroke="#4D535B" stroke-width="1.69638" stroke-miterlimit="10"/>
</g>
</g>
</g>
</svg>
