<svg width="59" height="59" viewBox="0 0 59 59" fill="none" xmlns="http://www.w3.org/2000/svg">
<g id="music-audio.ede4c90.svg">
<g id="Group">
<g id="white">
<path id="Vector" d="M26.8319 8.64062C28.8743 8.66438 30.825 9.49242 32.2608 10.9451C33.6966 12.3979 34.5018 14.3581 34.5017 16.4006V28.943C34.5017 29.9502 34.3033 30.9476 33.9179 31.8781C33.5324 32.8086 32.9675 33.6542 32.2553 34.3664C31.543 35.0786 30.6975 35.6435 29.767 36.029C28.8365 36.4144 27.8391 36.6128 26.8319 36.6128C24.7977 36.6128 22.8469 35.8047 21.4085 34.3664C19.9702 32.928 19.1621 30.9772 19.1621 28.943V16.4006C19.162 14.3581 19.9671 12.3979 21.403 10.9451C22.8388 9.49242 24.7895 8.66438 26.8319 8.64062Z" fill="white"/>
<path id="Vector_2" d="M26.3804 9.54297C25.1589 9.54952 23.9567 9.84771 22.8737 10.4127C21.7908 10.9777 20.8584 11.7932 20.1543 12.7913C21.4404 11.8586 22.987 11.3536 24.5757 11.3476C28.8166 11.3476 31.3432 14.8667 31.3432 19.1076V31.65C31.3629 33.2427 30.8553 34.7973 29.8994 36.0714C31.8846 34.7179 34.0501 32.4621 34.0501 29.8453V17.303C34.0503 15.2604 33.2451 13.3002 31.8093 11.8475C30.3735 10.3948 28.4228 9.56672 26.3804 9.54297Z" fill="#DEE0E2"/>
</g>
<g id="stroke">
<path id="Vector_3" d="M38.834 26.7754V29.6628C38.8103 32.8384 37.5384 35.8772 35.2929 38.1227C33.0473 40.3682 30.0085 41.6402 26.833 41.6638M26.833 41.6638C23.6574 41.6402 20.6186 40.3682 18.3731 38.1227C16.1276 35.8772 14.8556 32.8384 14.832 29.6628V26.7754M26.833 41.6638V51.1382M16.9976 51.5894H36.6684" stroke="#4D535B" stroke-width="1.80466" stroke-miterlimit="10"/>
<path id="Vector_4" d="M19.523 16.1299H23.8542M19.523 20.4611H23.8542M19.523 24.8825H23.8542M19.523 29.2137H23.8542M29.8096 16.1299H34.1407M29.8096 20.4611H34.1407M29.8096 24.8825H34.1407M29.8096 29.2137H34.1407M26.8319 8.64062C28.8743 8.66438 30.825 9.49242 32.2608 10.9451C33.6966 12.3979 34.5018 14.3581 34.5017 16.4006V28.943C34.5017 29.9502 34.3033 30.9476 33.9179 31.8781C33.5324 32.8086 32.9675 33.6542 32.2553 34.3664C31.543 35.0786 30.6975 35.6435 29.767 36.029C28.8365 36.4144 27.8391 36.6128 26.8319 36.6128C24.7977 36.6128 22.8469 35.8047 21.4085 34.3664C19.9702 32.928 19.1621 30.9772 19.1621 28.943V16.4006C19.162 14.3581 19.9671 12.3979 21.403 10.9451C22.8388 9.49242 24.7895 8.66438 26.8319 8.64062ZM43.7957 16.4909C44.1055 16.3758 44.4383 16.3364 44.7664 16.376C45.0945 16.4155 45.4085 16.5328 45.6821 16.7182C45.9557 16.9035 46.1811 17.1516 46.3395 17.4416C46.498 17.7317 46.5848 18.0554 46.5929 18.3858C46.5414 19.1378 46.237 19.8504 45.7291 20.4074C45.2212 20.9644 44.5398 21.3332 43.7957 21.4537C42.2617 21.7244 40.9984 20.9123 40.9984 19.4686C41.0691 18.7325 41.3822 18.0408 41.8884 17.5019C42.3947 16.963 43.0655 16.6074 43.7957 16.4909Z" stroke="#4D535B" stroke-width="1.80466" stroke-miterlimit="10"/>
<path id="Vector_5" d="M46.5039 9.81243L53.0909 12.1585V8.09801L46.5039 5.75195V19.0162" stroke="#4D535B" stroke-width="1.80466" stroke-miterlimit="10"/>
</g>
<g id="flah" style="mix-blend-mode:darken">
<path d="M43.7972 16.4897C44.107 16.3746 44.4399 16.3352 44.768 16.3747C45.0961 16.4143 45.41 16.5316 45.6837 16.717C45.9573 16.9023 46.1827 17.1503 46.3411 17.4404C46.4995 17.7305 46.5864 18.0541 46.5944 18.3845C46.543 19.1366 46.2386 19.8491 45.7307 20.4062C45.2228 20.9632 44.5413 21.332 43.7972 21.4525C42.2633 21.7232 41 20.9111 41 19.4673C41.0707 18.7313 41.3837 18.0396 41.89 17.5007C42.3962 16.9618 43.0671 16.6062 43.7972 16.4897ZM46.414 9.81243L53.001 12.1585V8.09801L46.414 5.75195" fill="#562FB9"/>
</g>
</g>
</g>
</svg>
