<svg width="59" height="59" viewBox="0 0 59 59" fill="none" xmlns="http://www.w3.org/2000/svg">
<g id="music-audio.ede4c90.svg">
<g id="Group">
<g id="white">
<path id="Vector" d="M27.1229 8.80273C29.1653 8.82648 31.116 9.65453 32.5518 11.1072C33.9877 12.56 34.7928 14.5202 34.7927 16.5628V29.1051C34.7927 30.1123 34.5943 31.1097 34.2089 32.0402C33.8234 32.9708 33.2585 33.8163 32.5463 34.5285C31.8341 35.2407 30.9886 35.8056 30.058 36.1911C29.1275 36.5765 28.1301 36.7749 27.1229 36.7749C25.0888 36.7749 23.1379 35.9668 21.6996 34.5285C20.2612 33.0901 19.4531 31.1393 19.4531 29.1051V16.5628C19.453 14.5202 20.2582 12.56 21.694 11.1072C23.1298 9.65453 25.0805 8.82648 27.1229 8.80273Z" fill="white"/>
<path id="Vector_2" d="M26.6714 9.70508C25.4499 9.71163 24.2477 10.0098 23.1647 10.5748C22.0818 11.1399 21.1494 11.9554 20.4453 12.9535C21.7314 12.0207 23.278 11.5157 24.8667 11.5097C29.1077 11.5097 31.6342 15.0288 31.6342 19.2698V31.8121C31.6539 33.4048 31.1463 34.9594 30.1905 36.2335C32.1756 34.88 34.3412 32.6242 34.3412 30.0075V17.4651C34.3413 15.4226 33.5361 13.4623 32.1003 12.0096C30.6645 10.5569 28.7138 9.72883 26.6714 9.70508Z" fill="#DEE0E2"/>
</g>
<g id="stroke">
<path id="Vector_3" d="M39.1269 26.9375V29.8249C39.1033 33.0005 37.8313 36.0393 35.5858 38.2848C33.3403 40.5303 30.3015 41.8023 27.126 41.8259M27.126 41.8259C23.9504 41.8023 20.9116 40.5303 18.6661 38.2848C16.4206 36.0393 15.1486 33.0005 15.125 29.8249V26.9375M27.126 41.8259V51.3003M17.2906 51.7515H36.9613" stroke="#4D535B" stroke-width="1.80466" stroke-miterlimit="10"/>
<path id="Vector_4" d="M19.8141 16.2921H24.1452M19.8141 20.6232H24.1452M19.8141 25.0446H24.1452M19.8141 29.3758H24.1452M30.1006 16.2921H34.4318M30.1006 20.6232H34.4318M30.1006 25.0446H34.4318M30.1006 29.3758H34.4318M27.1229 8.80273C29.1653 8.82648 31.116 9.65453 32.5518 11.1072C33.9877 12.56 34.7928 14.5202 34.7927 16.5628V29.1051C34.7927 30.1123 34.5943 31.1097 34.2089 32.0402C33.8234 32.9708 33.2585 33.8163 32.5463 34.5285C31.8341 35.2407 30.9886 35.8056 30.058 36.1911C29.1275 36.5765 28.1301 36.7749 27.1229 36.7749C25.0888 36.7749 23.1379 35.9668 21.6996 34.5285C20.2612 33.0901 19.4531 31.1393 19.4531 29.1051V16.5628C19.453 14.5202 20.2582 12.56 21.694 11.1072C23.1298 9.65453 25.0805 8.82648 27.1229 8.80273ZM44.0867 16.653C44.3965 16.5379 44.7293 16.4985 45.0574 16.5381C45.3856 16.5776 45.6995 16.6949 45.9731 16.8803C46.2467 17.0657 46.4721 17.3137 46.6306 17.6037C46.789 17.8938 46.8758 18.2175 46.8839 18.5479C46.8325 19.2999 46.528 20.0125 46.0201 20.5695C45.5123 21.1265 44.8308 21.4953 44.0867 21.6158C42.5527 21.8865 41.2895 21.0744 41.2895 19.6307C41.3602 18.8947 41.6732 18.2029 42.1794 17.664C42.6857 17.1251 43.3565 16.7695 44.0867 16.653Z" stroke="#4D535B" stroke-width="1.80466" stroke-miterlimit="10"/>
<path id="Vector_5" d="M46.7969 9.97454L53.3839 12.3206V8.26011L46.7969 5.91406V19.1783" stroke="#4D535B" stroke-width="1.80466" stroke-miterlimit="10"/>
</g>
<g id="flah" style="mix-blend-mode:darken">
<path d="M44.0941 16.6518C44.4039 16.5367 44.7367 16.4973 45.0649 16.5369C45.393 16.5764 45.7069 16.6937 45.9805 16.8791C46.2542 17.0644 46.4796 17.3125 46.638 17.6025C46.7964 17.8926 46.8832 18.2163 46.8913 18.5467C46.8399 19.2987 46.5354 20.0112 46.0276 20.5683C45.5197 21.1253 44.8382 21.4941 44.0941 21.6146C42.5601 21.8853 41.2969 21.0732 41.2969 19.6294C41.3676 18.8934 41.6806 18.2017 42.1868 17.6628C42.6931 17.1239 43.3639 16.7683 44.0941 16.6518ZM46.7108 9.97454L53.2978 12.3206V8.26011L46.7108 5.91406" fill="#121212"/>
</g>
</g>
</g>
</svg>
