<svg width="58" height="59" viewBox="0 0 58 59" fill="none" xmlns="http://www.w3.org/2000/svg">
<g id="online-marketing.a3e9794.svg">
<g id="Group">
<path id="Vector" d="M9.96094 13.873H47.8587V40.0406H9.96094V13.873Z" fill="white"/>
<path id="Vector_2" d="M9.96094 13.873V16.58H45.1517V40.0406H47.8587V13.873H9.96094Z" fill="#DEE0E2"/>
<path id="Vector_3" d="M18.8931 20.0998H21.9611L24.7583 29.3036H34.1425M24.2169 26.5064H35.135M23.495 23.7091H35.7667M32.9695 43.1092V49.3353M24.8485 49.3353V43.1092M17.269 49.6962H40.549M8.78707 10.5352H49.0309C49.6292 10.5352 50.2029 10.7728 50.626 11.1959C51.049 11.6189 51.2867 12.1927 51.2867 12.791V40.4924C51.2872 41.0993 51.0524 41.6828 50.6318 42.1202C50.2111 42.5577 49.6373 42.8151 49.0309 42.8385H8.78707C8.18063 42.8151 7.60683 42.5577 7.18619 42.1202C6.76555 41.6828 6.5308 41.0993 6.53125 40.4924V12.791C6.53125 12.1927 6.76892 11.6189 7.19196 11.1959C7.61501 10.7728 8.18879 10.5352 8.78707 10.5352ZM9.77963 13.6933H48.0383V39.5901H9.77963V13.6933ZM26.202 32.552C26.324 32.5374 26.4477 32.5508 26.5638 32.591C26.6798 32.6312 26.7853 32.6973 26.8722 32.7841C26.959 32.871 27.025 32.9764 27.0653 33.0925C27.1055 33.2086 27.1188 33.3323 27.1043 33.4543C27.1043 33.6936 27.0093 33.9231 26.84 34.0923C26.6708 34.2615 26.4413 34.3566 26.202 34.3566C25.9695 34.3363 25.7516 34.2347 25.5866 34.0697C25.4216 33.9047 25.32 33.6868 25.2997 33.4543C25.2997 33.215 25.3947 32.9855 25.564 32.8162C25.7332 32.647 25.9627 32.552 26.202 32.552ZM31.9769 32.552C32.0989 32.5374 32.2226 32.5508 32.3387 32.591C32.4547 32.6312 32.5602 32.6973 32.647 32.7841C32.7339 32.871 32.7999 32.9764 32.8402 33.0925C32.8804 33.2086 32.8937 33.3323 32.8792 33.4543C32.8792 33.6936 32.7842 33.9231 32.6149 34.0923C32.4457 34.2615 32.2162 34.3566 31.9769 34.3566C31.7376 34.3566 31.5081 34.2615 31.3389 34.0923C31.1696 33.9231 31.0746 33.6936 31.0746 33.4543C31.0601 33.3323 31.0734 33.2086 31.1136 33.0925C31.1538 32.9764 31.2199 32.871 31.3067 32.7841C31.3936 32.6973 31.499 32.6312 31.6151 32.591C31.7312 32.5508 31.8549 32.5374 31.9769 32.552Z" stroke="#4D535B" stroke-width="1.80466" stroke-miterlimit="10"/>
<g id="Vector_4" style="mix-blend-mode:darken">
<path d="M24.3965 42.748H33.4198V49.0643H24.3965V42.748Z" fill="#562FB9"/>
</g>
</g>
</g>
</svg>
