<svg width="59" height="59" viewBox="0 0 59 59" fill="none" xmlns="http://www.w3.org/2000/svg">
<g id="online-marketing.a3e9794.svg">
<g id="Group">
<path id="Vector" d="M10.2578 14.0352H48.1556V40.2027H10.2578V14.0352Z" fill="white"/>
<path id="Vector_2" d="M10.2578 14.0352V16.7421H45.4486V40.2027H48.1556V14.0352H10.2578Z" fill="#DEE0E2"/>
<path id="Vector_3" d="M19.19 20.2619H22.2579L25.0551 29.4657H34.4394M24.5137 26.6685H35.4319M23.7919 23.8713H36.0635M33.2663 43.2713V49.4974M25.1454 49.4974V43.2713M17.5658 49.8583H40.8459M9.08395 10.6973H49.3278C49.926 10.6973 50.4998 10.9349 50.9229 11.358C51.3459 11.781 51.5836 12.3548 51.5836 12.9531V40.6545C51.584 41.2614 51.3493 41.8449 50.9286 42.2824C50.508 42.7198 49.9342 42.9773 49.3278 43.0006H9.08395C8.4775 42.9773 7.90371 42.7198 7.48307 42.2824C7.06243 41.8449 6.82768 41.2614 6.82813 40.6545V12.9531C6.82813 12.3548 7.06579 11.781 7.48884 11.358C7.91189 10.9349 8.48566 10.6973 9.08395 10.6973ZM10.0765 13.8554H48.3352V39.7522H10.0765V13.8554ZM26.4989 32.7141C26.6209 32.6996 26.7446 32.7129 26.8606 32.7531C26.9767 32.7933 27.0822 32.8594 27.169 32.9462C27.2559 33.0331 27.3219 33.1385 27.3621 33.2546C27.4024 33.3707 27.4157 33.4944 27.4012 33.6164C27.4012 33.8557 27.3061 34.0852 27.1369 34.2544C26.9677 34.4237 26.7382 34.5187 26.4989 34.5187C26.2664 34.4984 26.0485 34.3968 25.8835 34.2318C25.7185 34.0668 25.6169 33.8489 25.5965 33.6164C25.5965 33.3771 25.6916 33.1476 25.8608 32.9783C26.03 32.8091 26.2596 32.7141 26.4989 32.7141ZM32.2738 32.7141C32.3958 32.6996 32.5195 32.7129 32.6355 32.7531C32.7516 32.7933 32.8571 32.8594 32.9439 32.9462C33.0308 33.0331 33.0968 33.1385 33.137 33.2546C33.1772 33.3707 33.1906 33.4944 33.1761 33.6164C33.1761 33.8557 33.081 34.0852 32.9118 34.2544C32.7426 34.4237 32.5131 34.5187 32.2738 34.5187C32.0345 34.5187 31.8049 34.4237 31.6357 34.2544C31.4665 34.0852 31.3714 33.8557 31.3714 33.6164C31.3569 33.4944 31.3703 33.3707 31.4105 33.2546C31.4507 33.1385 31.5167 33.0331 31.6036 32.9462C31.6905 32.8594 31.7959 32.7933 31.912 32.7531C32.0281 32.7129 32.1518 32.6996 32.2738 32.7141Z" stroke="#4D535B" stroke-width="1.80466" stroke-miterlimit="10"/>
<g id="Vector_4" style="mix-blend-mode:darken">
<path d="M24.6953 42.9102H33.7186V49.2265H24.6953V42.9102Z" fill="#121212"/>
</g>
</g>
</g>
</svg>
