<svg width="59" height="59" viewBox="0 0 59 59" fill="none" xmlns="http://www.w3.org/2000/svg">
<g id="photography.0cf5a3f.svg">
<path id="Vector" d="M53.9249 17.2362H41.2923L34.976 9.11523H19.6364L13.3202 17.2362H7.00386C5.4699 17.2362 4.29688 18.4092 4.29688 19.9432V44.306C4.29688 45.84 5.4699 47.013 7.00386 47.013H53.9249C55.4589 47.013 56.6319 45.84 56.6319 44.306V19.9432C56.6319 18.4092 55.4589 17.2362 53.9249 17.2362Z" fill="white" stroke="#404145" stroke-width="1.80466" stroke-miterlimit="10"/>
<path id="Vector_2" d="M46.7031 14.5293V12.7246H53.0194V14.5293" stroke="#404145" stroke-width="1.80466" stroke-miterlimit="10"/>
<path id="Vector_3" d="M27.7576 42.5015C34.7344 42.5015 40.3902 36.8457 40.3902 29.8689C40.3902 22.8921 34.7344 17.2363 27.7576 17.2363C20.7808 17.2363 15.125 22.8921 15.125 29.8689C15.125 36.8457 20.7808 42.5015 27.7576 42.5015Z" fill="#121212" stroke="#404145" stroke-width="1.80466" stroke-miterlimit="10"/>
<path id="Vector_4" d="M27.7577 38.8923C32.7412 38.8923 36.7809 34.8525 36.7809 29.869C36.7809 24.8854 32.7412 20.8457 27.7577 20.8457C22.7741 20.8457 18.7344 24.8854 18.7344 29.869C18.7344 34.8525 22.7741 38.8923 27.7577 38.8923Z" fill="white" stroke="#404145" stroke-width="1.80466" stroke-miterlimit="10"/>
<path id="Vector_5" d="M22.7044 28.0643C23.4263 25.989 25.4114 24.455 27.8477 24.455M23.0654 32.576C22.6142 31.7639 22.3435 30.8616 22.3435 29.869M7.90625 21.748H13.3202" stroke="#404145" stroke-width="1.80466" stroke-miterlimit="10"/>
<path id="Vector_6" d="M53.9178 47.0131H45.7969V17.2363H53.9178C55.4518 17.2363 56.6248 18.4094 56.6248 19.9433V44.3062C56.6248 45.7499 55.4518 47.0131 53.9178 47.0131Z" fill="#121212" stroke="#404145" stroke-width="1.80466" stroke-miterlimit="10"/>
<path id="Vector_7" d="M39.4844 40.6973H41.289" stroke="#404145" stroke-width="1.80466" stroke-miterlimit="10"/>
</g>
</svg>
