<svg width="59" height="58" viewBox="0 0 59 58" fill="none" xmlns="http://www.w3.org/2000/svg">
<g id="photography.0cf5a3f.svg">
<path id="Vector" d="M53.6339 17.0741H41.0013L34.685 8.95312H19.3454L13.0291 17.0741H6.71284C5.17889 17.0741 4.00586 18.2471 4.00586 19.7811V44.1439C4.00586 45.6779 5.17889 46.8509 6.71284 46.8509H53.6339C55.1678 46.8509 56.3409 45.6779 56.3409 44.1439V19.7811C56.3409 18.2471 55.1678 17.0741 53.6339 17.0741Z" fill="white" stroke="#404145" stroke-width="1.80466" stroke-miterlimit="10"/>
<path id="Vector_2" d="M46.4141 14.3672V12.5625H52.7304V14.3672" stroke="#404145" stroke-width="1.80466" stroke-miterlimit="10"/>
<path id="Vector_3" d="M27.4666 42.3394C34.4434 42.3394 40.0992 36.6836 40.0992 29.7068C40.0992 22.73 34.4434 17.0742 27.4666 17.0742C20.4898 17.0742 14.834 22.73 14.834 29.7068C14.834 36.6836 20.4898 42.3394 27.4666 42.3394Z" fill="#562FB9" stroke="#404145" stroke-width="1.80466" stroke-miterlimit="10"/>
<path id="Vector_4" d="M27.4647 38.7302C32.4482 38.7302 36.488 34.6904 36.488 29.7069C36.488 24.7233 32.4482 20.6836 27.4647 20.6836C22.4811 20.6836 18.4414 24.7233 18.4414 29.7069C18.4414 34.6904 22.4811 38.7302 27.4647 38.7302Z" fill="white" stroke="#404145" stroke-width="1.80466" stroke-miterlimit="10"/>
<path id="Vector_5" d="M22.4134 27.9022C23.1353 25.8269 25.1204 24.2929 27.5567 24.2929M22.7743 32.4139C22.3232 31.6018 22.0525 30.6994 22.0525 29.7069M7.61523 21.5859H13.0292" stroke="#404145" stroke-width="1.80466" stroke-miterlimit="10"/>
<path id="Vector_6" d="M53.6327 46.851H45.5117V17.0742H53.6327C55.1666 17.0742 56.3397 18.2472 56.3397 19.7812V44.1441C56.3397 45.5878 55.1666 46.851 53.6327 46.851Z" fill="#562FB9" stroke="#404145" stroke-width="1.80466" stroke-miterlimit="10"/>
<path id="Vector_7" d="M39.1953 40.5352H41" stroke="#404145" stroke-width="1.80466" stroke-miterlimit="10"/>
</g>
</svg>
