<svg width="58" height="58" viewBox="0 0 58 58" fill="none" xmlns="http://www.w3.org/2000/svg">
<g id="programming.6ee5a90.svg">
<g id="Group">
<g id="white">
<path id="Vector" d="M7.40625 19.1289H50.718V48.0034H7.40625V19.1289Z" fill="white"/>
<path id="Vector_2" d="M7.40625 19.1289V21.8359H47.1087V48.0034H50.718V19.1289H7.40625Z" fill="#DEE0E2"/>
</g>
<g id="stroke">
<path id="Vector_3" d="M22.8362 28.0625L15.9785 33.6569L22.8362 39.1611M35.2883 28.0625L42.146 33.6569L35.2883 39.1611M31.2279 25.3555L27.7088 41.8681" stroke="#4D535B" stroke-width="1.80466" stroke-miterlimit="10"/>
<path id="Vector_4" d="M50.2668 18.8588H7.85742M50.2668 10.377H7.85742V47.7333H50.2668V10.377Z" stroke="#4D535B" stroke-width="1.80466" stroke-miterlimit="10"/>
<path id="Vector_5" d="M44.9419 14.076C44.8199 14.0615 44.6962 14.0748 44.5801 14.1151C44.464 14.1553 44.3586 14.2213 44.2717 14.3082C44.1849 14.395 44.1188 14.5005 44.0786 14.6166C44.0384 14.7326 44.025 14.8563 44.0396 14.9783C44.0396 15.2176 44.1346 15.4471 44.3038 15.6164C44.4731 15.7856 44.7026 15.8807 44.9419 15.8807C45.1744 15.8603 45.3923 15.7587 45.5573 15.5937C45.7223 15.4287 45.8239 15.2108 45.8442 14.9783C45.8442 14.739 45.7491 14.5095 45.5799 14.3403C45.4107 14.1711 45.1812 14.076 44.9419 14.076ZM38.8963 14.076C38.7743 14.0615 38.6506 14.0748 38.5345 14.1151C38.4184 14.1553 38.313 14.2213 38.2261 14.3082C38.1393 14.395 38.0732 14.5005 38.033 14.6166C37.9928 14.7326 37.9795 14.8563 37.994 14.9783C37.994 15.2176 38.089 15.4471 38.2583 15.6164C38.4275 15.7856 38.657 15.8807 38.8963 15.8807C39.1288 15.8603 39.3467 15.7587 39.5117 15.5937C39.6767 15.4287 39.7783 15.2108 39.7986 14.9783C39.7986 14.739 39.7036 14.5095 39.5343 14.3403C39.3651 14.1711 39.1356 14.076 38.8963 14.076Z" stroke="#4D535B" stroke-width="1.80466" stroke-miterlimit="10"/>
</g>
<g id="flah" style="mix-blend-mode:darken">
<path d="M7.40625 10.1055H50.718V19.1287H7.40625V10.1055Z" fill="#562FB9"/>
</g>
</g>
</g>
</svg>
