<svg width="59" height="59" viewBox="0 0 59 59" fill="none" xmlns="http://www.w3.org/2000/svg">
<g id="programming.6ee5a90.svg">
<g id="Group">
<g id="white">
<path id="Vector" d="M7.70312 19.291H51.0149V48.1655H7.70312V19.291Z" fill="white"/>
<path id="Vector_2" d="M7.70312 19.291V21.998H47.4055V48.1655H51.0149V19.291H7.70312Z" fill="#DEE0E2"/>
</g>
<g id="stroke">
<path id="Vector_3" d="M23.1389 28.2246L16.2812 33.819L23.1389 39.3232M35.5911 28.2246L42.4488 33.819L35.5911 39.3232M31.5306 25.5176L28.0115 42.0302" stroke="#4D535B" stroke-width="1.80466" stroke-miterlimit="10"/>
<path id="Vector_4" d="M50.5657 19.0209H8.15625M50.5657 10.5391H8.15625V47.8954H50.5657V10.5391Z" stroke="#4D535B" stroke-width="1.80466" stroke-miterlimit="10"/>
<path id="Vector_5" d="M45.2427 14.2381C45.1207 14.2236 44.997 14.237 44.8809 14.2772C44.7648 14.3174 44.6594 14.3834 44.5725 14.4703C44.4856 14.5571 44.4196 14.6626 44.3794 14.7787C44.3392 14.8948 44.3258 15.0184 44.3403 15.1404C44.3403 15.3797 44.4354 15.6093 44.6046 15.7785C44.7738 15.9477 45.0034 16.0428 45.2427 16.0428C45.4752 16.0224 45.693 15.9208 45.8581 15.7558C46.0231 15.5908 46.1247 15.3729 46.145 15.1404C46.145 14.9011 46.0499 14.6716 45.8807 14.5024C45.7115 14.3332 45.482 14.2381 45.2427 14.2381ZM39.1971 14.2381C39.0751 14.2236 38.9514 14.237 38.8353 14.2772C38.7192 14.3174 38.6138 14.3834 38.5269 14.4703C38.44 14.5571 38.374 14.6626 38.3338 14.7787C38.2936 14.8948 38.2802 15.0184 38.2947 15.1404C38.2947 15.3797 38.3898 15.6093 38.559 15.7785C38.7283 15.9477 38.9578 16.0428 39.1971 16.0428C39.4296 16.0224 39.6474 15.9208 39.8125 15.7558C39.9775 15.5908 40.0791 15.3729 40.0994 15.1404C40.0994 14.9011 40.0043 14.6716 39.8351 14.5024C39.6659 14.3332 39.4364 14.2381 39.1971 14.2381Z" stroke="#4D535B" stroke-width="1.80466" stroke-miterlimit="10"/>
</g>
<g id="flah" style="mix-blend-mode:darken">
<path d="M7.70312 10.2676H51.0149V19.2909H7.70312V10.2676Z" fill="#121212"/>
</g>
</g>
</g>
</svg>
