<svg width="59" height="59" viewBox="0 0 59 59" fill="none" xmlns="http://www.w3.org/2000/svg">
<g id="video-animation.1356999.svg">
<g id="Group">
<path id="Vector" d="M14.3281 15.6758H45.0073V42.7456H14.3281V15.6758Z" fill="white"/>
<path id="Vector_2" d="M14.3281 15.6758V18.3828H43.2026V42.7456H45.0073V15.6758H14.3281Z" fill="#DEE0E2"/>
<path id="Vector_3" d="M8.01172 10.1719V48.2501M13.8768 10.1719V48.2501M8.19218 12.5179H13.6964M8.19218 18.1124H13.6964M8.19218 23.6166H13.6964M8.19218 29.211H13.6964M8.19218 34.8054H13.6964M8.19218 40.3096H13.6964M8.19218 45.9041H13.6964M45.4583 10.1719V48.2501M51.3235 10.1719V48.2501M45.6388 12.5179H51.143M45.6388 18.1124H51.143M45.6388 23.6166H51.143M45.6388 29.211H51.143M45.6388 34.8054H51.143M45.6388 40.3096H51.143M45.6388 45.9041H51.143M14.8694 42.4752H45.4583M14.8694 15.9468H45.4583M25.4266 21.9021C26.8768 21.0534 28.5464 20.6546 30.2235 20.7561C31.9007 20.8577 33.51 21.4551 34.8471 22.4726C36.1843 23.4901 37.1891 24.8818 37.7341 26.4712C38.2792 28.0606 38.3399 29.776 37.9085 31.4C37.4771 33.0239 36.5732 34.4832 35.3113 35.5926C34.0493 36.702 32.4863 37.4117 30.8205 37.6315C29.1547 37.8513 27.4611 37.5714 25.9546 36.8273C24.4481 36.0832 23.1966 34.9084 22.3587 33.4519C21.794 32.4941 21.4252 31.4337 21.2738 30.3321C21.1225 29.2306 21.1915 28.11 21.4769 27.0354C21.7624 25.9607 22.2586 24.9536 22.9366 24.0723C23.6146 23.1911 24.4611 22.4534 25.4266 21.9021Z" stroke="#4D535B" stroke-width="1.80466" stroke-miterlimit="10"/>
<path id="Vector_4" d="M27.2305 25.5117V33.4522L30.7495 31.4671L34.1784 29.482L30.7495 27.4968L27.2305 25.5117Z" fill="#4D535B"/>
<g id="Vector_5" style="mix-blend-mode:darken">
<path d="M8.01172 12.9688H13.4257V45.4525H8.01172V12.9688ZM45.9095 12.9688H51.3235V45.4525H45.9095V12.9688Z" fill="#562FB9"/>
</g>
</g>
</g>
</svg>
