<svg width="58" height="59" viewBox="0 0 58 59" fill="none" xmlns="http://www.w3.org/2000/svg">
<g id="video-animation.1356999.svg">
<g id="Group">
<path id="Vector" d="M13.625 15.8379H44.3041V42.9077H13.625V15.8379Z" fill="white"/>
<path id="Vector_2" d="M13.625 15.8379V18.5449H42.4995V42.9077H44.3041V15.8379H13.625Z" fill="#DEE0E2"/>
<path id="Vector_3" d="M7.30469 10.334V48.4122M13.1698 10.334V48.4122M7.48515 12.68H12.9894M7.48515 18.2745H12.9894M7.48515 23.7787H12.9894M7.48515 29.3731H12.9894M7.48515 34.9675H12.9894M7.48515 40.4717H12.9894M7.48515 46.0662H12.9894M44.7513 10.334V48.4122M50.6164 10.334V48.4122M44.9318 12.68H50.436M44.9318 18.2745H50.436M44.9318 23.7787H50.436M44.9318 29.3731H50.436M44.9318 34.9675H50.436M44.9318 40.4717H50.436M44.9318 46.0662H50.436M14.1624 42.6373H44.7513M14.1624 16.1089H44.7513M24.7196 22.0642C26.1698 21.2155 27.8393 20.8167 29.5165 20.9182C31.1937 21.0198 32.8029 21.6172 34.1401 22.6347C35.4772 23.6522 36.4821 25.0439 37.0271 26.6333C37.5721 28.2227 37.6328 29.9382 37.2015 31.5621C36.7701 33.186 35.8661 34.6453 34.6042 35.7547C33.3423 36.8641 31.7793 37.5738 30.1135 37.7936C28.4477 38.0134 26.7541 37.7335 25.2476 36.9894C23.7411 36.2453 22.4895 35.0705 21.6517 33.614C21.087 32.6563 20.7182 31.5958 20.5668 30.4943C20.4154 29.3927 20.4845 28.2721 20.7699 27.1975C21.0554 26.1228 21.5515 25.1157 22.2296 24.2344C22.9076 23.3532 23.754 22.6155 24.7196 22.0642Z" stroke="#4D535B" stroke-width="1.80466" stroke-miterlimit="10"/>
<path id="Vector_4" d="M26.5234 25.6738V33.6143L30.0425 31.6292L33.4714 29.6441L30.0425 27.6589L26.5234 25.6738Z" fill="#4D535B"/>
<g id="Vector_5" style="mix-blend-mode:darken">
<path d="M7.30469 13.1309H12.7187V45.6147H7.30469V13.1309ZM45.2025 13.1309H50.6164V45.6147H45.2025V13.1309Z" fill="#121212"/>
</g>
</g>
</g>
</svg>
