<svg width="59" height="59" viewBox="0 0 59 59" fill="none" xmlns="http://www.w3.org/2000/svg">
<g id="writing-translation.a787f2f.svg">
<g id="Group">
<g id="white">
<path id="Vector" d="M36.7265 10.082H12.8148C12.4319 10.082 12.0647 10.2341 11.794 10.5049C11.5232 10.7756 11.3711 11.1429 11.3711 11.5258V47.0775C11.3711 47.4604 11.5232 47.8276 11.794 48.0983C12.0647 48.3691 12.4319 48.5212 12.8148 48.5212H36.7265C37.1094 48.5212 37.4766 48.3691 37.7474 48.0983C38.0181 47.8276 38.1702 47.4604 38.1702 47.0775V11.5258C38.1702 11.1429 38.0181 10.7756 37.7474 10.5049C37.4766 10.2341 37.1094 10.082 36.7265 10.082Z" fill="white"/>
<path id="Vector_2" d="M36.7265 10.082H12.8148C12.4319 10.082 12.0647 10.2341 11.794 10.5049C11.5232 10.7756 11.3711 11.1429 11.3711 11.5258V12.789H34.0195C34.4024 12.789 34.7696 12.9411 35.0404 13.2119C35.3111 13.4826 35.4632 13.8498 35.4632 14.2327V48.5212H36.7265C37.1094 48.5212 37.4766 48.3691 37.7474 48.0983C38.0181 47.8276 38.1702 47.4604 38.1702 47.0775V11.5258C38.1702 11.1429 38.0181 10.7756 37.7474 10.5049C37.4766 10.2341 37.1094 10.082 36.7265 10.082Z" fill="#DEE0E2"/>
</g>
<g id="flah">
<g id="Vector_3" style="mix-blend-mode:darken">
<path d="M43.3125 14.7734H47.8241V43.9186C47.8241 44.1201 47.7845 44.3195 47.7074 44.5056C47.6303 44.6918 47.5173 44.8609 47.3749 45.0033C47.2324 45.1457 47.0633 45.2587 46.8772 45.3358C46.6911 45.4129 46.4916 45.4526 46.2902 45.4526C45.5005 45.4526 44.7431 45.1389 44.1846 44.5804C43.6262 44.022 43.3125 43.2646 43.3125 42.4749V14.7734Z" fill="#562FB9"/>
</g>
<path id="Vector_4" d="M36.7265 10.082H12.8148C12.4319 10.082 12.0647 10.2341 11.794 10.5049C11.5232 10.7756 11.3711 11.1429 11.3711 11.5258V47.0775C11.3711 47.4604 11.5232 47.8276 11.794 48.0983C12.0647 48.3691 12.4319 48.5212 12.8148 48.5212H36.7265C37.1094 48.5212 37.4766 48.3691 37.7474 48.0983C38.0181 47.8276 38.1702 47.4604 38.1702 47.0775V11.5258C38.1702 11.1429 38.0181 10.7756 37.7474 10.5049C37.4766 10.2341 37.1094 10.082 36.7265 10.082ZM43.2233 14.8644H48.3665V41.6635C48.3665 46.9872 43.2233 46.9872 43.2233 41.6635V14.8644Z" stroke="#4D535B" stroke-width="1.80466" stroke-miterlimit="10"/>
<path id="Vector_5" d="M51.7056 29.1209L51.7959 19.1051H43.2238M45.7503 48.5209V45.6335M17.1465 17.8418H24.726M17.1465 24.9702H32.3958M17.1465 29.2111H32.3958M17.1465 33.3618H32.3958M17.1465 37.6028H24.726" stroke="#4D535B" stroke-width="1.80466" stroke-miterlimit="10"/>
</g>
</g>
</g>
</svg>
