<svg width="58" height="59" viewBox="0 0 58 59" fill="none" xmlns="http://www.w3.org/2000/svg">
<g id="writing-translation.a787f2f.svg">
<g id="Group">
<g id="white">
<path id="Vector" d="M36.0195 10.2441H12.1078C11.7249 10.2441 11.3577 10.3962 11.0869 10.667C10.8162 10.9377 10.6641 11.305 10.6641 11.6879V47.2396C10.6641 47.6225 10.8162 47.9897 11.0869 48.2604C11.3577 48.5312 11.7249 48.6833 12.1078 48.6833H36.0195C36.4024 48.6833 36.7696 48.5312 37.0403 48.2604C37.3111 47.9897 37.4632 47.6225 37.4632 47.2396V11.6879C37.4632 11.305 37.3111 10.9377 37.0403 10.667C36.7696 10.3962 36.4024 10.2441 36.0195 10.2441Z" fill="white"/>
<path id="Vector_2" d="M36.0195 10.2441H12.1078C11.7249 10.2441 11.3577 10.3962 11.0869 10.667C10.8162 10.9377 10.6641 11.305 10.6641 11.6879V12.9511H33.3125C33.6954 12.9511 34.0626 13.1032 34.3334 13.374C34.6041 13.6447 34.7562 14.0119 34.7562 14.3948V48.6833H36.0195C36.4024 48.6833 36.7696 48.5312 37.0403 48.2604C37.3111 47.9897 37.4632 47.6225 37.4632 47.2396V11.6879C37.4632 11.305 37.3111 10.9377 37.0403 10.667C36.7696 10.3962 36.4024 10.2441 36.0195 10.2441Z" fill="#DEE0E2"/>
</g>
<g id="flah">
<g id="Vector_3" style="mix-blend-mode:darken">
<path d="M42.6094 14.9355H47.121V44.0807C47.121 44.2822 47.0813 44.4816 47.0042 44.6678C46.9272 44.8539 46.8142 45.023 46.6717 45.1654C46.5293 45.3078 46.3602 45.4208 46.1741 45.4979C45.988 45.575 45.7885 45.6147 45.5871 45.6147C44.7973 45.6147 44.0399 45.301 43.4815 44.7425C42.9231 44.1841 42.6094 43.4267 42.6094 42.637V14.9355Z" fill="#121212"/>
</g>
<path id="Vector_4" d="M36.0195 10.2441H12.1078C11.7249 10.2441 11.3577 10.3962 11.0869 10.667C10.8162 10.9377 10.6641 11.305 10.6641 11.6879V47.2396C10.6641 47.6225 10.8162 47.9897 11.0869 48.2604C11.3577 48.5312 11.7249 48.6833 12.1078 48.6833H36.0195C36.4024 48.6833 36.7696 48.5312 37.0403 48.2604C37.3111 47.9897 37.4632 47.6225 37.4632 47.2396V11.6879C37.4632 11.305 37.3111 10.9377 37.0403 10.667C36.7696 10.3962 36.4024 10.2441 36.0195 10.2441ZM42.5162 15.0265H47.6595V41.8256C47.6595 47.1493 42.5162 47.1493 42.5162 41.8256V15.0265Z" stroke="#4D535B" stroke-width="1.80466" stroke-miterlimit="10"/>
<path id="Vector_5" d="M50.9966 29.283L51.0869 19.2672H42.5148M45.0413 48.6831V45.7956M16.4375 18.0039H24.0171M16.4375 25.1323H31.6868M16.4375 29.3732H31.6868M16.4375 33.5239H31.6868M16.4375 37.7649H24.0171" stroke="#4D535B" stroke-width="1.80466" stroke-miterlimit="10"/>
</g>
</g>
</g>
</svg>
