<svg width="80" height="63" viewBox="0 0 80 63" fill="none" xmlns="http://www.w3.org/2000/svg">
<g clip-path="url(#clip0_2756_21658)">
<g clip-path="url(#clip1_2756_21658)">
<path d="M78.8308 20.7589L60.9411 2.86925C60.1957 2.12385 59.3012 1.82569 58.4068 1.97477H57.9595C57.2141 2.12385 56.6178 2.42201 56.1705 2.86925L26.0563 32.8344C25.4599 33.4308 25.1618 34.0271 25.1618 34.7725C25.0127 35.8161 25.3109 36.8596 26.0563 37.605L43.9459 55.4947C44.5422 56.091 45.4367 56.5383 46.3312 56.5383C47.2257 56.5383 48.1202 56.2401 48.7165 55.4947L78.8308 25.5295C79.4271 24.9332 79.8744 24.0387 79.8744 23.1442C79.8744 22.2497 79.5762 21.3552 78.8308 20.7589ZM56.0215 7.19259L51.4 28.0639L30.5287 32.8344L56.0215 7.19259ZM76.7437 23.4424L46.6294 53.4076C46.3312 53.7057 46.1821 53.7057 46.033 53.4076L28.5906 36.1142L52.7417 30.5982C53.338 30.4492 53.7853 30.0019 53.7853 29.5547L59.1522 5.5527L76.7437 22.8461C76.8927 22.9951 76.8927 23.1442 76.8927 23.1442C76.8927 23.2933 76.8927 23.4424 76.7437 23.4424ZM24.4164 42.8228C23.82 42.2265 22.9256 42.2265 22.3292 42.8228L7.12302 57.88C6.5267 58.4763 6.5267 59.3708 7.12302 59.9671C7.42118 60.2653 7.71934 60.4144 8.16658 60.4144C8.61382 60.4144 8.91198 60.2653 9.21014 59.9671L24.4164 44.91C25.0127 44.3137 25.0127 43.4192 24.4164 42.8228ZM30.8268 49.2333C30.2305 48.637 29.336 48.637 28.7397 49.2333L18.6022 59.3708C18.0059 59.9671 18.0059 60.8616 18.6022 61.4579C18.9004 61.7561 19.1986 61.9052 19.6458 61.9052C20.093 61.9052 20.3912 61.7561 20.6893 61.4579L30.8268 51.3204C31.4232 50.7241 31.4232 49.8296 30.8268 49.2333ZM35.1502 55.4947L30.0814 60.5634C29.4851 61.1598 29.4851 62.0542 30.0814 62.6506C30.3796 62.9487 30.6777 63.0978 31.125 63.0978C31.5722 63.0978 31.8704 62.9487 32.1686 62.6506L37.2373 57.5818C37.8336 56.9855 37.8336 56.091 37.2373 55.4947C36.641 54.8984 35.7465 54.8984 35.1502 55.4947Z" fill="white"/>
</g>
</g>
<defs>
<clipPath id="clip0_2756_21658">
<rect width="79.6994" height="62.2652" fill="white" transform="translate(0.09375 0.333984)"/>
</clipPath>
<clipPath id="clip1_2756_21658">
<rect width="521.782" height="74.5403" fill="white" transform="translate(-366.027 0.333984)"/>
</clipPath>
</defs>
</svg>
