<svg width="44" height="44" viewBox="0 0 44 44" fill="none" xmlns="http://www.w3.org/2000/svg">
<g clip-path="url(#clip0_2756_22884)">
<path d="M21.912 10.3809C18.4651 10.3813 15.0498 11.8628 15.4088 14.8231L16.2888 21.2577C16.4433 22.3898 17.2084 24.2004 18.3511 24.2004H18.4325L19.3684 34.994C19.4089 35.4798 19.7609 35.874 20.2484 35.874H23.7684C24.2559 35.874 24.6079 35.4798 24.6484 34.994L25.5843 24.2004H25.6661C26.8088 24.2004 27.5735 22.3898 27.7284 21.2581L28.6084 14.8227C28.839 11.8601 25.3594 10.38 21.912 10.3809Z" fill="#FF6250"/>
<path d="M22.0094 22.3994L21.9883 22.4549C21.9953 22.4381 22.0002 22.421 22.0072 22.4043L22.0094 22.3994Z" fill="#FF6250"/>
<path d="M21.9989 9.24C24.5505 9.24 26.6189 7.17156 26.6189 4.62C26.6189 2.06844 24.5505 0 21.9989 0C19.4474 0 17.3789 2.06844 17.3789 4.62C17.3789 7.17156 19.4474 9.24 21.9989 9.24Z" fill="#FF6250"/>
<path d="M26.8057 30.4004C26.7683 30.8281 26.7287 31.2549 26.6913 31.6825C30.6302 32.2387 33.55 33.5006 33.88 35.0617C34.3715 37.3832 26.7775 38.4277 21.8856 38.3789C16.9937 38.3296 9.53964 37.3832 10.1913 35.0613C10.619 33.5376 13.4966 32.3007 17.3325 31.7248C17.2942 31.2958 17.2506 30.8668 17.2137 30.4382C12.283 30.9821 8.1752 32.321 6.534 34.0665H0.98076L0 36.1006H5.79304C6.24316 38.4942 11.2609 40.5604 18.436 41.0823L18.1905 43.9999H25.2921L25.2208 41.0827C32.4324 40.5604 37.5923 38.4942 38.207 36.1006H44L43.1596 34.0665H37.6064C36.0474 32.277 31.8652 30.9161 26.8057 30.4004Z" fill="#FF6250"/>
</g>
<defs>
<clipPath id="clip0_2756_22884">
<rect width="44" height="44" fill="white"/>
</clipPath>
</defs>
</svg>
