<svg width="63" height="63" viewBox="0 0 63 63" fill="none" xmlns="http://www.w3.org/2000/svg">
<g clip-path="url(#clip0_2756_21680)">
<g clip-path="url(#clip1_2756_21680)">
<path d="M24.1832 15.4022H39.874C42.4891 15.4022 44.6061 13.2851 44.6061 10.67V10.4209C44.6061 7.8058 42.4891 5.68879 39.874 5.68879H37.6324V5.06614C37.6324 2.451 35.5154 0.333984 32.9003 0.333984H31.1569C28.5417 0.333984 26.4247 2.451 26.4247 5.06614V5.56426H24.3077C21.6926 5.56426 19.5755 7.68127 19.5755 10.2964V10.5455C19.451 13.2851 21.568 15.4022 24.1832 15.4022ZM21.8171 10.4209C21.8171 9.17564 22.8133 8.05486 24.1832 8.05486H27.5455C28.1681 8.05486 28.7908 7.55674 28.7908 6.80956V5.06614C28.7908 3.82083 29.787 2.70006 31.1569 2.70006H32.9003C34.1456 2.70006 35.2664 3.6963 35.2664 5.06614V6.80956C35.2664 7.43221 35.7645 8.05486 36.5117 8.05486H39.874C41.1193 8.05486 42.2401 9.05111 42.2401 10.4209V10.67C42.2401 11.9153 41.2438 13.0361 39.874 13.0361H24.1832C22.9379 13.0361 21.8171 12.0398 21.8171 10.67V10.4209Z" fill="white"/>
<path d="M52.5747 7.05812H46.9708C46.3482 7.05812 45.7255 7.55625 45.7255 8.30343C45.7255 8.92608 46.2236 9.54873 46.9708 9.54873H51.3294V58.8627H12.6005V9.4242H16.959C17.5817 9.4242 18.2043 8.92608 18.2043 8.1789C18.2043 7.55625 17.7062 6.93359 16.959 6.93359H11.4797C10.857 6.93359 10.2344 7.43172 10.2344 8.1789V60.108C10.2344 60.7307 10.7325 61.3533 11.4797 61.3533H52.5747C53.1973 61.3533 53.82 60.8552 53.82 60.108V8.1789C53.82 7.55625 53.3219 7.05812 52.5747 7.05812Z" fill="white"/>
<path d="M42.4879 26.1115L27.5442 44.542L22.3139 38.6891C21.8158 38.191 21.0686 38.191 20.5705 38.5646C20.0724 39.0627 20.0724 39.8099 20.446 40.308L26.548 47.1572C26.797 47.4062 27.0461 47.5308 27.4197 47.5308C27.7933 47.5308 28.0423 47.4062 28.2914 47.0326L44.3558 27.7304C44.7294 27.2323 44.7294 26.4851 44.2313 25.987C43.6086 25.6134 42.8614 25.6134 42.4879 26.1115Z" fill="white"/>
</g>
</g>
<defs>
<clipPath id="clip0_2756_21680">
<rect width="62.2652" height="62.2652" fill="white" transform="translate(0.269531 0.333984)"/>
</clipPath>
<clipPath id="clip1_2756_21680">
<rect width="435.856" height="62.2652" fill="white" transform="translate(0.269531 0.333984)"/>
</clipPath>
</defs>
</svg>
