<svg width="44" height="44" viewBox="0 0 44 44" fill="none" xmlns="http://www.w3.org/2000/svg">
<path fill-rule="evenodd" clip-rule="evenodd" d="M21.0846 5.5C22.8869 5.50014 24.6395 6.09016 26.0749 7.17996C27.5103 8.26975 28.5496 9.79942 29.034 11.5353L29.1293 11.9112L32.5576 11.055C32.8082 10.9926 33.0692 10.9839 33.3233 11.0294C33.5775 11.0749 33.8193 11.1735 34.0327 11.3189C34.2461 11.4643 34.4264 11.6531 34.5617 11.873C34.6971 12.093 34.7845 12.339 34.8181 12.595L34.8346 12.8333V16.1517C35.8682 17.1426 36.7152 18.3113 37.3353 19.602L37.5883 20.1667H38.5013C38.9503 20.1667 39.3838 20.3316 39.7193 20.63C40.0549 20.9284 40.2693 21.3395 40.3218 21.7855L40.3346 22V27.5C40.3347 27.8018 40.2602 28.0989 40.1179 28.3649C39.9756 28.631 39.7698 28.8579 39.5188 29.0253L39.3208 29.139L37.1795 30.2115C36.3028 31.9075 35.033 33.369 33.4761 34.474L33.0013 34.793V36.6667C33.0012 37.1157 32.8364 37.5491 32.538 37.8847C32.2396 38.2202 31.8284 38.4346 31.3825 38.4872L31.168 38.5H25.668C25.2189 38.4999 24.7855 38.3351 24.45 38.0367C24.1144 37.7383 23.9 37.3271 23.8475 36.8812L23.8346 36.6667H22.0013C22.0012 37.1157 21.8364 37.5491 21.538 37.8847C21.2396 38.2202 20.8284 38.4346 20.3825 38.4872L20.168 38.5H14.668C14.2189 38.4999 13.7855 38.3351 13.45 38.0367C13.1144 37.7383 12.9 37.3271 12.8475 36.8812L12.8346 36.6667V34.793C11.5102 33.9463 10.3661 32.8461 9.46821 31.5559C8.57028 30.2656 7.93616 28.8106 7.6023 27.2745C6.52124 26.9528 5.56513 26.3066 4.8634 25.4235C4.16167 24.5405 3.7482 23.4631 3.67897 22.3373L3.66797 22V21.0833C3.66849 20.6161 3.84741 20.1666 4.16819 19.8268C4.48897 19.487 4.92738 19.2826 5.39386 19.2552C5.86034 19.2278 6.31966 19.3796 6.678 19.6795C7.03633 19.9794 7.26661 20.4048 7.3218 20.8688L7.33464 21.0833V22C7.33464 22.2713 7.3933 22.5298 7.49964 22.7608C7.77947 21.1103 8.40371 19.5372 9.33174 18.1439C10.2598 16.7506 11.4708 15.5683 12.886 14.674C12.7559 13.5199 12.871 12.3513 13.2236 11.2447C13.5763 10.1382 14.1587 9.11853 14.9326 8.25254C15.7065 7.38655 16.6546 6.69372 17.7147 6.21939C18.7749 5.74506 19.9232 5.49992 21.0846 5.5ZM29.3346 20.1667C28.8484 20.1667 28.3821 20.3598 28.0383 20.7036C27.6945 21.0475 27.5013 21.5138 27.5013 22C27.5013 22.4862 27.6945 22.9525 28.0383 23.2964C28.3821 23.6402 28.8484 23.8333 29.3346 23.8333C29.8209 23.8333 30.2872 23.6402 30.631 23.2964C30.9748 22.9525 31.168 22.4862 31.168 22C31.168 21.5138 30.9748 21.0475 30.631 20.7036C30.2872 20.3598 29.8209 20.1667 29.3346 20.1667ZM21.0846 9.16667C19.9742 9.16666 18.9015 9.56982 18.0659 10.3012C17.2303 11.0326 16.6887 12.0425 16.5416 13.1432C17.4301 12.9368 18.3392 12.8329 19.2513 12.8333H25.4425L25.5708 12.8022C25.3534 11.7736 24.789 10.851 23.9722 10.1891C23.1554 9.52722 22.1359 9.16623 21.0846 9.16667Z" fill="#009379"/>
</svg>
