<svg width="63" height="63" viewBox="0 0 63 63" fill="none" xmlns="http://www.w3.org/2000/svg">
<g clip-path="url(#clip0_2756_21636)">
<g clip-path="url(#clip1_2756_21636)">
<path d="M-0.8913 30.9688H-2.88379C-3.50644 30.9688 -4.1291 31.4669 -4.1291 32.2141C-4.1291 32.8367 -3.63097 33.4594 -2.88379 33.4594H-2.1366V38.4406C-4.00456 38.1915 -5.74798 36.8217 -6.49516 34.8292C-6.74422 34.2065 -7.49141 33.9575 -8.11406 34.2065C-8.73671 34.4556 -8.98577 35.2028 -8.73671 35.8254C-7.49141 38.6896 -5.0008 40.5576 -2.1366 40.9312V51.5163C-5.87251 51.8898 -8.98576 55.0031 -9.48388 58.9881H-38.7485C-39.2466 55.1276 -42.3599 52.1389 -46.2203 51.5163V46.535C-46.2203 45.9124 -46.7185 45.2897 -47.4656 45.2897C-48.0883 45.2897 -48.7109 45.7879 -48.7109 46.535V60.2334C-48.7109 60.856 -48.2128 61.4787 -47.4656 61.4787H-0.8913C-0.268646 61.4787 0.354004 60.9806 0.354004 60.2334V32.2141C0.354004 31.5914 -0.144119 30.9688 -0.8913 30.9688ZM-46.0958 54.0069C-43.6052 54.505 -41.6127 56.4975 -41.1146 58.9881H-46.0958V54.0069ZM-6.99328 58.9881C-6.49516 56.3729 -4.62721 54.3804 -2.1366 54.0069V58.9881H-6.99328Z" fill="white"/>
<path d="M55.3909 9.79829L46.9228 1.33023C46.3002 0.707575 45.553 0.333984 44.6813 0.333984H11.0581C9.31468 0.333984 7.82031 1.82835 7.82031 3.57177V58.1161C7.82031 59.8595 9.31468 61.3538 11.0581 61.3538H53.1493C54.8928 61.3538 56.3871 59.8595 56.3871 58.1161V12.0398C56.3871 11.2927 56.0135 10.4209 55.3909 9.79829ZM53.0248 10.9191H45.8021V3.82083L53.0248 10.9191ZM53.1493 58.9878H11.0581C10.56 58.9878 10.3109 58.6142 10.3109 58.1161V3.6963C10.3109 3.19818 10.6845 2.82459 11.0581 2.82459H43.436V12.0398C43.436 12.6625 43.9341 13.2851 44.6813 13.2851H54.0211V58.1161C53.8965 58.6142 53.6475 58.9878 53.1493 58.9878Z" fill="white"/>
<path d="M47.4202 50.3961H17.1594C16.5367 50.3961 15.9141 50.8942 15.9141 51.6414C15.9141 52.3886 16.4122 52.8867 17.1594 52.8867H47.4202C48.0429 52.8867 48.6655 52.3886 48.6655 51.6414C48.6655 50.8942 48.0429 50.3961 47.4202 50.3961ZM47.4202 41.928H17.1594C16.5367 41.928 15.9141 42.4261 15.9141 43.1733C15.9141 43.796 16.4122 44.4186 17.1594 44.4186H47.4202C48.0429 44.4186 48.6655 43.9205 48.6655 43.1733C48.6655 42.4261 48.0429 41.928 47.4202 41.928ZM17.1594 35.826H25.5029C26.1255 35.826 26.7482 35.3279 26.7482 34.5807C26.7482 33.9581 26.2501 33.3354 25.5029 33.3354H17.1594C16.5367 33.3354 15.9141 33.8335 15.9141 34.5807C15.9141 35.2034 16.4122 35.826 17.1594 35.826ZM17.1594 28.1052H25.5029C26.1255 28.1052 26.7482 27.607 26.7482 26.8598C26.7482 26.2372 26.2501 25.6145 25.5029 25.6145H17.1594C16.5367 25.6145 15.9141 26.1127 15.9141 26.8598C15.9141 27.607 16.4122 28.1052 17.1594 28.1052ZM17.1594 19.6371H25.5029C26.1255 19.6371 26.7482 19.139 26.7482 18.3918C26.7482 17.7691 26.2501 17.1465 25.5029 17.1465H17.1594C16.5367 17.1465 15.9141 17.6446 15.9141 18.3918C15.9141 19.0144 16.4122 19.6371 17.1594 19.6371ZM48.9146 18.0182V17.8937C48.9146 17.8937 48.9146 17.7691 48.7901 17.7691C48.7901 17.6446 48.6655 17.5201 48.541 17.5201C48.541 17.5201 48.4165 17.5201 48.4165 17.3955C48.292 17.3955 48.2919 17.271 48.1674 17.271H32.103C31.9785 17.271 31.9785 17.3955 31.8539 17.3955C31.8539 17.3955 31.7294 17.3955 31.7294 17.5201L31.4804 17.7691C31.4804 17.7691 31.4803 17.8937 31.3558 17.8937V18.0182C31.3558 18.1427 31.2313 18.2673 31.2313 18.3918V34.5807C31.2313 34.7053 31.2313 34.8298 31.3558 34.9543V35.0789C31.3558 35.0789 31.3558 35.2034 31.4804 35.2034C31.4804 35.3279 31.6049 35.4524 31.7294 35.4524L31.8539 35.577C31.9785 35.577 31.9785 35.7015 32.103 35.7015C32.2275 35.7015 32.3521 35.826 32.6011 35.826H47.6693C47.7938 35.826 48.0429 35.826 48.1674 35.7015C48.2919 35.7015 48.292 35.577 48.4165 35.577L48.541 35.4524L48.7901 35.2034C48.7901 35.2034 48.7901 35.0789 48.9146 35.0789V34.9543C48.9146 34.8298 49.0391 34.7053 49.0391 34.5807V18.3918C48.9146 18.2673 48.9146 18.1427 48.9146 18.0182ZM40.0729 24.7428L35.2163 19.6371H44.8051L40.0729 24.7428ZM38.3295 26.4863L33.5974 31.4675V21.3805L38.3295 26.4863ZM40.0729 28.2297L44.9296 33.3354H35.2163L40.0729 28.2297ZM41.6918 26.4863L46.424 21.505V31.592L41.6918 26.4863Z" fill="white"/>
<path d="M122.886 17.3958L107.942 2.45214C107.32 1.82949 106.572 1.58043 105.825 1.70496H105.452C104.829 1.82949 104.331 2.07855 103.957 2.45214L78.8022 27.4827C78.3041 27.9809 78.055 28.479 78.055 29.1016C77.9305 29.9733 78.1796 30.8451 78.8022 31.4677L93.7459 46.4113C94.244 46.9095 94.9912 47.2831 95.7383 47.2831C96.4855 47.2831 97.2327 47.034 97.7308 46.4113L122.886 21.3808C123.384 20.8826 123.758 20.1355 123.758 19.3883C123.758 18.6411 123.509 17.8939 122.886 17.3958ZM103.833 6.06352L99.9724 23.4978L82.5381 27.4827L103.833 6.06352ZM121.143 19.6373L95.9874 44.6679C95.7383 44.917 95.6138 44.917 95.4893 44.6679L80.9193 30.2224L101.093 25.6148C101.591 25.4903 101.965 25.1167 101.965 24.7431L106.448 4.69369L121.143 19.1392C121.267 19.2637 121.267 19.3883 121.267 19.3883C121.267 19.5128 121.267 19.6373 121.143 19.6373ZM77.4324 35.8263C76.9343 35.3281 76.1871 35.3281 75.689 35.8263L62.9869 48.4038C62.4888 48.902 62.4888 49.6491 62.9869 50.1473C63.2359 50.3963 63.485 50.5208 63.8586 50.5208C64.2322 50.5208 64.4812 50.3963 64.7303 50.1473L77.4324 37.5697C77.9305 37.0716 77.9305 36.3244 77.4324 35.8263ZM82.7872 41.1811C82.2891 40.683 81.5419 40.683 81.0438 41.1811L72.5757 49.6491C72.0776 50.1473 72.0776 50.8944 72.5757 51.3926C72.8248 51.6416 73.0738 51.7662 73.4474 51.7662C73.821 51.7662 74.0701 51.6416 74.3191 51.3926L82.7872 42.9245C83.2853 42.4264 83.2853 41.6792 82.7872 41.1811ZM86.3986 46.4113L82.1646 50.6454C81.6664 51.1435 81.6664 51.8907 82.1646 52.3888C82.4136 52.6379 82.6627 52.7624 83.0362 52.7624C83.4098 52.7624 83.6589 52.6379 83.908 52.3888L88.142 48.1548C88.6401 47.6567 88.6401 46.9095 88.142 46.4113C87.6439 45.9132 86.8967 45.9132 86.3986 46.4113Z" fill="white"/>
</g>
</g>
<defs>
<clipPath id="clip0_2756_21636">
<rect width="62.2652" height="62.2652" fill="white" transform="translate(0.347656 0.333984)"/>
</clipPath>
<clipPath id="clip1_2756_21636">
<rect width="435.856" height="62.2652" fill="white" transform="translate(-248.711 0.333984)"/>
</clipPath>
</defs>
</svg>
