<svg width="42" height="43" viewBox="0 0 42 43" fill="none" xmlns="http://www.w3.org/2000/svg">
<path fill-rule="evenodd" clip-rule="evenodd" d="M20.6332 4.82032C17.2463 4.82043 13.9667 6.00853 11.3656 8.1777C8.76452 10.3469 7.00669 13.3597 6.39824 16.6915H17.6189C17.9682 14.7978 18.9698 13.0862 20.4499 11.8543C21.9299 10.6224 23.7948 9.94794 25.7205 9.94813H31.6822C30.3252 8.33959 28.6329 7.04718 26.7239 6.1614C24.8149 5.27563 22.7377 4.81792 20.6332 4.82032ZM12.8056 31.4554C10.8228 30.1806 9.18186 28.4404 8.02563 26.3863C6.86939 24.3321 6.23299 22.0264 6.17188 19.67H17.6189C17.9677 21.5642 18.9691 23.2762 20.4492 24.5086C21.9293 25.741 23.7945 26.4158 25.7205 26.4157H35.1016V29.2441C35.101 30.147 34.742 31.0127 34.1036 31.6512C33.4651 32.2896 32.5994 32.6485 31.6965 32.6492H28.4631V36.9883C28.4631 37.3043 28.3375 37.6073 28.1141 37.8307C27.8907 38.0542 27.5876 38.1797 27.2717 38.1797H13.997C13.681 38.1797 13.378 38.0542 13.1546 37.8307C12.9311 37.6073 12.8056 37.3043 12.8056 36.9883V31.4554ZM35.073 23.4372H35.9522C36.5842 23.4372 37.1903 23.1862 37.6371 22.7393C38.084 22.2925 38.3351 21.6864 38.3351 21.0544V15.3071C38.3351 14.6751 38.084 14.069 37.6371 13.6222C37.1903 13.1753 36.5842 12.9243 35.9522 12.9243H29.8665V23.4372H35.073ZM26.888 23.4372V12.9243H25.7205C24.3264 12.9243 22.9893 13.4781 22.0036 14.4639C21.0178 15.4496 20.464 16.7866 20.464 18.1807C20.464 19.5748 21.0178 20.9119 22.0036 21.8976C22.9893 22.8834 24.3264 23.4372 25.7205 23.4372H26.888Z" fill="#F8D57E"/>
</svg>
