<svg width="84" height="84" viewBox="0 0 84 84" fill="none" xmlns="http://www.w3.org/2000/svg">
<path d="M61.696 34.3664C63.0283 33.3682 63.9671 31.9333 64.3482 30.3128C64.7293 28.6924 64.5285 26.9895 63.7808 25.5021C63.0331 24.0148 61.7863 22.8377 60.2583 22.1769C58.7304 21.516 57.0188 21.4135 55.4229 21.8873L48.739 8.59011C48.651 8.4149 48.5232 8.26269 48.3659 8.1456C48.2086 8.02851 48.0261 7.94977 47.833 7.91567C47.6399 7.88157 47.4415 7.89304 47.2536 7.94917C47.0657 8.00531 46.8935 8.10455 46.7508 8.23899L22.5924 30.9593L8.56521 38.0094C6.86944 38.8646 5.58215 40.3575 4.98578 42.1606C4.38941 43.9637 4.53267 45.9298 5.38413 47.6274L11.186 59.169C11.6074 60.0104 12.1906 60.7604 12.9023 61.376C13.614 61.9915 14.4403 62.4606 15.3336 62.7563C16.2269 63.0519 17.1698 63.1684 18.1083 63.099C19.0467 63.0296 19.9622 62.7757 20.8023 62.3518L21.5071 61.9973L25.8776 70.6947C26.5324 72.0014 27.5009 73.1254 28.6965 73.9661C29.8921 74.8068 31.2775 75.338 32.7286 75.5121L37.5267 76.0925C37.5772 76.0982 37.628 76.101 37.6788 76.1009C37.9194 76.101 38.1551 76.0321 38.3578 75.9024C38.5606 75.7728 38.7219 75.5877 38.8228 75.3693L40.6398 71.4305C40.769 71.1494 40.7903 70.8305 40.6997 70.5347C40.6091 70.2389 40.4129 69.9867 40.1484 69.8261L36.3768 67.5413C35.9087 67.257 35.5423 66.8323 35.3296 66.3277C35.117 65.8231 35.069 65.2642 35.1924 64.7307L35.9139 61.6202C35.9542 61.4462 35.957 61.2656 35.9222 61.0905C35.8873 60.9153 35.8157 60.7496 35.712 60.6042C35.6082 60.4589 35.4748 60.3372 35.3205 60.2474C35.1662 60.1575 34.9945 60.1015 34.8169 60.083L30.8084 59.6655L29.8676 57.7956L34.8295 55.3008L67.4761 49.4696C67.6692 49.4352 67.8516 49.3561 68.0088 49.2387C68.166 49.1213 68.2935 48.9689 68.3813 48.7934C68.4691 48.618 68.5147 48.4245 68.5145 48.2283C68.5142 48.0322 68.4682 47.8388 68.3799 47.6636L61.696 34.3664ZM61.5297 26.6299C61.976 27.5207 62.1206 28.5324 61.9418 29.5125C61.763 30.4926 61.2705 31.3881 60.5385 32.0639L56.5804 24.1898C57.5584 24.0051 58.5699 24.1433 59.4626 24.5834C60.3552 25.0235 61.0807 25.7418 61.5297 26.6299ZM30.6471 49.378L23.2341 53.1042L23.13 53.0698L22.3152 51.4486C22.3058 51.43 22.3041 51.4084 22.3106 51.3886C22.317 51.3687 22.3311 51.3523 22.3496 51.3428L29.7609 47.6182L30.6471 49.378ZM19.67 60.1014C18.5698 60.6543 17.295 60.7476 16.126 60.3607C14.957 59.9738 13.9895 59.1385 13.4364 58.0384L7.63449 46.4951C7.08315 45.3945 6.99071 44.1201 7.37743 42.9515C7.76416 41.7828 8.59849 40.8151 9.69753 40.2606L22.762 33.6935L28.6303 45.3661L21.219 49.0916C20.6039 49.4018 20.137 49.9432 19.9207 50.5972C19.7043 51.2512 19.7561 51.9643 20.0648 52.5801L20.8796 54.2013C21.032 54.5066 21.2434 54.7786 21.5017 55.0017C21.7599 55.2248 22.0598 55.3944 22.384 55.5007C22.6482 55.5887 22.9247 55.6338 23.203 55.6343C23.6076 55.634 24.0065 55.5384 24.3673 55.3554L31.7786 51.63L32.7362 53.5335L19.67 60.1014ZM28.8655 61.4143C28.9602 61.6034 29.1011 61.7656 29.2751 61.8858C29.449 62.0061 29.6505 62.0805 29.8609 62.1023L33.1352 62.4425L32.7362 64.1628C32.4933 65.2137 32.5882 66.3144 33.0073 67.3082C33.4264 68.3019 34.1485 69.1381 35.0706 69.6976L37.8787 71.3986L36.9177 73.4818L33.031 73.0114C31.9925 72.8867 31.0011 72.5066 30.1455 71.905C29.2899 71.3034 28.5967 70.4991 28.128 69.564L23.7574 60.8658L27.6156 58.9271L28.8655 61.4143ZM62.4722 47.8038L52.7828 28.5258C52.7092 28.3768 52.6068 28.2437 52.4816 28.1344C52.3563 28.0251 52.2107 27.9416 52.053 27.8888C51.8954 27.836 51.7288 27.815 51.563 27.8269C51.3972 27.8387 51.0868 27.958 51.0868 27.958C51.0868 27.958 50.806 28.1361 50.6976 28.2621C50.5892 28.3882 50.5069 28.5344 50.4553 28.6925C50.4036 28.8505 50.3838 29.0172 50.3969 29.1829C50.41 29.3487 50.4558 29.5102 50.5316 29.6581L59.8842 48.2658L35.131 52.6876L24.8704 32.2756L43.1883 15.0489L47.0011 22.6349C47.0735 22.7859 47.1752 22.921 47.3004 23.0322C47.4256 23.1435 47.5717 23.2286 47.7301 23.2828C47.8886 23.3369 48.0563 23.3589 48.2234 23.3474C48.3904 23.336 48.5536 23.2914 48.7032 23.2162C48.8528 23.141 48.9859 23.0367 49.0948 22.9094C49.2037 22.7822 49.2861 22.6345 49.3372 22.475C49.3883 22.3156 49.4071 22.1475 49.3926 21.9807C49.378 21.8139 49.3303 21.6516 49.2523 21.5034L45.1027 13.2479L47.2464 11.2319L56.3083 29.2583L58.9316 34.4789L65.3694 47.2855L62.4722 47.8038Z" fill="black"/>
<path d="M13.615 40.544C13.3807 40.6617 13.1866 40.8463 13.0573 41.0744C12.9279 41.3025 12.8691 41.5638 12.8883 41.8253C12.9075 42.0869 13.0039 42.3368 13.1651 42.5435C13.3264 42.7503 13.5454 42.9046 13.7943 42.9869C14.0433 43.0691 14.3111 43.0757 14.5638 43.0058C14.8165 42.9359 15.0428 42.7926 15.2141 42.594C15.3853 42.3954 15.4938 42.1505 15.5259 41.8903C15.5579 41.6301 15.5121 41.3661 15.3941 41.132C15.3159 40.9765 15.2079 40.838 15.0761 40.7243C14.9444 40.6106 14.7916 40.524 14.6264 40.4694C14.4611 40.4148 14.2868 40.3933 14.1132 40.4061C13.9397 40.4189 13.7704 40.4657 13.615 40.544ZM19.6563 38.99C19.5385 38.7557 19.3539 38.5616 19.1258 38.4323C18.8977 38.3029 18.6364 38.2441 18.3749 38.2633C18.1134 38.2825 17.8634 38.3788 17.6567 38.5401C17.4499 38.7014 17.2957 38.9204 17.2134 39.1693C17.1311 39.4183 17.1245 39.6861 17.1944 39.9388C17.2644 40.1915 17.4077 40.4178 17.6062 40.5891C17.8048 40.7603 18.0497 40.8688 18.3099 40.9009C18.5702 40.9329 18.8341 40.8871 19.0683 40.7691C19.382 40.611 19.6202 40.3348 19.7305 40.0012C19.8408 39.6676 19.8141 39.3039 19.6563 38.99ZM69.7849 10.5308C69.6507 10.434 69.4987 10.3647 69.3377 10.3267C69.1766 10.2886 69.0096 10.2827 68.8463 10.3093C68.683 10.3358 68.5265 10.3942 68.3857 10.4812C68.2449 10.5682 68.1227 10.6821 68.026 10.8164L62.6433 18.284C62.5465 18.4182 62.4771 18.5702 62.439 18.7313C62.4009 18.8924 62.395 19.0594 62.4215 19.2227C62.4479 19.3861 62.5064 19.5427 62.5933 19.6835C62.6803 19.8243 62.7942 19.9466 62.9284 20.0434C63.0627 20.1402 63.2147 20.2096 63.3758 20.2476C63.5368 20.2857 63.7038 20.2916 63.8672 20.2651C64.0306 20.2387 64.1871 20.1803 64.3279 20.0933C64.4687 20.0063 64.591 19.8924 64.6878 19.7582L70.0705 12.2897C70.1673 12.1555 70.2366 12.0035 70.2747 11.8424C70.3127 11.6814 70.3186 11.5144 70.2921 11.3511C70.2655 11.1878 70.2071 11.0312 70.1201 10.8905C70.0331 10.7497 69.9192 10.6275 69.7849 10.5308ZM78.1371 28.3371L68.9323 28.201H68.9139C68.7484 28.1997 68.5843 28.2311 68.4309 28.2932C68.2776 28.3554 68.138 28.4471 68.0201 28.5632C67.782 28.7977 67.6468 29.1172 67.6442 29.4514C67.6416 29.7855 67.7719 30.107 68.0064 30.3451C68.2409 30.5832 68.5604 30.7185 68.8945 30.721L78.0993 30.8571H78.1194C78.2849 30.8583 78.449 30.8269 78.6023 30.7647C78.7556 30.7025 78.8952 30.6107 79.0131 30.4946C79.1309 30.3784 79.2248 30.2402 79.2892 30.0878C79.3537 29.9354 79.3875 29.7718 79.3887 29.6063C79.3899 29.4409 79.3585 29.2768 79.2963 29.1234C79.2341 28.9701 79.1423 28.8305 79.0261 28.7127C78.91 28.5948 78.7718 28.501 78.6194 28.4365C78.467 28.3721 78.3025 28.3383 78.1371 28.3371ZM67.9008 24.6915C68.0972 24.6918 68.2909 24.6458 68.4661 24.5571L77.938 19.796C78.0871 19.7224 78.2201 19.62 78.3294 19.4948C78.4387 19.3695 78.5222 19.2239 78.575 19.0662C78.6278 18.9086 78.6488 18.742 78.637 18.5762C78.6251 18.4104 78.5805 18.2485 78.5058 18.1C78.4311 17.9515 78.3277 17.8192 78.2017 17.7108C78.0756 17.6024 77.9294 17.52 77.7713 17.4684C77.6133 17.4168 77.4466 17.397 77.2809 17.4101C77.1151 17.4232 76.9536 17.469 76.8057 17.5448L67.3338 22.3076C67.0804 22.435 66.8775 22.6443 66.7578 22.9014C66.6381 23.1586 66.6086 23.4486 66.6742 23.7245C66.7398 24.0005 66.8966 24.2462 67.1192 24.422C67.3418 24.5978 67.6172 24.6933 67.9008 24.6932V24.6915Z" fill="black"/>
</svg>
