<svg width="78" height="26" viewBox="0 0 78 26" fill="none" xmlns="http://www.w3.org/2000/svg">
<path fill-rule="evenodd" clip-rule="evenodd" d="M0.212585 1.18235C5.57683 0.935376 9.4296 0.81189 11.7709 0.81189C16.1275 0.81189 19.2542 1.30583 21.1509 2.29372C22.8501 3.18283 23.6997 4.5313 23.6997 6.33913C23.6997 7.42581 23.4132 8.33961 22.8402 9.08053C22.2771 9.81157 21.4127 10.4438 20.247 10.9773C21.7091 11.4712 22.8353 12.1726 23.6256 13.0815C24.6629 14.2768 25.1815 15.9167 25.1815 18.0012C25.1815 22.11 22.2759 24.4482 16.4646 25.0157C16.4681 25.0098 16.471 25.0038 16.4733 24.9978C16.4901 24.9542 16.489 24.866 16.4709 24.8031L16.4577 24.7573L16.3822 24.7306C16.1635 24.6532 15.9957 24.5282 15.8782 24.355C15.7738 24.2013 15.6509 23.8538 15.5672 23.4761C15.5044 23.1924 15.4607 22.8745 15.4323 22.495C15.4198 22.3279 15.4197 21.6206 15.4322 21.4385C15.4451 21.2518 15.467 21.0154 15.488 20.8384C15.5107 20.6477 15.5176 20.4976 15.5058 20.4545C15.5011 20.4371 15.488 20.4136 15.4767 20.4024C15.4599 20.3855 15.4503 20.382 15.4216 20.3822C15.4024 20.3823 15.3693 20.3896 15.3473 20.3986C15.3255 20.4076 15.2883 20.426 15.2646 20.4395C15.2021 20.4752 15.0164 20.6171 14.8839 20.7305C14.8207 20.7846 14.7439 20.8444 14.7132 20.8633C14.6205 20.9204 14.4908 20.9568 14.3791 20.9569C14.3422 20.9569 14.327 20.9596 14.3271 20.9659C14.3273 20.9813 15.0576 25.0249 15.0607 25.0279C15.0634 25.0305 15.3622 25.0581 15.6471 25.0826C15.3546 25.1021 15.0554 25.1175 14.7494 25.1288C13.7516 25.1683 12.9761 25.1881 12.4229 25.1881C11.8697 25.1881 11.3906 25.1831 10.9855 25.1733C10.5805 25.1634 10.1162 25.1486 9.5926 25.1288C9.0789 25.1189 8.5158 25.1041 7.90331 25.0843C7.4052 25.0762 6.90034 25.0613 6.38872 25.0396C6.39666 25.0127 6.40066 24.9839 6.40066 24.9531C6.40066 24.787 6.31069 24.6207 6.18839 24.5609C6.12893 24.5318 6.07715 24.5336 5.95512 24.569C5.79467 24.6156 5.69785 24.6069 5.60659 24.5378C5.50184 24.4585 5.42184 24.2955 5.28295 23.8786C5.20183 23.635 5.16239 23.4574 5.14254 23.2463C5.13037 23.1168 5.13771 22.8563 5.15691 22.7358C5.19747 22.4813 5.28303 22.2393 5.39113 22.0734C5.52258 21.8717 5.64844 21.7303 6.10944 21.266C6.52189 20.8507 6.58591 20.7815 6.67929 20.6507C6.83076 20.4384 6.91514 20.2629 7.16083 19.6489C7.29112 19.3233 7.33929 19.195 7.36618 19.1018L7.38295 19.0437L7.5647 19.2367C7.74461 19.4277 7.91491 19.5954 8.07525 19.7393C8.27813 19.9215 8.39609 19.999 8.76002 20.1893C9.27528 20.4588 9.58478 20.5801 10.2215 20.7624C10.7668 20.9185 10.9758 20.932 11.1043 20.8192C11.1679 20.7633 11.2115 20.622 11.3303 20.0873C11.3962 19.7907 11.4084 19.7455 11.4419 19.6726C11.4869 19.5746 11.5226 19.5434 11.5814 19.5506C11.6154 19.5547 11.7574 19.6055 11.7918 19.6258C11.8026 19.6322 11.8147 19.6468 11.8187 19.6582C11.8341 19.7024 11.8076 19.7659 11.6955 19.9534C11.5684 20.1661 11.5331 20.2556 11.4785 20.5042C11.3784 20.9592 11.3486 21.2184 11.3484 21.6362C11.3483 21.9173 11.3542 22.0124 11.3849 22.2291C11.441 22.6251 11.5454 23.0051 11.7299 23.4849C11.8223 23.7251 11.8609 23.7909 12.0863 24.0916C12.3589 24.4554 12.4832 24.6395 12.5508 24.7792C12.5798 24.8392 12.5844 24.8551 12.5851 24.8962C12.5855 24.9224 12.5881 24.9475 12.5909 24.9521C12.6059 24.9762 12.6422 24.9838 12.7709 24.9894C12.8547 24.9931 12.973 25.0053 13.1053 25.0239C13.218 25.0398 13.3425 25.0566 13.382 25.0613C13.4758 25.0725 13.6507 25.073 13.7054 25.0622C13.7716 25.0491 13.8353 25.0149 13.8584 24.9799C13.876 24.9533 13.8778 24.9441 13.8778 24.8849C13.8778 24.8236 13.8761 24.8157 13.8509 24.7647C13.7565 24.5738 13.4435 24.48 13.1485 24.5543C13.107 24.5647 13.0486 24.575 13.0187 24.5772C12.9237 24.5841 12.9109 24.5712 12.8074 24.3642C12.6811 24.1117 12.6388 24.0035 12.6105 23.8606C12.5477 23.5438 12.5432 23.1411 12.599 22.8405C12.6418 22.61 12.7235 22.3836 12.8435 22.1636C13.0799 21.7298 13.4432 21.2256 13.8374 20.7841C13.8915 20.7235 13.8931 20.7224 13.9605 20.6988C14.5 20.5098 15.0624 20.1777 15.4609 19.813C16.0239 19.2975 16.2659 18.5886 16.243 17.5215C16.231 16.9577 16.1406 15.9661 16.0551 15.4588C16.0455 15.4014 16.0136 15.2365 15.9842 15.0922C15.9072 14.7137 15.8937 14.5894 15.8936 14.2585C15.8936 14.0539 15.9001 13.9565 15.9234 13.8094C15.9548 13.6113 16.0071 13.439 16.0962 13.2399C16.1449 13.131 16.3297 12.7629 16.4599 12.5156C16.6638 12.1281 16.7547 11.9062 16.8092 11.6625C16.8407 11.5219 16.851 11.4322 16.8515 11.2974C16.8518 11.1772 16.8438 11.1119 16.8165 11.0131C16.8135 11.002 16.8171 10.9961 16.8309 10.9899C16.841 10.9852 16.8493 10.9779 16.8493 10.9736C16.8493 10.9692 16.8365 10.9441 16.8209 10.9177C16.7725 10.8362 16.7673 10.8016 16.7766 10.6255C16.7856 10.4568 16.7889 10.4214 16.7738 10.3979C16.7684 10.3894 16.7606 10.3825 16.7499 10.3714C16.7307 10.3518 16.6976 10.3265 16.6762 10.3153C16.6418 10.2973 16.6298 10.2949 16.5721 10.2948C16.5098 10.2948 16.5042 10.2961 16.4451 10.3254C16.3642 10.3655 16.3294 10.4026 16.1846 10.6028C16.1688 10.6245 16.1476 10.6403 16.1056 10.6613C16.0636 10.6823 16.0475 10.6942 16.0459 10.7055C16.0435 10.7221 16.0037 10.7426 15.9439 10.7582C15.9261 10.7629 15.8857 10.7805 15.854 10.7974C15.5958 10.9353 15.2747 11.019 15.0457 11.008C15.0041 11.006 14.9078 10.9927 14.8317 10.9784C14.7555 10.9641 14.631 10.9443 14.555 10.9343C14.3408 10.9062 14.2391 10.8888 14.1222 10.8603C14.0297 10.8378 14.0026 10.8341 13.9317 10.8342C13.8724 10.8343 13.8359 10.8381 13.8024 10.8479C13.7253 10.8702 13.5839 10.9287 13.4467 10.995C13.219 11.1049 13.1726 11.1341 12.6418 11.502C12.169 11.8296 12.0331 11.9065 11.8408 11.9548C11.7402 11.9801 11.6736 11.9874 11.5429 11.9874C11.4407 11.9874 11.4085 11.9842 11.2866 11.9622C10.8149 11.8772 10.5003 11.8498 10.2977 11.8762C10.1583 11.8944 9.91469 11.9555 9.91469 11.9723C9.91469 11.9848 9.96714 12.1078 9.99762 12.1668C10.1046 12.3736 10.2532 12.5458 10.4572 12.699C10.7107 12.8892 10.8939 12.978 11.1096 13.0149C11.2252 13.0346 11.4347 13.0461 11.6066 13.0421L11.7507 13.0388L11.8909 13.0022C12.0631 12.9571 12.2116 12.9267 12.2327 12.932C12.2783 12.9434 12.255 12.9981 12.1484 13.1307C12.1158 13.1712 12.0554 13.2378 12.0142 13.2787L11.9392 13.353L11.9968 13.4374C12.175 13.699 12.2906 13.9618 12.3691 14.2837C12.4291 14.5296 12.4483 14.6966 12.4421 14.9153C12.4373 15.0801 12.4259 15.1668 12.3894 15.315C12.2921 15.7107 12.0654 16.0619 11.7256 16.3436C11.3353 16.6672 11.0019 16.8162 10.3701 16.9493C9.98286 17.0309 9.46388 17.0532 9.02001 17.0073C8.4438 16.9477 8.0955 16.8745 7.76603 16.7438C7.40474 16.6006 7.0451 16.3649 6.75372 16.0806C6.30324 15.641 6.04061 15.1184 5.95732 14.4957C5.941 14.3737 5.93886 13.9893 5.95384 13.8704C6.0009 13.4967 6.11431 13.1917 6.32251 12.8789C6.47313 12.6527 6.76595 12.3045 7.01842 12.0515C7.2292 11.8402 7.30086 11.7804 7.84867 11.3587C8.3103 11.0032 8.57769 10.7911 8.98049 10.4607C9.45908 10.0682 9.55597 9.9831 9.78206 9.75648C10.2038 9.33374 10.4636 9.01177 10.6758 8.6489C11.1425 7.85084 11.3296 6.87119 11.1865 5.97527C11.125 5.59059 11.0099 5.22653 10.8385 4.8749C10.7454 4.68381 10.672 4.55547 10.5491 4.36893C10.268 3.94242 10.0135 3.66108 9.51226 3.2227C8.97778 2.75528 8.56476 2.46573 8.02473 2.17983C7.94766 2.13903 7.85344 2.09122 7.81535 2.07359L7.74611 2.04152L7.71569 2.16847C7.56259 2.80727 7.41684 3.25554 7.26311 3.56037C7.14495 3.79469 7.019 3.97552 6.74503 4.30424C6.24225 4.9075 5.86314 5.2934 5.11768 5.96071C4.87121 6.18134 4.5744 6.48209 4.36915 6.71914C3.76321 7.419 3.29079 8.21981 3.02934 8.99029C2.72353 9.89149 2.62189 10.9283 2.74325 11.9083C2.86842 12.919 3.24389 13.9295 3.80887 14.776C4.00421 15.0687 4.22498 15.3528 4.47902 15.6384C4.80883 16.0093 5.2936 16.4873 5.67306 16.8159C5.75309 16.8852 5.81849 16.9437 5.81839 16.946C5.81828 16.9483 5.79685 16.9597 5.77076 16.9713C5.68811 17.0082 5.58086 17.093 5.34893 17.3048C5.01122 17.6131 4.68532 18.0553 4.45276 18.5205C4.21754 18.9911 4.09916 19.4152 4.06462 19.9111C4.0486 20.1411 4.06102 20.6573 4.09418 21.1402C4.12975 21.658 4.23643 22.3039 4.37137 22.8184C4.44565 23.1017 4.50534 23.2916 4.59842 23.5408C4.66931 23.7306 4.7694 24.0159 4.90974 24.4284C5.03497 24.7964 5.08091 24.912 5.14574 24.9956C4.83744 24.9857 4.53165 24.9757 4.22836 24.9658C3.62575 24.946 3.06265 24.9213 2.53907 24.8917C2.01549 24.872 1.55118 24.8571 1.14614 24.8473C0.741108 24.8275 0.429922 24.8077 0.212585 24.788V1.18235ZM28.2489 1.18235H45.2752V7.88024H37.4659V10.0734H45.2752V16.5342H37.4659V24.8473H28.2489V1.18235ZM47.8684 1.18235H51.2618L62.7016 11.9257L74.4525 1.18235H77.7274V24.8473H67.9917V17.1713L61.9458 23.81L56.063 17.3492V24.8473H47.8684V1.18235ZM15.9821 12.0695C16.052 11.8552 16.0916 11.6563 16.1127 11.4142C16.1152 11.3855 16.1162 11.3621 16.115 11.3622C16.1137 11.3622 16.0659 11.3995 16.0085 11.4451C15.6521 11.7284 15.3422 11.9127 14.8552 12.131C14.5271 12.278 14.2558 12.4258 13.9892 12.6025C13.7618 12.7533 13.6058 12.909 13.454 13.137C13.1944 13.5266 13.0967 13.9581 13.1635 14.42C13.1715 14.4752 13.1794 14.5218 13.1811 14.5235C13.1853 14.5277 13.2725 14.4697 13.3569 14.4066C13.4634 14.327 13.56 14.2414 13.6887 14.1127C13.7539 14.0475 13.8178 13.9887 13.8307 13.982C13.8574 13.9682 13.8841 13.972 13.8931 13.9907C13.8964 13.9977 13.8993 14.1408 13.8994 14.3088C13.8998 14.638 13.9013 14.6565 13.9431 14.8227C13.9808 14.9726 14.0706 15.2364 14.1548 15.4446C14.2558 15.6945 14.401 15.9937 14.5651 16.2898C14.7299 16.5873 14.8213 16.8368 14.8911 17.1801C15.018 17.8038 14.9633 18.4376 14.7322 19.0219C14.5651 19.4443 14.3389 19.7911 14 20.1442C13.9605 20.1854 13.933 20.2163 13.9389 20.213C13.9449 20.2096 13.9934 20.1778 14.0467 20.1422C14.5789 19.7877 15.0139 19.359 15.2912 18.9158C15.6002 18.4218 15.7165 17.9459 15.7046 17.2238C15.6973 16.7779 15.6734 16.6415 15.4589 15.8217C15.3547 15.4237 15.3085 15.0759 15.2994 14.6215C15.2943 14.3636 15.3101 13.9728 15.3371 13.6907C15.3781 13.2628 15.4811 12.9672 15.7122 12.6147C15.8554 12.3963 15.9143 12.2774 15.9821 12.0695ZM7.69624 20.1736C7.74979 20.0805 7.7647 20.0599 7.78759 20.0474C7.82886 20.0248 7.86867 20.0428 7.92154 20.1077C7.96552 20.1617 8.0219 20.2057 8.1936 20.32C8.4284 20.4763 8.53183 20.5418 8.65973 20.6151C8.80665 20.6994 9.08799 20.8409 9.22518 20.8996C9.33818 20.948 9.4377 20.9967 9.45657 21.013C9.47423 21.0283 9.47222 21.0592 9.45083 21.1014C9.44075 21.1213 9.42304 21.1622 9.41147 21.1922C9.38665 21.2567 9.32861 21.3561 9.26826 21.4375C9.15254 21.5936 8.97722 21.7571 8.74694 21.9238C8.63401 22.0056 8.55183 22.0751 8.44626 22.1784C8.15186 22.4663 7.99588 22.7518 7.94892 23.0887C7.93215 23.2091 7.93754 23.4471 7.9599 23.5731C8.00557 23.8306 8.07617 24.0184 8.21658 24.2557C8.36103 24.4998 8.41047 24.5522 8.51531 24.5727C8.53599 24.5767 8.65801 24.5825 8.78646 24.5856L9.02001 24.5911L9.05945 24.6113C9.13647 24.6509 9.21126 24.7468 9.24583 24.8504C9.2669 24.9135 9.26571 24.9481 9.24184 24.9669C9.20663 24.9946 9.1791 24.9966 8.85334 24.9949C8.64435 24.9938 8.49748 24.9965 8.41637 25.0028C8.34918 25.008 8.25702 25.0109 8.21157 25.0093C8.13946 25.0067 8.12421 25.0038 8.09193 24.9871C8.04057 24.9605 8.01946 24.9312 7.97824 24.8293C7.9398 24.7343 7.84843 24.548 7.74534 24.3544C7.51992 23.9311 7.36204 23.5324 7.26657 23.1455C7.18345 22.8085 7.15808 22.5589 7.16444 22.1402C7.16858 21.8677 7.17696 21.7658 7.21322 21.5471C7.28632 21.1062 7.48552 20.5398 7.69624 20.1736Z" fill="black"/>
</svg>
