<svg width="78" height="25" viewBox="0 0 78 25" fill="none" xmlns="http://www.w3.org/2000/svg">
<path fill-rule="evenodd" clip-rule="evenodd" d="M0.291687 0.497412C5.65593 0.250439 9.5087 0.126953 11.85 0.126953C16.2066 0.126953 19.3333 0.620898 21.23 1.60879C22.9292 2.49789 23.7788 3.84636 23.7788 5.6542C23.7788 6.74088 23.4923 7.65468 22.9193 8.39559C22.3562 9.12663 21.4918 9.75888 20.3261 10.2923C21.7882 10.7863 22.9144 11.4877 23.7047 12.3965C24.742 13.5919 25.2606 15.2318 25.2606 17.3162C25.2606 21.425 22.355 23.7632 16.5437 24.3308C16.5472 24.3248 16.5501 24.3188 16.5524 24.3129C16.5692 24.2692 16.5682 24.1811 16.55 24.1181L16.5368 24.0724L16.4613 24.0457C16.2426 23.9683 16.0748 23.8432 15.9573 23.6701C15.8529 23.5164 15.73 23.1689 15.6463 22.7911C15.5835 22.5075 15.5398 22.1896 15.5114 21.8101C15.4989 21.6429 15.4988 20.9357 15.5113 20.7536C15.5242 20.5669 15.5461 20.3305 15.5671 20.1534C15.5898 19.9628 15.5967 19.8127 15.5849 19.7696C15.5802 19.7522 15.5671 19.7287 15.5558 19.7175C15.539 19.7006 15.5294 19.6971 15.5007 19.6972C15.4815 19.6973 15.4484 19.7047 15.4264 19.7137C15.4046 19.7227 15.3674 19.7411 15.3437 19.7546C15.2812 19.7902 15.0955 19.9322 14.963 20.0456C14.8998 20.0997 14.823 20.1595 14.7923 20.1784C14.6996 20.2355 14.5699 20.2719 14.4582 20.272C14.4213 20.272 14.4061 20.2746 14.4062 20.281C14.4064 20.2963 15.1367 24.34 15.1398 24.3429C15.1425 24.3455 15.4413 24.3732 15.7263 24.3977C15.4337 24.4172 15.1345 24.4326 14.8285 24.4439C13.8307 24.4834 13.0552 24.5031 12.502 24.5031C11.9488 24.5031 11.4697 24.4982 11.0646 24.4883C10.6596 24.4784 10.1953 24.4636 9.6717 24.4439C9.158 24.434 8.5949 24.4192 7.98241 24.3994C7.4843 24.3912 6.97944 24.3763 6.46783 24.3547C6.47576 24.3278 6.47976 24.2989 6.47976 24.2681C6.47976 24.102 6.38979 23.9358 6.2675 23.876C6.20803 23.8469 6.15625 23.8487 6.03422 23.8841C5.87377 23.9307 5.77695 23.922 5.68569 23.8529C5.58095 23.7736 5.50094 23.6106 5.36205 23.1936C5.28093 22.9501 5.24149 22.7725 5.22164 22.5613C5.20947 22.4319 5.21681 22.1714 5.23601 22.0509C5.27658 21.7963 5.36213 21.5544 5.47023 21.3885C5.60168 21.1868 5.72754 21.0453 6.18854 20.5811C6.60099 20.1657 6.66501 20.0966 6.75839 19.9657C6.90987 19.7535 6.99425 19.578 7.23993 18.964C7.37022 18.6384 7.41839 18.51 7.44528 18.4169L7.46205 18.3588L7.6438 18.5518C7.82371 18.7428 7.99401 18.9104 8.15436 19.0544C8.35723 19.2365 8.4752 19.3141 8.83912 19.5044C9.35438 19.7738 9.66389 19.8952 10.3006 20.0775C10.8459 20.2336 11.0549 20.247 11.1834 20.1343C11.247 20.0784 11.2906 19.9371 11.4094 19.4024C11.4753 19.1058 11.4875 19.0605 11.521 18.9877C11.566 18.8897 11.6017 18.8585 11.6605 18.8656C11.6945 18.8698 11.8365 18.9205 11.8709 18.9408C11.8817 18.9472 11.8938 18.9618 11.8978 18.9733C11.9132 19.0174 11.8867 19.0809 11.7746 19.2685C11.6475 19.4812 11.6122 19.5707 11.5576 19.8192C11.4575 20.2743 11.4277 20.5335 11.4275 20.9512C11.4274 21.2324 11.4333 21.3275 11.464 21.5442C11.5201 21.9402 11.6245 22.3201 11.809 22.8C11.9014 23.0402 11.94 23.106 12.1654 23.4067C12.438 23.7705 12.5623 23.9545 12.6299 24.0942C12.6589 24.1543 12.6635 24.1701 12.6642 24.2113C12.6646 24.2375 12.6672 24.2626 12.67 24.2671C12.685 24.2913 12.7213 24.2989 12.85 24.3045C12.9338 24.3082 13.0521 24.3204 13.1844 24.339C13.2971 24.3548 13.4216 24.3716 13.4611 24.3764C13.5549 24.3875 13.7298 24.388 13.7845 24.3772C13.8507 24.3642 13.9144 24.3299 13.9375 24.295C13.9551 24.2683 13.9569 24.2592 13.9569 24.1999C13.9569 24.1386 13.9552 24.1308 13.93 24.0798C13.8356 23.8888 13.5226 23.795 13.2276 23.8693C13.1861 23.8798 13.1277 23.8901 13.0978 23.8923C13.0028 23.8992 12.99 23.8863 12.8865 23.6793C12.7602 23.4268 12.7179 23.3185 12.6896 23.1757C12.6269 22.8589 12.6223 22.4562 12.6781 22.1556C12.7209 21.925 12.8026 21.6987 12.9226 21.4787C13.159 21.0449 13.5223 20.5406 13.9165 20.0992C13.9706 20.0385 13.9722 20.0374 14.0396 20.0138C14.5791 19.8248 15.1415 19.4928 15.54 19.128C16.103 18.6126 16.345 17.9036 16.3221 16.8365C16.3101 16.2727 16.2197 15.2812 16.1342 14.7738C16.1246 14.7165 16.0927 14.5516 16.0633 14.4073C15.9863 14.0287 15.9728 13.9045 15.9727 13.5736C15.9727 13.369 15.9792 13.2715 16.0025 13.1245C16.0339 12.9264 16.0862 12.7541 16.1753 12.555C16.224 12.4461 16.4088 12.078 16.539 11.8307C16.7429 11.4431 16.8338 11.2213 16.8883 10.9776C16.9198 10.837 16.9301 10.7473 16.9306 10.6124C16.9309 10.4922 16.9229 10.4269 16.8956 10.3281C16.8926 10.3171 16.8962 10.3112 16.91 10.3049C16.9201 10.3003 16.9284 10.293 16.9284 10.2886C16.9284 10.2843 16.9156 10.2592 16.9 10.2328C16.8516 10.1513 16.8464 10.1166 16.8557 9.9406C16.8647 9.77188 16.868 9.73651 16.8529 9.71293C16.8475 9.70447 16.8397 9.69752 16.829 9.68648C16.8098 9.66684 16.7767 9.64159 16.7553 9.63037C16.7209 9.61233 16.7089 9.60995 16.6512 9.6099C16.5889 9.60983 16.5833 9.61118 16.5242 9.64044C16.4433 9.68054 16.4085 9.71763 16.2637 9.91782C16.248 9.9396 16.2267 9.95537 16.1847 9.97638C16.1427 9.99737 16.1266 10.0093 16.125 10.0206C16.1226 10.0372 16.0828 10.0577 16.023 10.0733C16.0052 10.0779 15.9648 10.0955 15.9331 10.1124C15.6749 10.2504 15.3538 10.3341 15.1248 10.323C15.0832 10.321 14.9869 10.3077 14.9108 10.2935C14.8347 10.2792 14.7102 10.2594 14.6341 10.2494C14.4199 10.2212 14.3182 10.2039 14.2013 10.1754C14.1088 10.1529 14.0817 10.1492 14.0108 10.1493C13.9515 10.1494 13.915 10.1532 13.8815 10.1629C13.8044 10.1853 13.663 10.2438 13.5258 10.31C13.2981 10.42 13.2517 10.4492 12.7209 10.817C12.2481 11.1447 12.1122 11.2215 11.9199 11.2699C11.8193 11.2951 11.7527 11.3024 11.622 11.3024C11.5198 11.3024 11.4876 11.2993 11.3657 11.2773C10.894 11.1922 10.5794 11.1649 10.3768 11.1913C10.2374 11.2094 9.99379 11.2706 9.99379 11.2874C9.99379 11.2999 10.0462 11.4229 10.0767 11.4818C10.1837 11.6887 10.3323 11.8609 10.5363 12.014C10.7898 12.2043 10.973 12.293 11.1887 12.3299C11.3043 12.3497 11.5138 12.3612 11.6857 12.3572L11.8298 12.3539L11.97 12.3172C12.1422 12.2722 12.2907 12.2417 12.3118 12.247C12.3574 12.2584 12.3341 12.3132 12.2275 12.4458C12.1949 12.4863 12.1345 12.5529 12.0933 12.5938L12.0183 12.6681L12.0759 12.7525C12.2541 13.0141 12.3698 13.2769 12.4482 13.5987C12.5082 13.8446 12.5275 14.0117 12.5212 14.2304C12.5164 14.3951 12.505 14.4818 12.4685 14.6301C12.3712 15.0258 12.1445 15.377 11.8047 15.6587C11.4144 15.9823 11.081 16.1312 10.4492 16.2644C10.062 16.3459 9.54299 16.3682 9.09911 16.3223C8.5229 16.2628 8.1746 16.1896 7.84513 16.0589C7.48385 15.9156 7.1242 15.68 6.83282 15.3957C6.38234 14.9561 6.11971 14.4334 6.03642 13.8107C6.02011 13.6888 6.01796 13.3044 6.03294 13.1855C6.08 12.8117 6.19341 12.5068 6.40161 12.194C6.55223 11.9677 6.84505 11.6196 7.09752 11.3665C7.3083 11.1553 7.37996 11.0955 7.92777 10.6737C8.3894 10.3183 8.65679 10.1062 9.05959 9.77581C9.53819 9.38328 9.63507 9.29816 9.86116 9.07154C10.2829 8.6488 10.5427 8.32683 10.7549 7.96397C11.2216 7.1659 11.4087 6.18626 11.2656 5.29033C11.2041 4.90566 11.089 4.5416 10.9176 4.18996C10.8245 3.99887 10.7511 3.87054 10.6282 3.68399C10.3471 3.25748 10.0926 2.97614 9.59136 2.53777C9.05688 2.07035 8.64386 1.7808 8.10383 1.4949C8.02676 1.4541 7.93254 1.40629 7.89445 1.38865L7.82522 1.35658L7.79479 1.48353C7.6417 2.12233 7.49594 2.5706 7.34221 2.87543C7.22405 3.10975 7.0981 3.29059 6.82413 3.61931C6.32136 4.22257 5.94224 4.60846 5.19678 5.27578C4.95031 5.49641 4.6535 5.79715 4.44825 6.0342C3.84231 6.73406 3.36989 7.53488 3.10844 8.30536C2.80264 9.20655 2.70099 10.2433 2.82236 11.2234C2.94752 12.2341 3.32299 13.2445 3.88797 14.091C4.08331 14.3837 4.30408 14.6679 4.55813 14.9535C4.88793 15.3244 5.3727 15.8024 5.75216 16.1309C5.83219 16.2002 5.8976 16.2588 5.89749 16.2611C5.89738 16.2633 5.87595 16.2747 5.84986 16.2864C5.76721 16.3233 5.65996 16.4081 5.42803 16.6199C5.09033 16.9282 4.76442 17.3703 4.53186 17.8356C4.29664 18.3062 4.17827 18.7302 4.14372 19.2262C4.1277 19.4561 4.14012 19.9724 4.17329 20.4553C4.20885 20.9731 4.31553 21.6189 4.45047 22.1335C4.52475 22.4167 4.58444 22.6066 4.67752 22.8558C4.74841 23.0456 4.8485 23.331 4.98884 23.7434C5.11407 24.1115 5.16001 24.2271 5.22484 24.3107C4.91655 24.3008 4.61075 24.2908 4.30746 24.2809C3.70485 24.2611 3.14175 24.2364 2.61817 24.2068C2.09459 24.187 1.63028 24.1722 1.22524 24.1623C0.820209 24.1426 0.509024 24.1228 0.291687 24.103V0.497412ZM28.328 0.497412H45.3543V7.19531H37.545V9.38842H45.3543V15.8492H37.545V24.1623H28.328V0.497412ZM47.9475 0.497412H51.3409L62.7807 11.2407L74.5316 0.497412H77.8065V24.1623H68.0708V16.4864L62.0249 23.125L56.1421 16.6642V24.1623H47.9475V0.497412ZM16.0612 11.3845C16.1311 11.1703 16.1707 10.9713 16.1918 10.7292C16.1943 10.7006 16.1953 10.6772 16.1941 10.6772C16.1928 10.6773 16.145 10.7146 16.0876 10.7601C15.7312 11.0435 15.4213 11.2277 14.9343 11.4461C14.6062 11.5931 14.3349 11.7408 14.0683 11.9175C13.8409 12.0683 13.6849 12.2241 13.5331 12.452C13.2735 12.8417 13.1758 13.2732 13.2426 13.7351C13.2506 13.7903 13.2585 13.8369 13.2602 13.8386C13.2644 13.8428 13.3516 13.7847 13.436 13.7217C13.5425 13.6421 13.6391 13.5565 13.7678 13.4278C13.833 13.3626 13.8969 13.3037 13.9099 13.2971C13.9365 13.2833 13.9632 13.287 13.9722 13.3058C13.9755 13.3127 13.9784 13.4559 13.9785 13.6239C13.9789 13.9531 13.9804 13.9716 14.0222 14.1378C14.0599 14.2877 14.1497 14.5515 14.2339 14.7597C14.3349 15.0096 14.4801 15.3087 14.6442 15.6049C14.809 15.9023 14.9004 16.1518 14.9702 16.4952C15.0971 17.1189 15.0424 17.7527 14.8113 18.337C14.6442 18.7594 14.418 19.1061 14.0791 19.4593C14.0396 19.5005 14.0121 19.5314 14.018 19.528C14.024 19.5247 14.0725 19.4929 14.1258 19.4573C14.658 19.1028 15.093 18.6741 15.3703 18.2309C15.6793 17.7368 15.7956 17.261 15.7837 16.5389C15.7764 16.0929 15.7525 15.9566 15.538 15.1368C15.4338 14.7388 15.3876 14.391 15.3785 13.9365C15.3734 13.6787 15.3892 13.2878 15.4162 13.0058C15.4572 12.5779 15.5602 12.2822 15.7913 11.9297C15.9345 11.7113 15.9934 11.5924 16.0612 11.3845ZM7.77534 19.4886C7.8289 19.3956 7.8438 19.375 7.86669 19.3625C7.90796 19.3399 7.94777 19.3578 8.00064 19.4227C8.04462 19.4767 8.10101 19.5207 8.2727 19.635C8.5075 19.7913 8.61094 19.8568 8.73883 19.9302C8.88576 20.0144 9.16709 20.156 9.30428 20.2147C9.41728 20.263 9.5168 20.3118 9.53567 20.3281C9.55333 20.3433 9.55132 20.3742 9.52993 20.4165C9.51985 20.4363 9.50214 20.4772 9.49057 20.5073C9.46575 20.5717 9.40771 20.6711 9.34736 20.7525C9.23164 20.9086 9.05633 21.0722 8.82604 21.2389C8.71311 21.3206 8.63093 21.3902 8.52536 21.4934C8.23096 21.7814 8.07499 22.0669 8.02802 22.4038C8.01125 22.5241 8.01664 22.7622 8.039 22.8882C8.08467 23.1457 8.15527 23.3334 8.29569 23.5707C8.44013 23.8148 8.48957 23.8673 8.59441 23.8878C8.61509 23.8918 8.73711 23.8976 8.86556 23.9006L9.09911 23.9061L9.13856 23.9264C9.21557 23.966 9.29036 24.0619 9.32493 24.1655C9.346 24.2286 9.34481 24.2632 9.32094 24.2819C9.28574 24.3096 9.25821 24.3116 8.93244 24.3099C8.72346 24.3089 8.57658 24.3115 8.49547 24.3178C8.42828 24.323 8.33612 24.326 8.29067 24.3243C8.21856 24.3217 8.20332 24.3189 8.17103 24.3022C8.11967 24.2755 8.09856 24.2462 8.05734 24.1444C8.0189 24.0493 7.92753 23.863 7.82444 23.6694C7.59902 23.2462 7.44114 22.8475 7.34567 22.4605C7.26255 22.1236 7.23718 21.8739 7.24354 21.4553C7.24768 21.1828 7.25606 21.0809 7.29232 20.8622C7.36542 20.4213 7.56462 19.8548 7.77534 19.4886Z" fill="white"/>
</svg>
