<svg width="72" height="72" viewBox="0 0 72 72" fill="none" xmlns="http://www.w3.org/2000/svg">
<g clip-path="url(#clip0_836_7236)">
<path d="M43.0875 72H28.9125L26.55 64.9125C25.0875 64.4625 23.7375 63.9 22.275 63.1125L15.525 66.4875L5.5125 56.475L8.8875 49.725C8.2125 48.375 7.65 46.9125 7.0875 45.45L0 43.0875V28.9125L7.0875 26.55C7.5375 25.0875 8.1 23.7375 8.8875 22.275L5.5125 15.525L15.525 5.5125L22.275 8.8875C23.625 8.2125 25.0875 7.65 26.55 7.0875L28.9125 0H43.0875L45.45 7.0875C46.9125 7.5375 48.2625 8.1 49.725 8.8875L56.475 5.5125L66.4875 15.525L63.1125 22.275C63.7875 23.625 64.35 25.0875 64.9125 26.55L72 28.9125V43.0875L64.9125 45.45C64.4625 46.9125 63.9 48.2625 63.1125 49.725L66.4875 56.475L56.475 66.4875L49.725 63.1125C48.375 63.7875 46.9125 64.35 45.45 64.9125L43.0875 72ZM30.4875 69.8625H41.5125L43.7625 63.225L44.325 63.1125C46.0125 62.55 47.5875 61.875 49.1625 61.0875L49.6125 60.8625L55.9125 64.0125L63.7875 56.1375L60.75 49.725L60.975 49.275C61.7625 47.7 62.55 46.0125 63 44.4375L63.1125 43.875L69.75 41.625V30.6L63.1125 28.35L63 27.675C62.4375 25.9875 61.7625 24.4125 60.975 22.8375L60.75 22.275L63.9 15.975L56.025 8.1L49.725 11.25L49.275 11.025C47.7 10.2375 46.0125 9.45 44.4375 9L43.875 8.8875L41.625 2.25H30.6L28.35 8.8875L27.675 9C25.9875 9.45 24.4125 10.2375 22.8375 11.025L22.275 11.25L15.975 8.1L8.1 15.975L11.25 22.275L11.025 22.725C10.2375 24.3 9.45 25.9875 9 27.5625L8.8875 28.125L2.25 30.375V41.4L8.8875 43.65L9 44.325C9.5625 46.0125 10.2375 47.5875 11.025 49.1625L11.25 49.6125L8.1 55.9125L15.975 63.7875L22.275 60.6375L22.725 60.8625C24.3 61.65 25.9875 62.4375 27.5625 62.8875L28.125 63L30.4875 69.8625Z" fill="black"/>
<path d="M35.9996 59.2879C23.0621 59.2879 12.5996 48.8254 12.5996 36.0004C12.5996 23.1754 23.1746 12.7129 35.9996 12.7129C48.9371 12.7129 59.3996 23.1754 59.3996 36.0004C59.3996 48.8254 48.9371 59.2879 35.9996 59.2879ZM35.9996 14.8504C24.2996 14.8504 14.7371 24.3004 14.7371 36.0004C14.7371 47.5879 24.2996 57.1504 35.9996 57.1504C47.6996 57.1504 57.2621 47.7004 57.2621 36.0004C57.2621 24.4129 47.6996 14.8504 35.9996 14.8504Z" fill="black"/>
<path d="M35.8871 59.2879C28.7996 59.0629 23.2871 48.8254 23.2871 36.0004C23.2871 23.1754 28.7996 12.9379 35.8871 12.7129C36.2246 12.7129 36.4496 12.8254 36.6746 13.0504C36.8996 13.2754 37.0121 13.5004 37.0121 13.8379V58.1629C37.0121 58.5004 36.8996 58.7254 36.6746 58.9504C36.4496 59.1754 36.2246 59.2879 35.8871 59.2879ZM34.7621 15.0754C29.4746 16.3129 25.4246 25.3129 25.4246 36.0004C25.4246 46.6879 29.5871 55.6879 34.7621 56.9254V15.0754Z" fill="black"/>
<path d="M35.8875 59.2883H35.775C35.2125 59.1758 34.875 58.7258 34.875 58.1633C34.875 57.4883 35.4375 57.0383 36 57.0383C41.7375 57.0383 46.575 47.3633 46.575 35.8883C46.575 24.5258 41.7375 14.8508 36 14.7383C35.325 14.7383 34.875 14.2883 34.875 13.6133C34.875 13.0508 35.325 12.6008 35.775 12.4883H35.8875C43.0875 12.4883 48.7125 22.7258 48.7125 35.7758C48.7125 49.0508 43.0875 59.2883 35.8875 59.2883Z" fill="black"/>
<path d="M36 26.5496C32.4 26.5496 28.9125 26.0996 25.7625 25.3121C23.0625 24.6371 20.5875 23.6246 18.5625 22.3871L19.6875 20.4746C21.4875 21.5996 23.85 22.4996 26.325 23.1746C29.25 23.9621 32.625 24.4121 36 24.4121C39.375 24.4121 42.6375 23.9621 45.675 23.1746C48.2625 22.4996 50.5125 21.5996 52.3125 20.4746L53.4375 22.3871C51.4125 23.6246 48.9375 24.6371 46.2375 25.3121C43.0875 26.0996 39.6 26.5496 36 26.5496Z" fill="black"/>
<path d="M19.9121 51.75L18.7871 49.95C20.6996 48.7125 23.1746 47.7 25.8746 46.9125C29.0246 46.0125 32.5121 45.5625 35.9996 45.5625C36.1121 45.5625 36.1121 45.5625 36.2246 45.5625H36.5621C39.9371 45.5625 43.1996 45.9 46.2371 46.6875C49.0496 47.3625 51.5246 48.2625 53.5496 49.5L52.4246 51.4125C50.5121 50.2875 48.2621 49.5 45.6746 48.825C42.7496 48.15 39.7121 47.8125 36.4496 47.8125H35.8871C32.5121 47.8125 29.2496 48.2625 26.2121 49.1625C23.8496 49.6125 21.7121 50.5125 19.9121 51.75Z" fill="black"/>
<path d="M58.3883 34.875H13.6133V37.0125H58.3883V34.875Z" fill="black"/>
</g>
<defs>
<clipPath id="clip0_836_7236">
<rect width="72" height="72" fill="white"/>
</clipPath>
</defs>
</svg>
