<svg width="65" height="61" viewBox="0 0 65 61" fill="none" xmlns="http://www.w3.org/2000/svg">
<path d="M19.6562 0.000122903C19.3496 0.000122903 19.0555 0.121941 18.8387 0.33878C18.6218 0.555619 18.5 0.849716 18.5 1.15637V16.1876H16.1875V10.1127C16.1875 8.36212 15.4359 6.89831 14.3259 5.97331C13.2159 5.05294 11.803 4.62512 10.4062 4.62512C9.0095 4.62512 7.59656 5.05294 6.48656 5.97562C5.37656 6.89831 4.625 8.36212 4.625 10.1127V16.1876H1.15625C0.849593 16.1876 0.555497 16.3094 0.338658 16.5263C0.121819 16.7431 0 17.0372 0 17.3439V52.0314C0 52.338 0.121819 52.6321 0.338658 52.849C0.555497 53.0658 0.849593 53.1876 1.15625 53.1876H18.5V58.9457C18.5 59.2524 18.6218 59.5465 18.8387 59.7633C19.0555 59.9802 19.3496 60.102 19.6562 60.102H63.5938C63.9004 60.102 64.1945 59.9802 64.4113 59.7633C64.6282 59.5465 64.75 59.2524 64.75 58.9457V10.8712C64.7511 10.7818 64.7418 10.6925 64.7223 10.6052C64.7465 10.4294 64.7299 10.2503 64.6737 10.0818C64.6176 9.91341 64.5234 9.76017 64.3985 9.634L55.1022 0.342373C54.993 0.2334 54.8631 0.147387 54.7201 0.089403C54.5772 0.0314186 54.424 0.00263484 54.2698 0.00474757C54.1865 0.00506412 54.1036 0.0143682 54.0223 0.0324978C53.9277 0.00958122 53.8306 -0.00129635 53.7332 0.000122903H19.6562ZM20.8125 2.31262H53.1297V10.4526C53.1297 10.7593 53.2515 11.0534 53.4683 11.2702C53.6852 11.4871 53.9793 11.6089 54.2859 11.6089H62.4375V57.7895H20.8125V53.1876H35.8438C36.1504 53.1876 36.4445 53.0658 36.6613 52.849C36.8782 52.6321 37 52.338 37 52.0314V17.3439C37 17.0372 36.8782 16.7431 36.6613 16.5263C36.4445 16.3094 36.1504 16.1876 35.8438 16.1876H20.8125V2.31262ZM55.4422 3.95219L60.7887 9.29406H55.4422V3.95219ZM10.4062 6.93531C11.322 6.93531 12.2216 7.23594 12.8459 7.75394C13.4703 8.27425 13.875 8.97956 13.875 10.1127V23.9414C13.875 25.5717 13.1882 25.8793 12.7188 25.8793C12.2493 25.8793 11.5625 25.5717 11.5625 23.9414V12.6194C11.5625 12.3128 11.4407 12.0187 11.2238 11.8018C11.007 11.585 10.7129 11.4632 10.4062 11.4632C10.0996 11.4632 9.8055 11.585 9.58866 11.8018C9.37182 12.0187 9.25 12.3128 9.25 12.6194V16.1876H6.9375V10.1127C6.9375 8.97956 7.34219 8.27425 7.96656 7.75394C8.59094 7.23594 9.4905 6.93531 10.4062 6.93531ZM25.4375 9.24781V11.5603H46.25V9.24781H25.4375ZM41.625 16.1853V18.4978H57.8125V16.1853H41.625ZM2.3125 18.4978H9.25V20.7987C6.71087 20.7987 4.625 22.8823 4.625 25.4237C4.625 27.9652 6.70625 30.0487 9.25 30.0487C10.5219 30.0487 11.6851 29.5307 12.5199 28.6936C12.6818 28.5317 12.8182 28.3467 12.9546 28.1664C14.6959 28.0207 16.1875 26.3256 16.1875 23.9414V18.5001H34.6875V50.8751H2.3125V18.4978ZM9.25 23.1112V23.9437C9.25 25.3567 9.78187 26.5176 10.5728 27.2714C10.1928 27.5637 9.72926 27.7266 9.25 27.7362C7.95962 27.7362 6.9375 26.7164 6.9375 25.4237C6.9375 24.1311 7.955 23.1112 9.25 23.1112ZM41.625 23.1251V25.4376H57.8125V23.1251H41.625ZM18.2572 31.4802C17.5264 31.4802 17.1703 31.8733 16.8466 32.1971L7.51562 42.5432C7.52025 42.5432 7.52025 42.5432 7.49713 42.5663C7.47694 42.5887 7.45765 42.6118 7.43931 42.6357L7.42081 42.6588C7.34404 42.7444 7.27588 42.8374 7.21731 42.9363C7.03003 43.2802 6.93371 43.6663 6.9375 44.0579C6.9375 45.2581 7.9365 46.2478 9.13437 46.2478H17.0131C17.0665 46.2477 17.1198 46.2438 17.1726 46.2362C17.2281 46.2455 17.2882 46.2501 17.3438 46.2501C21.1016 46.2501 24.2651 46.3126 28.9201 46.2501C29.2244 46.2465 29.5149 46.123 29.7288 45.9066C29.9426 45.6902 30.0625 45.3981 30.0625 45.0939V36.2231C30.0634 35.9663 29.9788 35.7166 29.822 35.5132L28.4461 33.7256C28.4256 33.6992 28.404 33.6738 28.3813 33.6493C27.9419 33.1683 27.2898 32.8631 26.6793 32.8977C26.1405 32.9323 25.6356 33.1723 25.2687 33.5684C25.2164 33.6252 25.1699 33.6872 25.1299 33.7534L23.4279 35.8346L20.1164 32.1716C19.8798 31.9248 19.5906 31.7344 19.2704 31.6147C18.9501 31.495 18.6069 31.449 18.2664 31.4802H18.2572ZM7.43931 42.6311L7.48787 42.5686C7.47631 42.5917 7.46706 42.5917 7.44856 42.6149C7.44394 42.6149 7.44163 42.6264 7.43931 42.6311ZM18.4954 33.8251L21.9456 37.6407L16.798 43.9307H9.37488L18.4954 33.8251ZM26.7926 35.3698L27.75 36.6162V43.9376C24.7507 43.9654 22.2694 43.9607 19.7834 43.9376L26.7903 35.3698H26.7926Z" fill="black"/>
</svg>
